ISO-10303-21;
HEADER;
/* Generated by software containing ST-Developer
 * from STEP Tools, Inc. (www.steptools.com) 
 */

FILE_DESCRIPTION(
/* description */ (''),
/* implementation_level */ '2;1');

FILE_NAME(
/* name */ 'Base Plate.step',
/* time_stamp */ '2026-08-30T16:48:08+05:30',
/* author */ (''),
/* organization */ (''),
/* preprocessor_version */ 'ST-DEVELOPER v20.1',
/* originating_system */ 'Autodesk Translation Framework v15.8.0.0',
/* authorisation */ '');

FILE_SCHEMA (('AUTOMOTIVE_DESIGN { 1 0 10303 214 3 1 1 }'));
ENDSEC;

DATA;
#10=MECHANICAL_DESIGN_GEOMETRIC_PRESENTATION_REPRESENTATION('',(#13),#711);
#11=SHAPE_REPRESENTATION_RELATIONSHIP('SRR','None',#718,#12);
#12=ADVANCED_BREP_SHAPE_REPRESENTATION('',(#14),#710);
#13=STYLED_ITEM('',(#727),#14);
#14=MANIFOLD_SOLID_BREP('Base Plate',#443);
#15=FACE_OUTER_BOUND('',#37,.T.);
#16=FACE_OUTER_BOUND('',#38,.T.);
#17=FACE_OUTER_BOUND('',#39,.T.);
#18=FACE_OUTER_BOUND('',#40,.T.);
#19=FACE_OUTER_BOUND('',#41,.T.);
#20=FACE_OUTER_BOUND('',#42,.T.);
#21=FACE_OUTER_BOUND('',#43,.T.);
#22=FACE_OUTER_BOUND('',#44,.T.);
#23=FACE_OUTER_BOUND('',#45,.T.);
#24=FACE_OUTER_BOUND('',#46,.T.);
#25=FACE_OUTER_BOUND('',#47,.T.);
#26=FACE_OUTER_BOUND('',#48,.T.);
#27=FACE_OUTER_BOUND('',#49,.T.);
#28=FACE_OUTER_BOUND('',#50,.T.);
#29=FACE_OUTER_BOUND('',#51,.T.);
#30=FACE_OUTER_BOUND('',#52,.T.);
#31=FACE_OUTER_BOUND('',#53,.T.);
#32=FACE_OUTER_BOUND('',#54,.T.);
#33=FACE_OUTER_BOUND('',#55,.T.);
#34=FACE_OUTER_BOUND('',#56,.T.);
#35=FACE_OUTER_BOUND('',#57,.T.);
#36=FACE_OUTER_BOUND('',#58,.T.);
#37=EDGE_LOOP('',(#279,#280,#281,#282));
#38=EDGE_LOOP('',(#283,#284,#285,#286));
#39=EDGE_LOOP('',(#287,#288,#289,#290,#291,#292,#293,#294,#295,#296,#297,
#298,#299,#300,#301,#302,#303,#304,#305,#306));
#40=EDGE_LOOP('',(#307,#308,#309,#310));
#41=EDGE_LOOP('',(#311,#312,#313,#314));
#42=EDGE_LOOP('',(#315,#316,#317,#318));
#43=EDGE_LOOP('',(#319,#320,#321,#322));
#44=EDGE_LOOP('',(#323,#324,#325,#326));
#45=EDGE_LOOP('',(#327,#328,#329,#330));
#46=EDGE_LOOP('',(#331,#332,#333,#334));
#47=EDGE_LOOP('',(#335,#336,#337,#338));
#48=EDGE_LOOP('',(#339,#340,#341,#342));
#49=EDGE_LOOP('',(#343,#344,#345,#346));
#50=EDGE_LOOP('',(#347,#348,#349,#350));
#51=EDGE_LOOP('',(#351,#352,#353,#354));
#52=EDGE_LOOP('',(#355,#356,#357,#358));
#53=EDGE_LOOP('',(#359,#360,#361,#362));
#54=EDGE_LOOP('',(#363,#364,#365,#366));
#55=EDGE_LOOP('',(#367,#368,#369,#370));
#56=EDGE_LOOP('',(#371,#372,#373,#374));
#57=EDGE_LOOP('',(#375,#376,#377,#378));
#58=EDGE_LOOP('',(#379,#380,#381,#382,#383,#384,#385,#386,#387,#388,#389,
#390,#391,#392,#393,#394,#395,#396,#397,#398));
#59=LINE('',#589,#119);
#60=LINE('',#591,#120);
#61=LINE('',#593,#121);
#62=LINE('',#594,#122);
#63=LINE('',#597,#123);
#64=LINE('',#599,#124);
#65=LINE('',#600,#125);
#66=LINE('',#603,#126);
#67=LINE('',#605,#127);
#68=LINE('',#607,#128);
#69=LINE('',#609,#129);
#70=LINE('',#611,#130);
#71=LINE('',#613,#131);
#72=LINE('',#615,#132);
#73=LINE('',#617,#133);
#74=LINE('',#619,#134);
#75=LINE('',#621,#135);
#76=LINE('',#623,#136);
#77=LINE('',#625,#137);
#78=LINE('',#627,#138);
#79=LINE('',#629,#139);
#80=LINE('',#631,#140);
#81=LINE('',#633,#141);
#82=LINE('',#635,#142);
#83=LINE('',#636,#143);
#84=LINE('',#640,#144);
#85=LINE('',#641,#145);
#86=LINE('',#642,#146);
#87=LINE('',#645,#147);
#88=LINE('',#646,#148);
#89=LINE('',#650,#149);
#90=LINE('',#651,#150);
#91=LINE('',#652,#151);
#92=LINE('',#655,#152);
#93=LINE('',#656,#153);
#94=LINE('',#660,#154);
#95=LINE('',#661,#155);
#96=LINE('',#662,#156);
#97=LINE('',#665,#157);
#98=LINE('',#666,#158);
#99=LINE('',#669,#159);
#100=LINE('',#670,#160);
#101=LINE('',#673,#161);
#102=LINE('',#674,#162);
#103=LINE('',#676,#163);
#104=LINE('',#679,#164);
#105=LINE('',#680,#165);
#106=LINE('',#682,#166);
#107=LINE('',#685,#167);
#108=LINE('',#686,#168);
#109=LINE('',#689,#169);
#110=LINE('',#690,#170);
#111=LINE('',#693,#171);
#112=LINE('',#694,#172);
#113=LINE('',#696,#173);
#114=LINE('',#699,#174);
#115=LINE('',#700,#175);
#116=LINE('',#703,#176);
#117=LINE('',#704,#177);
#118=LINE('',#706,#178);
#119=VECTOR('',#483,10.);
#120=VECTOR('',#484,10.);
#121=VECTOR('',#485,10.);
#122=VECTOR('',#486,10.);
#123=VECTOR('',#489,10.);
#124=VECTOR('',#490,10.);
#125=VECTOR('',#491,10.);
#126=VECTOR('',#494,10.);
#127=VECTOR('',#495,10.);
#128=VECTOR('',#496,10.);
#129=VECTOR('',#497,10.);
#130=VECTOR('',#498,10.);
#131=VECTOR('',#499,10.);
#132=VECTOR('',#500,10.);
#133=VECTOR('',#501,10.);
#134=VECTOR('',#502,10.);
#135=VECTOR('',#503,10.);
#136=VECTOR('',#504,10.);
#137=VECTOR('',#505,10.);
#138=VECTOR('',#506,10.);
#139=VECTOR('',#507,10.);
#140=VECTOR('',#508,10.);
#141=VECTOR('',#509,10.);
#142=VECTOR('',#510,10.);
#143=VECTOR('',#511,10.);
#144=VECTOR('',#514,10.);
#145=VECTOR('',#515,10.);
#146=VECTOR('',#516,10.);
#147=VECTOR('',#519,10.);
#148=VECTOR('',#520,10.);
#149=VECTOR('',#523,10.);
#150=VECTOR('',#524,10.);
#151=VECTOR('',#525,10.);
#152=VECTOR('',#528,10.);
#153=VECTOR('',#529,10.);
#154=VECTOR('',#532,10.);
#155=VECTOR('',#533,10.);
#156=VECTOR('',#534,10.);
#157=VECTOR('',#537,10.);
#158=VECTOR('',#538,10.);
#159=VECTOR('',#541,10.);
#160=VECTOR('',#542,10.);
#161=VECTOR('',#545,10.);
#162=VECTOR('',#546,10.);
#163=VECTOR('',#549,10.);
#164=VECTOR('',#552,10.);
#165=VECTOR('',#553,10.);
#166=VECTOR('',#556,10.);
#167=VECTOR('',#559,10.);
#168=VECTOR('',#560,10.);
#169=VECTOR('',#563,10.);
#170=VECTOR('',#564,10.);
#171=VECTOR('',#567,10.);
#172=VECTOR('',#568,10.);
#173=VECTOR('',#571,10.);
#174=VECTOR('',#574,10.);
#175=VECTOR('',#575,10.);
#176=VECTOR('',#578,10.);
#177=VECTOR('',#579,10.);
#178=VECTOR('',#582,10.);
#179=VERTEX_POINT('',#587);
#180=VERTEX_POINT('',#588);
#181=VERTEX_POINT('',#590);
#182=VERTEX_POINT('',#592);
#183=VERTEX_POINT('',#596);
#184=VERTEX_POINT('',#598);
#185=VERTEX_POINT('',#602);
#186=VERTEX_POINT('',#604);
#187=VERTEX_POINT('',#606);
#188=VERTEX_POINT('',#608);
#189=VERTEX_POINT('',#610);
#190=VERTEX_POINT('',#612);
#191=VERTEX_POINT('',#614);
#192=VERTEX_POINT('',#616);
#193=VERTEX_POINT('',#618);
#194=VERTEX_POINT('',#620);
#195=VERTEX_POINT('',#622);
#196=VERTEX_POINT('',#624);
#197=VERTEX_POINT('',#626);
#198=VERTEX_POINT('',#628);
#199=VERTEX_POINT('',#630);
#200=VERTEX_POINT('',#632);
#201=VERTEX_POINT('',#634);
#202=VERTEX_POINT('',#638);
#203=VERTEX_POINT('',#639);
#204=VERTEX_POINT('',#644);
#205=VERTEX_POINT('',#648);
#206=VERTEX_POINT('',#649);
#207=VERTEX_POINT('',#654);
#208=VERTEX_POINT('',#658);
#209=VERTEX_POINT('',#659);
#210=VERTEX_POINT('',#664);
#211=VERTEX_POINT('',#668);
#212=VERTEX_POINT('',#672);
#213=VERTEX_POINT('',#678);
#214=VERTEX_POINT('',#684);
#215=VERTEX_POINT('',#688);
#216=VERTEX_POINT('',#692);
#217=VERTEX_POINT('',#698);
#218=VERTEX_POINT('',#702);
#219=EDGE_CURVE('',#179,#180,#59,.T.);
#220=EDGE_CURVE('',#181,#179,#60,.T.);
#221=EDGE_CURVE('',#182,#181,#61,.T.);
#222=EDGE_CURVE('',#180,#182,#62,.T.);
#223=EDGE_CURVE('',#183,#182,#63,.T.);
#224=EDGE_CURVE('',#184,#183,#64,.T.);
#225=EDGE_CURVE('',#184,#180,#65,.T.);
#226=EDGE_CURVE('',#181,#185,#66,.T.);
#227=EDGE_CURVE('',#185,#186,#67,.T.);
#228=EDGE_CURVE('',#186,#187,#68,.T.);
#229=EDGE_CURVE('',#187,#188,#69,.T.);
#230=EDGE_CURVE('',#188,#189,#70,.T.);
#231=EDGE_CURVE('',#189,#190,#71,.T.);
#232=EDGE_CURVE('',#190,#191,#72,.T.);
#233=EDGE_CURVE('',#191,#192,#73,.T.);
#234=EDGE_CURVE('',#192,#193,#74,.T.);
#235=EDGE_CURVE('',#193,#194,#75,.T.);
#236=EDGE_CURVE('',#194,#195,#76,.T.);
#237=EDGE_CURVE('',#195,#196,#77,.T.);
#238=EDGE_CURVE('',#196,#197,#78,.T.);
#239=EDGE_CURVE('',#197,#198,#79,.T.);
#240=EDGE_CURVE('',#198,#199,#80,.T.);
#241=EDGE_CURVE('',#199,#200,#81,.T.);
#242=EDGE_CURVE('',#200,#201,#82,.T.);
#243=EDGE_CURVE('',#201,#183,#83,.T.);
#244=EDGE_CURVE('',#202,#203,#84,.T.);
#245=EDGE_CURVE('',#189,#202,#85,.T.);
#246=EDGE_CURVE('',#203,#188,#86,.T.);
#247=EDGE_CURVE('',#204,#187,#87,.T.);
#248=EDGE_CURVE('',#203,#204,#88,.T.);
#249=EDGE_CURVE('',#205,#206,#89,.T.);
#250=EDGE_CURVE('',#194,#205,#90,.T.);
#251=EDGE_CURVE('',#206,#193,#91,.T.);
#252=EDGE_CURVE('',#207,#192,#92,.T.);
#253=EDGE_CURVE('',#207,#206,#93,.T.);
#254=EDGE_CURVE('',#208,#209,#94,.T.);
#255=EDGE_CURVE('',#199,#208,#95,.T.);
#256=EDGE_CURVE('',#209,#198,#96,.T.);
#257=EDGE_CURVE('',#208,#210,#97,.T.);
#258=EDGE_CURVE('',#210,#200,#98,.T.);
#259=EDGE_CURVE('',#204,#211,#99,.T.);
#260=EDGE_CURVE('',#211,#186,#100,.T.);
#261=EDGE_CURVE('',#211,#212,#101,.T.);
#262=EDGE_CURVE('',#212,#185,#102,.T.);
#263=EDGE_CURVE('',#212,#179,#103,.T.);
#264=EDGE_CURVE('',#213,#184,#104,.T.);
#265=EDGE_CURVE('',#213,#201,#105,.T.);
#266=EDGE_CURVE('',#210,#213,#106,.T.);
#267=EDGE_CURVE('',#214,#197,#107,.T.);
#268=EDGE_CURVE('',#209,#214,#108,.T.);
#269=EDGE_CURVE('',#214,#215,#109,.T.);
#270=EDGE_CURVE('',#215,#196,#110,.T.);
#271=EDGE_CURVE('',#215,#216,#111,.T.);
#272=EDGE_CURVE('',#216,#195,#112,.T.);
#273=EDGE_CURVE('',#216,#205,#113,.T.);
#274=EDGE_CURVE('',#217,#207,#114,.T.);
#275=EDGE_CURVE('',#217,#191,#115,.T.);
#276=EDGE_CURVE('',#218,#217,#116,.T.);
#277=EDGE_CURVE('',#218,#190,#117,.T.);
#278=EDGE_CURVE('',#202,#218,#118,.T.);
#279=ORIENTED_EDGE('',*,*,#219,.F.);
#280=ORIENTED_EDGE('',*,*,#220,.F.);
#281=ORIENTED_EDGE('',*,*,#221,.F.);
#282=ORIENTED_EDGE('',*,*,#222,.F.);
#283=ORIENTED_EDGE('',*,*,#222,.T.);
#284=ORIENTED_EDGE('',*,*,#223,.F.);
#285=ORIENTED_EDGE('',*,*,#224,.F.);
#286=ORIENTED_EDGE('',*,*,#225,.T.);
#287=ORIENTED_EDGE('',*,*,#221,.T.);
#288=ORIENTED_EDGE('',*,*,#226,.T.);
#289=ORIENTED_EDGE('',*,*,#227,.T.);
#290=ORIENTED_EDGE('',*,*,#228,.T.);
#291=ORIENTED_EDGE('',*,*,#229,.T.);
#292=ORIENTED_EDGE('',*,*,#230,.T.);
#293=ORIENTED_EDGE('',*,*,#231,.T.);
#294=ORIENTED_EDGE('',*,*,#232,.T.);
#295=ORIENTED_EDGE('',*,*,#233,.T.);
#296=ORIENTED_EDGE('',*,*,#234,.T.);
#297=ORIENTED_EDGE('',*,*,#235,.T.);
#298=ORIENTED_EDGE('',*,*,#236,.T.);
#299=ORIENTED_EDGE('',*,*,#237,.T.);
#300=ORIENTED_EDGE('',*,*,#238,.T.);
#301=ORIENTED_EDGE('',*,*,#239,.T.);
#302=ORIENTED_EDGE('',*,*,#240,.T.);
#303=ORIENTED_EDGE('',*,*,#241,.T.);
#304=ORIENTED_EDGE('',*,*,#242,.T.);
#305=ORIENTED_EDGE('',*,*,#243,.T.);
#306=ORIENTED_EDGE('',*,*,#223,.T.);
#307=ORIENTED_EDGE('',*,*,#244,.F.);
#308=ORIENTED_EDGE('',*,*,#245,.F.);
#309=ORIENTED_EDGE('',*,*,#230,.F.);
#310=ORIENTED_EDGE('',*,*,#246,.F.);
#311=ORIENTED_EDGE('',*,*,#246,.T.);
#312=ORIENTED_EDGE('',*,*,#229,.F.);
#313=ORIENTED_EDGE('',*,*,#247,.F.);
#314=ORIENTED_EDGE('',*,*,#248,.F.);
#315=ORIENTED_EDGE('',*,*,#249,.F.);
#316=ORIENTED_EDGE('',*,*,#250,.F.);
#317=ORIENTED_EDGE('',*,*,#235,.F.);
#318=ORIENTED_EDGE('',*,*,#251,.F.);
#319=ORIENTED_EDGE('',*,*,#251,.T.);
#320=ORIENTED_EDGE('',*,*,#234,.F.);
#321=ORIENTED_EDGE('',*,*,#252,.F.);
#322=ORIENTED_EDGE('',*,*,#253,.T.);
#323=ORIENTED_EDGE('',*,*,#254,.F.);
#324=ORIENTED_EDGE('',*,*,#255,.F.);
#325=ORIENTED_EDGE('',*,*,#240,.F.);
#326=ORIENTED_EDGE('',*,*,#256,.F.);
#327=ORIENTED_EDGE('',*,*,#255,.T.);
#328=ORIENTED_EDGE('',*,*,#257,.T.);
#329=ORIENTED_EDGE('',*,*,#258,.T.);
#330=ORIENTED_EDGE('',*,*,#241,.F.);
#331=ORIENTED_EDGE('',*,*,#259,.F.);
#332=ORIENTED_EDGE('',*,*,#247,.T.);
#333=ORIENTED_EDGE('',*,*,#228,.F.);
#334=ORIENTED_EDGE('',*,*,#260,.F.);
#335=ORIENTED_EDGE('',*,*,#261,.F.);
#336=ORIENTED_EDGE('',*,*,#260,.T.);
#337=ORIENTED_EDGE('',*,*,#227,.F.);
#338=ORIENTED_EDGE('',*,*,#262,.F.);
#339=ORIENTED_EDGE('',*,*,#220,.T.);
#340=ORIENTED_EDGE('',*,*,#263,.F.);
#341=ORIENTED_EDGE('',*,*,#262,.T.);
#342=ORIENTED_EDGE('',*,*,#226,.F.);
#343=ORIENTED_EDGE('',*,*,#264,.T.);
#344=ORIENTED_EDGE('',*,*,#224,.T.);
#345=ORIENTED_EDGE('',*,*,#243,.F.);
#346=ORIENTED_EDGE('',*,*,#265,.F.);
#347=ORIENTED_EDGE('',*,*,#266,.T.);
#348=ORIENTED_EDGE('',*,*,#265,.T.);
#349=ORIENTED_EDGE('',*,*,#242,.F.);
#350=ORIENTED_EDGE('',*,*,#258,.F.);
#351=ORIENTED_EDGE('',*,*,#256,.T.);
#352=ORIENTED_EDGE('',*,*,#239,.F.);
#353=ORIENTED_EDGE('',*,*,#267,.F.);
#354=ORIENTED_EDGE('',*,*,#268,.F.);
#355=ORIENTED_EDGE('',*,*,#269,.F.);
#356=ORIENTED_EDGE('',*,*,#267,.T.);
#357=ORIENTED_EDGE('',*,*,#238,.F.);
#358=ORIENTED_EDGE('',*,*,#270,.F.);
#359=ORIENTED_EDGE('',*,*,#271,.F.);
#360=ORIENTED_EDGE('',*,*,#270,.T.);
#361=ORIENTED_EDGE('',*,*,#237,.F.);
#362=ORIENTED_EDGE('',*,*,#272,.F.);
#363=ORIENTED_EDGE('',*,*,#250,.T.);
#364=ORIENTED_EDGE('',*,*,#273,.F.);
#365=ORIENTED_EDGE('',*,*,#272,.T.);
#366=ORIENTED_EDGE('',*,*,#236,.F.);
#367=ORIENTED_EDGE('',*,*,#274,.T.);
#368=ORIENTED_EDGE('',*,*,#252,.T.);
#369=ORIENTED_EDGE('',*,*,#233,.F.);
#370=ORIENTED_EDGE('',*,*,#275,.F.);
#371=ORIENTED_EDGE('',*,*,#276,.T.);
#372=ORIENTED_EDGE('',*,*,#275,.T.);
#373=ORIENTED_EDGE('',*,*,#232,.F.);
#374=ORIENTED_EDGE('',*,*,#277,.F.);
#375=ORIENTED_EDGE('',*,*,#245,.T.);
#376=ORIENTED_EDGE('',*,*,#278,.T.);
#377=ORIENTED_EDGE('',*,*,#277,.T.);
#378=ORIENTED_EDGE('',*,*,#231,.F.);
#379=ORIENTED_EDGE('',*,*,#219,.T.);
#380=ORIENTED_EDGE('',*,*,#225,.F.);
#381=ORIENTED_EDGE('',*,*,#264,.F.);
#382=ORIENTED_EDGE('',*,*,#266,.F.);
#383=ORIENTED_EDGE('',*,*,#257,.F.);
#384=ORIENTED_EDGE('',*,*,#254,.T.);
#385=ORIENTED_EDGE('',*,*,#268,.T.);
#386=ORIENTED_EDGE('',*,*,#269,.T.);
#387=ORIENTED_EDGE('',*,*,#271,.T.);
#388=ORIENTED_EDGE('',*,*,#273,.T.);
#389=ORIENTED_EDGE('',*,*,#249,.T.);
#390=ORIENTED_EDGE('',*,*,#253,.F.);
#391=ORIENTED_EDGE('',*,*,#274,.F.);
#392=ORIENTED_EDGE('',*,*,#276,.F.);
#393=ORIENTED_EDGE('',*,*,#278,.F.);
#394=ORIENTED_EDGE('',*,*,#244,.T.);
#395=ORIENTED_EDGE('',*,*,#248,.T.);
#396=ORIENTED_EDGE('',*,*,#259,.T.);
#397=ORIENTED_EDGE('',*,*,#261,.T.);
#398=ORIENTED_EDGE('',*,*,#263,.T.);
#399=PLANE('',#457);
#400=PLANE('',#458);
#401=PLANE('',#459);
#402=PLANE('',#460);
#403=PLANE('',#461);
#404=PLANE('',#462);
#405=PLANE('',#463);
#406=PLANE('',#464);
#407=PLANE('',#465);
#408=PLANE('',#466);
#409=PLANE('',#467);
#410=PLANE('',#468);
#411=PLANE('',#469);
#412=PLANE('',#470);
#413=PLANE('',#471);
#414=PLANE('',#472);
#415=PLANE('',#473);
#416=PLANE('',#474);
#417=PLANE('',#475);
#418=PLANE('',#476);
#419=PLANE('',#477);
#420=PLANE('',#478);
#421=ADVANCED_FACE('',(#15),#399,.F.);
#422=ADVANCED_FACE('',(#16),#400,.T.);
#423=ADVANCED_FACE('',(#17),#401,.T.);
#424=ADVANCED_FACE('',(#18),#402,.F.);
#425=ADVANCED_FACE('',(#19),#403,.T.);
#426=ADVANCED_FACE('',(#20),#404,.F.);
#427=ADVANCED_FACE('',(#21),#405,.T.);
#428=ADVANCED_FACE('',(#22),#406,.F.);
#429=ADVANCED_FACE('',(#23),#407,.T.);
#430=ADVANCED_FACE('',(#24),#408,.T.);
#431=ADVANCED_FACE('',(#25),#409,.T.);
#432=ADVANCED_FACE('',(#26),#410,.T.);
#433=ADVANCED_FACE('',(#27),#411,.T.);
#434=ADVANCED_FACE('',(#28),#412,.T.);
#435=ADVANCED_FACE('',(#29),#413,.T.);
#436=ADVANCED_FACE('',(#30),#414,.T.);
#437=ADVANCED_FACE('',(#31),#415,.T.);
#438=ADVANCED_FACE('',(#32),#416,.T.);
#439=ADVANCED_FACE('',(#33),#417,.T.);
#440=ADVANCED_FACE('',(#34),#418,.T.);
#441=ADVANCED_FACE('',(#35),#419,.T.);
#442=ADVANCED_FACE('',(#36),#420,.F.);
#443=CLOSED_SHELL('',(#421,#422,#423,#424,#425,#426,#427,#428,#429,#430,
#431,#432,#433,#434,#435,#436,#437,#438,#439,#440,#441,#442));
#444=DERIVED_UNIT_ELEMENT(#446,1.);
#445=DERIVED_UNIT_ELEMENT(#713,-3.);
#446=(
MASS_UNIT()
NAMED_UNIT(*)
SI_UNIT(.KILO.,.GRAM.)
);
#447=DERIVED_UNIT((#444,#445));
#448=MEASURE_REPRESENTATION_ITEM('density measure',
POSITIVE_RATIO_MEASURE(2700.),#447);
#449=PROPERTY_DEFINITION_REPRESENTATION(#454,#451);
#450=PROPERTY_DEFINITION_REPRESENTATION(#455,#452);
#451=REPRESENTATION('material name',(#453),#710);
#452=REPRESENTATION('density',(#448),#710);
#453=DESCRIPTIVE_REPRESENTATION_ITEM('SOLIDWORKS Materials|1060 Alloy',
'SOLIDWORKS Materials|1060 Alloy');
#454=PROPERTY_DEFINITION('material property','material name',#720);
#455=PROPERTY_DEFINITION('material property','density of part',#720);
#456=AXIS2_PLACEMENT_3D('',#585,#479,#480);
#457=AXIS2_PLACEMENT_3D('',#586,#481,#482);
#458=AXIS2_PLACEMENT_3D('',#595,#487,#488);
#459=AXIS2_PLACEMENT_3D('',#601,#492,#493);
#460=AXIS2_PLACEMENT_3D('',#637,#512,#513);
#461=AXIS2_PLACEMENT_3D('',#643,#517,#518);
#462=AXIS2_PLACEMENT_3D('',#647,#521,#522);
#463=AXIS2_PLACEMENT_3D('',#653,#526,#527);
#464=AXIS2_PLACEMENT_3D('',#657,#530,#531);
#465=AXIS2_PLACEMENT_3D('',#663,#535,#536);
#466=AXIS2_PLACEMENT_3D('',#667,#539,#540);
#467=AXIS2_PLACEMENT_3D('',#671,#543,#544);
#468=AXIS2_PLACEMENT_3D('',#675,#547,#548);
#469=AXIS2_PLACEMENT_3D('',#677,#550,#551);
#470=AXIS2_PLACEMENT_3D('',#681,#554,#555);
#471=AXIS2_PLACEMENT_3D('',#683,#557,#558);
#472=AXIS2_PLACEMENT_3D('',#687,#561,#562);
#473=AXIS2_PLACEMENT_3D('',#691,#565,#566);
#474=AXIS2_PLACEMENT_3D('',#695,#569,#570);
#475=AXIS2_PLACEMENT_3D('',#697,#572,#573);
#476=AXIS2_PLACEMENT_3D('',#701,#576,#577);
#477=AXIS2_PLACEMENT_3D('',#705,#580,#581);
#478=AXIS2_PLACEMENT_3D('',#707,#583,#584);
#479=DIRECTION('axis',(0.,0.,1.));
#480=DIRECTION('refdir',(1.,0.,0.));
#481=DIRECTION('center_axis',(-1.,0.,0.));
#482=DIRECTION('ref_axis',(0.,0.,1.));
#483=DIRECTION('',(0.,-1.,0.));
#484=DIRECTION('',(0.,0.,-1.));
#485=DIRECTION('',(0.,1.,0.));
#486=DIRECTION('',(0.,0.,1.));
#487=DIRECTION('center_axis',(0.,-1.,0.));
#488=DIRECTION('ref_axis',(1.,0.,0.));
#489=DIRECTION('',(1.,0.,0.));
#490=DIRECTION('',(0.,0.,1.));
#491=DIRECTION('',(1.,0.,0.));
#492=DIRECTION('center_axis',(0.,0.,1.));
#493=DIRECTION('ref_axis',(1.,0.,0.));
#494=DIRECTION('',(-1.,0.,0.));
#495=DIRECTION('',(0.,1.,0.));
#496=DIRECTION('',(-1.,0.,0.));
#497=DIRECTION('',(0.,1.,0.));
#498=DIRECTION('',(-1.,0.,0.));
#499=DIRECTION('',(0.,-1.,0.));
#500=DIRECTION('',(-1.,0.,0.));
#501=DIRECTION('',(0.,-1.,0.));
#502=DIRECTION('',(-1.,0.,0.));
#503=DIRECTION('',(0.,-1.,0.));
#504=DIRECTION('',(1.,0.,0.));
#505=DIRECTION('',(0.,-1.,0.));
#506=DIRECTION('',(1.,0.,0.));
#507=DIRECTION('',(0.,-1.,0.));
#508=DIRECTION('',(1.,0.,0.));
#509=DIRECTION('',(0.,1.,0.));
#510=DIRECTION('',(1.,0.,0.));
#511=DIRECTION('',(0.,1.,0.));
#512=DIRECTION('center_axis',(0.,-1.,0.));
#513=DIRECTION('ref_axis',(0.,0.,-1.));
#514=DIRECTION('',(1.,0.,-1.90819579514015E-16));
#515=DIRECTION('',(0.,0.,-1.));
#516=DIRECTION('',(0.,0.,1.));
#517=DIRECTION('center_axis',(1.,0.,0.));
#518=DIRECTION('ref_axis',(0.,1.,0.));
#519=DIRECTION('',(0.,0.,1.));
#520=DIRECTION('',(0.,-1.,0.));
#521=DIRECTION('center_axis',(1.,0.,0.));
#522=DIRECTION('ref_axis',(0.,0.,-1.));
#523=DIRECTION('',(0.,1.,0.));
#524=DIRECTION('',(0.,0.,-1.));
#525=DIRECTION('',(0.,0.,1.));
#526=DIRECTION('center_axis',(0.,1.,0.));
#527=DIRECTION('ref_axis',(-1.,0.,0.));
#528=DIRECTION('',(0.,0.,1.));
#529=DIRECTION('',(-1.,0.,0.));
#530=DIRECTION('center_axis',(0.,1.,0.));
#531=DIRECTION('ref_axis',(0.,0.,1.));
#532=DIRECTION('',(-1.,0.,1.90819579514015E-16));
#533=DIRECTION('',(0.,0.,-1.));
#534=DIRECTION('',(0.,0.,1.));
#535=DIRECTION('center_axis',(1.,0.,0.));
#536=DIRECTION('ref_axis',(0.,1.,0.));
#537=DIRECTION('',(0.,1.,0.));
#538=DIRECTION('',(0.,0.,1.));
#539=DIRECTION('center_axis',(0.,1.,0.));
#540=DIRECTION('ref_axis',(-1.,0.,0.));
#541=DIRECTION('',(1.,0.,0.));
#542=DIRECTION('',(0.,0.,1.));
#543=DIRECTION('center_axis',(1.,0.,0.));
#544=DIRECTION('ref_axis',(0.,1.,0.));
#545=DIRECTION('',(0.,-1.,0.));
#546=DIRECTION('',(0.,0.,1.));
#547=DIRECTION('center_axis',(0.,1.,0.));
#548=DIRECTION('ref_axis',(-1.,0.,0.));
#549=DIRECTION('',(1.,0.,0.));
#550=DIRECTION('center_axis',(1.,0.,0.));
#551=DIRECTION('ref_axis',(0.,1.,0.));
#552=DIRECTION('',(0.,1.,0.));
#553=DIRECTION('',(0.,0.,1.));
#554=DIRECTION('center_axis',(0.,-1.,0.));
#555=DIRECTION('ref_axis',(1.,0.,0.));
#556=DIRECTION('',(1.,0.,0.));
#557=DIRECTION('center_axis',(-1.,0.,0.));
#558=DIRECTION('ref_axis',(0.,-1.,0.));
#559=DIRECTION('',(0.,0.,1.));
#560=DIRECTION('',(0.,1.,0.));
#561=DIRECTION('center_axis',(0.,-1.,0.));
#562=DIRECTION('ref_axis',(1.,0.,0.));
#563=DIRECTION('',(-1.,0.,0.));
#564=DIRECTION('',(0.,0.,1.));
#565=DIRECTION('center_axis',(-1.,0.,0.));
#566=DIRECTION('ref_axis',(0.,-1.,0.));
#567=DIRECTION('',(0.,1.,0.));
#568=DIRECTION('',(0.,0.,1.));
#569=DIRECTION('center_axis',(0.,-1.,0.));
#570=DIRECTION('ref_axis',(1.,0.,0.));
#571=DIRECTION('',(-1.,0.,0.));
#572=DIRECTION('center_axis',(-1.,0.,0.));
#573=DIRECTION('ref_axis',(0.,-1.,0.));
#574=DIRECTION('',(0.,-1.,0.));
#575=DIRECTION('',(0.,0.,1.));
#576=DIRECTION('center_axis',(0.,1.,0.));
#577=DIRECTION('ref_axis',(-1.,0.,0.));
#578=DIRECTION('',(-1.,0.,0.));
#579=DIRECTION('',(0.,0.,1.));
#580=DIRECTION('center_axis',(-1.,0.,0.));
#581=DIRECTION('ref_axis',(0.,-1.,0.));
#582=DIRECTION('',(0.,-1.,0.));
#583=DIRECTION('center_axis',(1.90819579514015E-16,0.,1.));
#584=DIRECTION('ref_axis',(-1.,0.,1.90819579514015E-16));
#585=CARTESIAN_POINT('',(0.,0.,0.));
#586=CARTESIAN_POINT('Origin',(255.000003814697,38.0000002980232,19.9999999999999));
#587=CARTESIAN_POINT('',(255.000003814697,217.999993979931,20.0000000000014));
#588=CARTESIAN_POINT('',(255.000003814697,38.0000002980232,20.0000000000014));
#589=CARTESIAN_POINT('',(255.000003814697,82.9999987185001,19.9999999999999));
#590=CARTESIAN_POINT('',(255.000003814697,217.999993979931,23.0000000000014));
#591=CARTESIAN_POINT('',(255.000003814697,217.999993979931,20.0000000000007));
#592=CARTESIAN_POINT('',(255.000003814697,38.0000002980232,23.0000000000014));
#593=CARTESIAN_POINT('',(255.000003814697,82.9999987185001,22.9999999999999));
#594=CARTESIAN_POINT('',(255.000003814697,38.0000002980232,20.0000000000007));
#595=CARTESIAN_POINT('Origin',(235.000003501773,38.0000002980232,20.0000000000014));
#596=CARTESIAN_POINT('',(235.000003501773,38.0000002980232,23.0000000000014));
#597=CARTESIAN_POINT('',(235.000003501773,38.0000002980232,23.0000000000014));
#598=CARTESIAN_POINT('',(235.000003501773,38.0000002980232,20.0000000000014));
#599=CARTESIAN_POINT('',(235.000003501773,38.0000002980232,20.0000000000014));
#600=CARTESIAN_POINT('',(235.000003501773,38.0000002980232,20.0000000000014));
#601=CARTESIAN_POINT('Origin',(128.000001907349,127.999997138977,22.9999999999999));
#602=CARTESIAN_POINT('',(235.000003501773,217.999993979931,23.0000000000014));
#603=CARTESIAN_POINT('',(235.000003501773,217.999993979931,23.0000000000014));
#604=CARTESIAN_POINT('',(235.000003814697,234.999994277954,23.0000000000001));
#605=CARTESIAN_POINT('',(235.000003501773,235.999993979931,23.0000000000014));
#606=CARTESIAN_POINT('',(217.000003814697,234.999994277954,23.0000000000001));
#607=CARTESIAN_POINT('',(217.000003814697,234.999994277954,23.0000000000001));
#608=CARTESIAN_POINT('',(217.000003814697,254.999994277954,23.0000000000001));
#609=CARTESIAN_POINT('',(217.000003814697,255.999994277954,23.0000000000001));
#610=CARTESIAN_POINT('',(39.,254.999994277954,22.9999999999999));
#611=CARTESIAN_POINT('',(172.500002861023,254.999994277954,22.9999999999999));
#612=CARTESIAN_POINT('',(39.,234.999994277954,22.9999999999999));
#613=CARTESIAN_POINT('',(39.,255.999994277954,22.9999999999999));
#614=CARTESIAN_POINT('',(21.0000003129244,234.999994277954,23.));
#615=CARTESIAN_POINT('',(39.,234.999994277954,22.9999999999999));
#616=CARTESIAN_POINT('',(21.0000003129244,217.999993979931,23.));
#617=CARTESIAN_POINT('',(21.0000003129244,235.999993979931,23.));
#618=CARTESIAN_POINT('',(1.,217.999993979931,23.));
#619=CARTESIAN_POINT('',(21.0000003129244,217.999993979931,23.));
#620=CARTESIAN_POINT('',(1.,38.0000002980232,23.));
#621=CARTESIAN_POINT('',(0.999999999999996,172.999995559454,22.9999999999999));
#622=CARTESIAN_POINT('',(21.0000003129244,38.0000002980232,23.));
#623=CARTESIAN_POINT('',(21.0000003129244,38.0000002980232,23.));
#624=CARTESIAN_POINT('',(21.,21.,22.9999999999999));
#625=CARTESIAN_POINT('',(21.0000003129244,20.0000002980232,23.));
#626=CARTESIAN_POINT('',(39.,21.,22.9999999999999));
#627=CARTESIAN_POINT('',(39.,21.,22.9999999999999));
#628=CARTESIAN_POINT('',(39.,1.,22.9999999999999));
#629=CARTESIAN_POINT('',(39.,0.,22.9999999999999));
#630=CARTESIAN_POINT('',(217.000003814697,1.,23.0000000000001));
#631=CARTESIAN_POINT('',(83.5000009536743,0.999999999999996,22.9999999999999));
#632=CARTESIAN_POINT('',(217.000003814697,21.,23.0000000000001));
#633=CARTESIAN_POINT('',(217.000003814697,0.,23.0000000000001));
#634=CARTESIAN_POINT('',(235.000003501773,21.,23.0000000000014));
#635=CARTESIAN_POINT('',(217.000003814697,21.,23.0000000000001));
#636=CARTESIAN_POINT('',(235.000003501773,20.0000002980232,23.0000000000014));
#637=CARTESIAN_POINT('Origin',(217.000003814697,254.999994277954,20.));
#638=CARTESIAN_POINT('',(39.,254.999994277954,19.9999999999999));
#639=CARTESIAN_POINT('',(217.000003814697,254.999994277954,20.0000000000001));
#640=CARTESIAN_POINT('',(172.500002861023,254.999994277954,19.9999999999999));
#641=CARTESIAN_POINT('',(39.,254.999994277954,20.));
#642=CARTESIAN_POINT('',(217.000003814697,254.999994277954,20.0000000000001));
#643=CARTESIAN_POINT('Origin',(217.000003814697,234.999994277954,20.0000000000001));
#644=CARTESIAN_POINT('',(217.000003814697,234.999994277954,20.0000000000001));
#645=CARTESIAN_POINT('',(217.000003814697,234.999994277954,20.0000000000001));
#646=CARTESIAN_POINT('',(217.000003814697,255.999994277954,20.0000000000001));
#647=CARTESIAN_POINT('Origin',(1.,217.999993979931,20.));
#648=CARTESIAN_POINT('',(1.,38.0000002980232,20.));
#649=CARTESIAN_POINT('',(1.,217.999993979931,20.));
#650=CARTESIAN_POINT('',(0.999999999999996,172.999995559454,20.));
#651=CARTESIAN_POINT('',(1.,38.0000002980232,20.));
#652=CARTESIAN_POINT('',(1.,217.999993979931,20.));
#653=CARTESIAN_POINT('Origin',(21.0000003129244,217.999993979931,20.));
#654=CARTESIAN_POINT('',(21.0000003129244,217.999993979931,20.));
#655=CARTESIAN_POINT('',(21.0000003129244,217.999993979931,20.));
#656=CARTESIAN_POINT('',(21.0000003129244,217.999993979931,20.));
#657=CARTESIAN_POINT('Origin',(39.,1.,20.));
#658=CARTESIAN_POINT('',(217.000003814697,1.,20.0000000000001));
#659=CARTESIAN_POINT('',(39.,1.,19.9999999999999));
#660=CARTESIAN_POINT('',(83.5000009536743,0.999999999999996,19.9999999999999));
#661=CARTESIAN_POINT('',(217.000003814697,1.,20.0000000000001));
#662=CARTESIAN_POINT('',(39.,1.,20.));
#663=CARTESIAN_POINT('Origin',(217.000003814697,0.,20.0000000000001));
#664=CARTESIAN_POINT('',(217.000003814697,21.,20.0000000000001));
#665=CARTESIAN_POINT('',(217.000003814697,0.,20.0000000000001));
#666=CARTESIAN_POINT('',(217.000003814697,21.,20.0000000000001));
#667=CARTESIAN_POINT('Origin',(235.000003814697,234.999994277954,20.0000000000001));
#668=CARTESIAN_POINT('',(235.000003814697,234.999994277954,20.0000000000001));
#669=CARTESIAN_POINT('',(217.000003814697,234.999994277954,20.0000000000001));
#670=CARTESIAN_POINT('',(235.000003814697,234.999994277954,20.0000000000001));
#671=CARTESIAN_POINT('Origin',(235.000003501773,217.999993979931,20.0000000000014));
#672=CARTESIAN_POINT('',(235.000003501773,217.999993979931,20.0000000000014));
#673=CARTESIAN_POINT('',(235.000003501773,235.999993979931,20.0000000000014));
#674=CARTESIAN_POINT('',(235.000003501773,217.999993979931,20.0000000000014));
#675=CARTESIAN_POINT('Origin',(256.000003814697,217.999993979931,20.0000000000014));
#676=CARTESIAN_POINT('',(235.000003501773,217.999993979931,20.0000000000014));
#677=CARTESIAN_POINT('Origin',(235.000003501773,21.,20.0000000000014));
#678=CARTESIAN_POINT('',(235.000003501773,21.,20.0000000000014));
#679=CARTESIAN_POINT('',(235.000003501773,20.0000002980232,20.0000000000014));
#680=CARTESIAN_POINT('',(235.000003501773,21.,20.0000000000014));
#681=CARTESIAN_POINT('Origin',(217.000003814697,21.,20.0000000000001));
#682=CARTESIAN_POINT('',(217.000003814697,21.,20.0000000000001));
#683=CARTESIAN_POINT('Origin',(39.,21.,19.9999999999999));
#684=CARTESIAN_POINT('',(39.,21.,19.9999999999999));
#685=CARTESIAN_POINT('',(39.,21.,19.9999999999999));
#686=CARTESIAN_POINT('',(39.,0.,19.9999999999999));
#687=CARTESIAN_POINT('Origin',(21.,21.,19.9999999999999));
#688=CARTESIAN_POINT('',(21.,21.,19.9999999999999));
#689=CARTESIAN_POINT('',(39.,21.,19.9999999999999));
#690=CARTESIAN_POINT('',(21.,21.,19.9999999999999));
#691=CARTESIAN_POINT('Origin',(21.0000003129244,38.0000002980232,20.));
#692=CARTESIAN_POINT('',(21.0000003129244,38.0000002980232,20.));
#693=CARTESIAN_POINT('',(21.0000003129244,20.0000002980232,20.));
#694=CARTESIAN_POINT('',(21.0000003129244,38.0000002980232,20.));
#695=CARTESIAN_POINT('Origin',(0.,38.0000002980232,20.));
#696=CARTESIAN_POINT('',(21.0000003129244,38.0000002980232,20.));
#697=CARTESIAN_POINT('Origin',(21.0000003129244,234.999994277954,20.));
#698=CARTESIAN_POINT('',(21.0000003129244,234.999994277954,20.));
#699=CARTESIAN_POINT('',(21.0000003129244,235.999993979931,20.));
#700=CARTESIAN_POINT('',(21.0000003129244,234.999994277954,20.));
#701=CARTESIAN_POINT('Origin',(39.,234.999994277954,19.9999999999999));
#702=CARTESIAN_POINT('',(39.,234.999994277954,19.9999999999999));
#703=CARTESIAN_POINT('',(39.,234.999994277954,19.9999999999999));
#704=CARTESIAN_POINT('',(39.,234.999994277954,19.9999999999999));
#705=CARTESIAN_POINT('Origin',(39.,255.999994277954,19.9999999999999));
#706=CARTESIAN_POINT('',(39.,255.999994277954,19.9999999999999));
#707=CARTESIAN_POINT('Origin',(128.000001907349,127.999997138977,19.9999999999999));
#708=UNCERTAINTY_MEASURE_WITH_UNIT(LENGTH_MEASURE(0.01),#712,
'DISTANCE_ACCURACY_VALUE',
'Maximum model space distance between geometric entities at asserted c
onnectivities');
#709=UNCERTAINTY_MEASURE_WITH_UNIT(LENGTH_MEASURE(0.01),#712,
'DISTANCE_ACCURACY_VALUE',
'Maximum model space distance between geometric entities at asserted c
onnectivities');
#710=(
GEOMETRIC_REPRESENTATION_CONTEXT(3)
GLOBAL_UNCERTAINTY_ASSIGNED_CONTEXT((#708))
GLOBAL_UNIT_ASSIGNED_CONTEXT((#712,#714,#715))
REPRESENTATION_CONTEXT('','3D')
);
#711=(
GEOMETRIC_REPRESENTATION_CONTEXT(3)
GLOBAL_UNCERTAINTY_ASSIGNED_CONTEXT((#709))
GLOBAL_UNIT_ASSIGNED_CONTEXT((#712,#714,#715))
REPRESENTATION_CONTEXT('','3D')
);
#712=(
LENGTH_UNIT()
NAMED_UNIT(*)
SI_UNIT(.MILLI.,.METRE.)
);
#713=(
LENGTH_UNIT()
NAMED_UNIT(*)
SI_UNIT($,.METRE.)
);
#714=(
NAMED_UNIT(*)
PLANE_ANGLE_UNIT()
SI_UNIT($,.RADIAN.)
);
#715=(
NAMED_UNIT(*)
SI_UNIT($,.STERADIAN.)
SOLID_ANGLE_UNIT()
);
#716=SHAPE_DEFINITION_REPRESENTATION(#717,#718);
#717=PRODUCT_DEFINITION_SHAPE('',$,#720);
#718=SHAPE_REPRESENTATION('',(#456),#710);
#719=PRODUCT_DEFINITION_CONTEXT('part definition',#724,'design');
#720=PRODUCT_DEFINITION('Base Plate','Base Plate',#721,#719);
#721=PRODUCT_DEFINITION_FORMATION('',$,#726);
#722=PRODUCT_RELATED_PRODUCT_CATEGORY('Base Plate','Base Plate',(#726));
#723=APPLICATION_PROTOCOL_DEFINITION('international standard',
'automotive_design',2009,#724);
#724=APPLICATION_CONTEXT(
'Core Data for Automotive Mechanical Design Process');
#725=PRODUCT_CONTEXT('part definition',#724,'mechanical');
#726=PRODUCT('Base Plate','Base Plate',$,(#725));
#727=PRESENTATION_STYLE_ASSIGNMENT((#728));
#728=SURFACE_STYLE_USAGE(.BOTH.,#729);
#729=SURFACE_SIDE_STYLE('',(#730));
#730=SURFACE_STYLE_FILL_AREA(#731);
#731=FILL_AREA_STYLE('Steel - Satin',(#732));
#732=FILL_AREA_STYLE_COLOUR('Steel - Satin',#733);
#733=COLOUR_RGB('Steel - Satin',0.627450980392157,0.627450980392157,0.627450980392157);
ENDSEC;
END-ISO-10303-21;
