ISO-10303-21;
HEADER;
/* Generated by software containing ST-Developer
 * from STEP Tools, Inc. (www.steptools.com) 
 */

FILE_DESCRIPTION(
/* description */ ('STEP AP242'),
/* implementation_level */ '2;1');

FILE_NAME(
/* name */ 'hp mount v2 v1.step',
/* time_stamp */ '2026-08-30T16:50:05+05:30',
/* author */ (''),
/* organization */ (''),
/* preprocessor_version */ 'ST-DEVELOPER v20.1',
/* originating_system */ 'Autodesk Translation Framework v15.8.0.0',
/* authorisation */ '');

FILE_SCHEMA (('AUTOMOTIVE_DESIGN { 1 0 10303 214 3 1 1 }'));
ENDSEC;

DATA;
#10=MECHANICAL_DESIGN_GEOMETRIC_PRESENTATION_REPRESENTATION('',(#17),#2005);
#11=ITEM_DEFINED_TRANSFORMATION($,$,#1245,#1333);
#12=(
REPRESENTATION_RELATIONSHIP($,$,#2016,#2015)
REPRESENTATION_RELATIONSHIP_WITH_TRANSFORMATION(#11)
SHAPE_REPRESENTATION_RELATIONSHIP()
);
#13=CONTEXT_DEPENDENT_SHAPE_REPRESENTATION(#12,#2014);
#14=NEXT_ASSEMBLY_USAGE_OCCURRENCE('Component2:1','Component2:1',
'Component2:1',#2018,#2019,'Component2:1');
#15=SHAPE_REPRESENTATION_RELATIONSHIP('SRR','None',#2016,#16);
#16=ADVANCED_BREP_SHAPE_REPRESENTATION('',(#18),#2004);
#17=STYLED_ITEM('',(#2030),#18);
#18=MANIFOLD_SOLID_BREP('Body1',#1231);
#19=CYLINDRICAL_SURFACE('',#1257,2.79999999999999);
#20=CYLINDRICAL_SURFACE('',#1259,2.79999999999999);
#21=CYLINDRICAL_SURFACE('',#1261,2.79999999999999);
#22=CYLINDRICAL_SURFACE('',#1263,2.79999999999999);
#23=CYLINDRICAL_SURFACE('',#1265,2.79999999999999);
#24=CYLINDRICAL_SURFACE('',#1267,2.79999999999999);
#25=CYLINDRICAL_SURFACE('',#1306,2.1);
#26=CYLINDRICAL_SURFACE('',#1308,2.1);
#27=CYLINDRICAL_SURFACE('',#1310,2.1);
#28=CYLINDRICAL_SURFACE('',#1312,2.1);
#29=CYLINDRICAL_SURFACE('',#1316,5.);
#30=CYLINDRICAL_SURFACE('',#1317,5.);
#31=CYLINDRICAL_SURFACE('',#1318,5.);
#32=CYLINDRICAL_SURFACE('',#1319,5.);
#33=FACE_BOUND('',#114,.T.);
#34=FACE_BOUND('',#115,.T.);
#35=FACE_BOUND('',#116,.T.);
#36=FACE_BOUND('',#117,.T.);
#37=FACE_BOUND('',#118,.T.);
#38=FACE_BOUND('',#119,.T.);
#39=FACE_BOUND('',#120,.T.);
#40=FACE_BOUND('',#129,.T.);
#41=FACE_BOUND('',#131,.T.);
#42=FACE_BOUND('',#134,.T.);
#43=FACE_BOUND('',#135,.T.);
#44=FACE_BOUND('',#136,.T.);
#45=FACE_BOUND('',#143,.T.);
#46=FACE_BOUND('',#144,.T.);
#47=FACE_BOUND('',#145,.T.);
#48=FACE_BOUND('',#152,.T.);
#49=FACE_BOUND('',#153,.T.);
#50=FACE_BOUND('',#156,.T.);
#51=FACE_BOUND('',#162,.T.);
#52=FACE_BOUND('',#185,.T.);
#53=FACE_BOUND('',#191,.T.);
#54=FACE_OUTER_BOUND('',#113,.T.);
#55=FACE_OUTER_BOUND('',#121,.T.);
#56=FACE_OUTER_BOUND('',#122,.T.);
#57=FACE_OUTER_BOUND('',#123,.T.);
#58=FACE_OUTER_BOUND('',#124,.T.);
#59=FACE_OUTER_BOUND('',#125,.T.);
#60=FACE_OUTER_BOUND('',#126,.T.);
#61=FACE_OUTER_BOUND('',#127,.T.);
#62=FACE_OUTER_BOUND('',#128,.T.);
#63=FACE_OUTER_BOUND('',#130,.T.);
#64=FACE_OUTER_BOUND('',#132,.T.);
#65=FACE_OUTER_BOUND('',#133,.T.);
#66=FACE_OUTER_BOUND('',#137,.T.);
#67=FACE_OUTER_BOUND('',#138,.T.);
#68=FACE_OUTER_BOUND('',#139,.T.);
#69=FACE_OUTER_BOUND('',#140,.T.);
#70=FACE_OUTER_BOUND('',#141,.T.);
#71=FACE_OUTER_BOUND('',#142,.T.);
#72=FACE_OUTER_BOUND('',#146,.T.);
#73=FACE_OUTER_BOUND('',#147,.T.);
#74=FACE_OUTER_BOUND('',#148,.T.);
#75=FACE_OUTER_BOUND('',#149,.T.);
#76=FACE_OUTER_BOUND('',#150,.T.);
#77=FACE_OUTER_BOUND('',#151,.T.);
#78=FACE_OUTER_BOUND('',#154,.T.);
#79=FACE_OUTER_BOUND('',#155,.T.);
#80=FACE_OUTER_BOUND('',#157,.T.);
#81=FACE_OUTER_BOUND('',#158,.T.);
#82=FACE_OUTER_BOUND('',#159,.T.);
#83=FACE_OUTER_BOUND('',#160,.T.);
#84=FACE_OUTER_BOUND('',#161,.T.);
#85=FACE_OUTER_BOUND('',#163,.T.);
#86=FACE_OUTER_BOUND('',#164,.T.);
#87=FACE_OUTER_BOUND('',#165,.T.);
#88=FACE_OUTER_BOUND('',#166,.T.);
#89=FACE_OUTER_BOUND('',#167,.T.);
#90=FACE_OUTER_BOUND('',#168,.T.);
#91=FACE_OUTER_BOUND('',#169,.T.);
#92=FACE_OUTER_BOUND('',#170,.T.);
#93=FACE_OUTER_BOUND('',#171,.T.);
#94=FACE_OUTER_BOUND('',#172,.T.);
#95=FACE_OUTER_BOUND('',#173,.T.);
#96=FACE_OUTER_BOUND('',#174,.T.);
#97=FACE_OUTER_BOUND('',#175,.T.);
#98=FACE_OUTER_BOUND('',#176,.T.);
#99=FACE_OUTER_BOUND('',#177,.T.);
#100=FACE_OUTER_BOUND('',#178,.T.);
#101=FACE_OUTER_BOUND('',#179,.T.);
#102=FACE_OUTER_BOUND('',#180,.T.);
#103=FACE_OUTER_BOUND('',#181,.T.);
#104=FACE_OUTER_BOUND('',#182,.T.);
#105=FACE_OUTER_BOUND('',#183,.T.);
#106=FACE_OUTER_BOUND('',#184,.T.);
#107=FACE_OUTER_BOUND('',#186,.T.);
#108=FACE_OUTER_BOUND('',#187,.T.);
#109=FACE_OUTER_BOUND('',#188,.T.);
#110=FACE_OUTER_BOUND('',#189,.T.);
#111=FACE_OUTER_BOUND('',#190,.T.);
#112=FACE_OUTER_BOUND('',#192,.T.);
#113=EDGE_LOOP('',(#787,#788,#789,#790,#791,#792,#793,#794));
#114=EDGE_LOOP('',(#795));
#115=EDGE_LOOP('',(#796));
#116=EDGE_LOOP('',(#797));
#117=EDGE_LOOP('',(#798));
#118=EDGE_LOOP('',(#799));
#119=EDGE_LOOP('',(#800));
#120=EDGE_LOOP('',(#801,#802,#803,#804));
#121=EDGE_LOOP('',(#805,#806,#807,#808));
#122=EDGE_LOOP('',(#809,#810,#811,#812));
#123=EDGE_LOOP('',(#813,#814,#815,#816));
#124=EDGE_LOOP('',(#817,#818,#819,#820));
#125=EDGE_LOOP('',(#821,#822,#823,#824));
#126=EDGE_LOOP('',(#825,#826,#827,#828));
#127=EDGE_LOOP('',(#829,#830,#831,#832));
#128=EDGE_LOOP('',(#833,#834,#835,#836,#837));
#129=EDGE_LOOP('',(#838,#839,#840,#841));
#130=EDGE_LOOP('',(#842,#843,#844,#845,#846));
#131=EDGE_LOOP('',(#847,#848,#849,#850));
#132=EDGE_LOOP('',(#851,#852,#853,#854,#855,#856,#857,#858,#859,#860));
#133=EDGE_LOOP('',(#861,#862,#863,#864,#865,#866,#867,#868));
#134=EDGE_LOOP('',(#869));
#135=EDGE_LOOP('',(#870));
#136=EDGE_LOOP('',(#871));
#137=EDGE_LOOP('',(#872,#873,#874,#875));
#138=EDGE_LOOP('',(#876,#877,#878,#879));
#139=EDGE_LOOP('',(#880,#881,#882,#883,#884,#885,#886,#887,#888,#889,#890,
#891));
#140=EDGE_LOOP('',(#892,#893,#894,#895));
#141=EDGE_LOOP('',(#896,#897,#898,#899));
#142=EDGE_LOOP('',(#900,#901,#902,#903,#904,#905,#906,#907));
#143=EDGE_LOOP('',(#908));
#144=EDGE_LOOP('',(#909));
#145=EDGE_LOOP('',(#910));
#146=EDGE_LOOP('',(#911,#912,#913,#914));
#147=EDGE_LOOP('',(#915,#916,#917,#918));
#148=EDGE_LOOP('',(#919,#920,#921,#922));
#149=EDGE_LOOP('',(#923,#924,#925,#926));
#150=EDGE_LOOP('',(#927,#928,#929,#930));
#151=EDGE_LOOP('',(#931,#932,#933,#934,#935,#936,#937,#938,#939,#940,#941,
#942));
#152=EDGE_LOOP('',(#943,#944,#945,#946));
#153=EDGE_LOOP('',(#947,#948,#949,#950));
#154=EDGE_LOOP('',(#951,#952,#953,#954));
#155=EDGE_LOOP('',(#955,#956,#957,#958));
#156=EDGE_LOOP('',(#959,#960,#961,#962));
#157=EDGE_LOOP('',(#963,#964,#965,#966));
#158=EDGE_LOOP('',(#967,#968,#969,#970));
#159=EDGE_LOOP('',(#971,#972,#973,#974));
#160=EDGE_LOOP('',(#975,#976,#977,#978));
#161=EDGE_LOOP('',(#979,#980,#981,#982));
#162=EDGE_LOOP('',(#983,#984,#985,#986));
#163=EDGE_LOOP('',(#987,#988,#989,#990));
#164=EDGE_LOOP('',(#991,#992,#993,#994));
#165=EDGE_LOOP('',(#995,#996,#997,#998));
#166=EDGE_LOOP('',(#999,#1000,#1001,#1002));
#167=EDGE_LOOP('',(#1003,#1004,#1005,#1006));
#168=EDGE_LOOP('',(#1007,#1008,#1009,#1010));
#169=EDGE_LOOP('',(#1011,#1012,#1013,#1014));
#170=EDGE_LOOP('',(#1015,#1016,#1017,#1018));
#171=EDGE_LOOP('',(#1019,#1020,#1021,#1022));
#172=EDGE_LOOP('',(#1023,#1024,#1025,#1026));
#173=EDGE_LOOP('',(#1027,#1028,#1029,#1030));
#174=EDGE_LOOP('',(#1031,#1032,#1033,#1034));
#175=EDGE_LOOP('',(#1035,#1036,#1037,#1038));
#176=EDGE_LOOP('',(#1039,#1040,#1041,#1042));
#177=EDGE_LOOP('',(#1043,#1044,#1045,#1046));
#178=EDGE_LOOP('',(#1047,#1048,#1049,#1050,#1051,#1052,#1053,#1054,#1055,
#1056,#1057,#1058,#1059,#1060,#1061,#1062,#1063,#1064,#1065,#1066,#1067,
#1068));
#179=EDGE_LOOP('',(#1069,#1070,#1071,#1072));
#180=EDGE_LOOP('',(#1073,#1074,#1075,#1076));
#181=EDGE_LOOP('',(#1077,#1078,#1079,#1080));
#182=EDGE_LOOP('',(#1081,#1082,#1083,#1084));
#183=EDGE_LOOP('',(#1085,#1086,#1087,#1088));
#184=EDGE_LOOP('',(#1089,#1090,#1091,#1092,#1093));
#185=EDGE_LOOP('',(#1094,#1095,#1096,#1097));
#186=EDGE_LOOP('',(#1098,#1099,#1100,#1101));
#187=EDGE_LOOP('',(#1102,#1103,#1104,#1105));
#188=EDGE_LOOP('',(#1106,#1107,#1108,#1109));
#189=EDGE_LOOP('',(#1110,#1111,#1112,#1113));
#190=EDGE_LOOP('',(#1114,#1115,#1116,#1117,#1118));
#191=EDGE_LOOP('',(#1119,#1120,#1121,#1122));
#192=EDGE_LOOP('',(#1123,#1124,#1125,#1126));
#193=CIRCLE('',#1247,5.);
#194=CIRCLE('',#1248,5.);
#195=CIRCLE('',#1249,5.);
#196=CIRCLE('',#1250,5.);
#197=CIRCLE('',#1251,2.79999999999999);
#198=CIRCLE('',#1252,2.79999999999999);
#199=CIRCLE('',#1253,2.79999999999999);
#200=CIRCLE('',#1254,2.79999999999999);
#201=CIRCLE('',#1255,2.79999999999999);
#202=CIRCLE('',#1256,2.79999999999999);
#203=CIRCLE('',#1258,2.79999999999999);
#204=CIRCLE('',#1260,2.79999999999999);
#205=CIRCLE('',#1262,2.79999999999999);
#206=CIRCLE('',#1264,2.79999999999999);
#207=CIRCLE('',#1266,2.79999999999999);
#208=CIRCLE('',#1268,2.79999999999999);
#209=CIRCLE('',#1274,5.);
#210=CIRCLE('',#1275,5.);
#211=CIRCLE('',#1282,5.);
#212=CIRCLE('',#1283,5.);
#213=CIRCLE('',#1290,2.1);
#214=CIRCLE('',#1291,2.1);
#215=CIRCLE('',#1292,2.1);
#216=CIRCLE('',#1293,2.1);
#217=CIRCLE('',#1296,2.1);
#218=CIRCLE('',#1297,2.1);
#219=CIRCLE('',#1303,2.1);
#220=CIRCLE('',#1304,2.1);
#221=LINE('',#1661,#363);
#222=LINE('',#1665,#364);
#223=LINE('',#1669,#365);
#224=LINE('',#1673,#366);
#225=LINE('',#1689,#367);
#226=LINE('',#1691,#368);
#227=LINE('',#1693,#369);
#228=LINE('',#1694,#370);
#229=LINE('',#1697,#371);
#230=LINE('',#1701,#372);
#231=LINE('',#1705,#373);
#232=LINE('',#1709,#374);
#233=LINE('',#1713,#375);
#234=LINE('',#1717,#376);
#235=LINE('',#1722,#377);
#236=LINE('',#1724,#378);
#237=LINE('',#1726,#379);
#238=LINE('',#1727,#380);
#239=LINE('',#1729,#381);
#240=LINE('',#1731,#382);
#241=LINE('',#1732,#383);
#242=LINE('',#1735,#384);
#243=LINE('',#1737,#385);
#244=LINE('',#1739,#386);
#245=LINE('',#1740,#387);
#246=LINE('',#1744,#388);
#247=LINE('',#1746,#389);
#248=LINE('',#1747,#390);
#249=LINE('',#1748,#391);
#250=LINE('',#1751,#392);
#251=LINE('',#1753,#393);
#252=LINE('',#1755,#394);
#253=LINE('',#1756,#395);
#254=LINE('',#1759,#396);
#255=LINE('',#1760,#397);
#256=LINE('',#1762,#398);
#257=LINE('',#1764,#399);
#258=LINE('',#1766,#400);
#259=LINE('',#1767,#401);
#260=LINE('',#1769,#402);
#261=LINE('',#1770,#403);
#262=LINE('',#1774,#404);
#263=LINE('',#1775,#405);
#264=LINE('',#1779,#406);
#265=LINE('',#1783,#407);
#266=LINE('',#1784,#408);
#267=LINE('',#1788,#409);
#268=LINE('',#1790,#410);
#269=LINE('',#1792,#411);
#270=LINE('',#1793,#412);
#271=LINE('',#1795,#413);
#272=LINE('',#1799,#414);
#273=LINE('',#1801,#415);
#274=LINE('',#1803,#416);
#275=LINE('',#1805,#417);
#276=LINE('',#1807,#418);
#277=LINE('',#1808,#419);
#278=LINE('',#1810,#420);
#279=LINE('',#1812,#421);
#280=LINE('',#1813,#422);
#281=LINE('',#1817,#423);
#282=LINE('',#1819,#424);
#283=LINE('',#1821,#425);
#284=LINE('',#1822,#426);
#285=LINE('',#1825,#427);
#286=LINE('',#1827,#428);
#287=LINE('',#1828,#429);
#288=LINE('',#1830,#430);
#289=LINE('',#1832,#431);
#290=LINE('',#1834,#432);
#291=LINE('',#1838,#433);
#292=LINE('',#1842,#434);
#293=LINE('',#1843,#435);
#294=LINE('',#1846,#436);
#295=LINE('',#1848,#437);
#296=LINE('',#1849,#438);
#297=LINE('',#1852,#439);
#298=LINE('',#1853,#440);
#299=LINE('',#1856,#441);
#300=LINE('',#1857,#442);
#301=LINE('',#1860,#443);
#302=LINE('',#1861,#444);
#303=LINE('',#1863,#445);
#304=LINE('',#1864,#446);
#305=LINE('',#1865,#447);
#306=LINE('',#1866,#448);
#307=LINE('',#1869,#449);
#308=LINE('',#1873,#450);
#309=LINE('',#1877,#451);
#310=LINE('',#1881,#452);
#311=LINE('',#1885,#453);
#312=LINE('',#1887,#454);
#313=LINE('',#1888,#455);
#314=LINE('',#1891,#456);
#315=LINE('',#1893,#457);
#316=LINE('',#1894,#458);
#317=LINE('',#1897,#459);
#318=LINE('',#1901,#460);
#319=LINE('',#1904,#461);
#320=LINE('',#1906,#462);
#321=LINE('',#1909,#463);
#322=LINE('',#1911,#464);
#323=LINE('',#1912,#465);
#324=LINE('',#1915,#466);
#325=LINE('',#1916,#467);
#326=LINE('',#1919,#468);
#327=LINE('',#1920,#469);
#328=LINE('',#1923,#470);
#329=LINE('',#1927,#471);
#330=LINE('',#1930,#472);
#331=LINE('',#1932,#473);
#332=LINE('',#1933,#474);
#333=LINE('',#1935,#475);
#334=LINE('',#1937,#476);
#335=LINE('',#1940,#477);
#336=LINE('',#1941,#478);
#337=LINE('',#1943,#479);
#338=LINE('',#1945,#480);
#339=LINE('',#1948,#481);
#340=LINE('',#1949,#482);
#341=LINE('',#1951,#483);
#342=LINE('',#1952,#484);
#343=LINE('',#1958,#485);
#344=LINE('',#1960,#486);
#345=LINE('',#1961,#487);
#346=LINE('',#1964,#488);
#347=LINE('',#1966,#489);
#348=LINE('',#1967,#490);
#349=LINE('',#1970,#491);
#350=LINE('',#1971,#492);
#351=LINE('',#1974,#493);
#352=LINE('',#1975,#494);
#353=LINE('',#1977,#495);
#354=LINE('',#1979,#496);
#355=LINE('',#1983,#497);
#356=LINE('',#1985,#498);
#357=LINE('',#1986,#499);
#358=LINE('',#1989,#500);
#359=LINE('',#1990,#501);
#360=LINE('',#1993,#502);
#361=LINE('',#1994,#503);
#362=LINE('',#1996,#504);
#363=VECTOR('',#1340,1000.);
#364=VECTOR('',#1343,1000.);
#365=VECTOR('',#1346,1000.);
#366=VECTOR('',#1349,1000.);
#367=VECTOR('',#1364,1000.);
#368=VECTOR('',#1365,1000.);
#369=VECTOR('',#1366,1000.);
#370=VECTOR('',#1367,1000.);
#371=VECTOR('',#1370,2.79999999999999);
#372=VECTOR('',#1375,2.79999999999999);
#373=VECTOR('',#1380,2.79999999999999);
#374=VECTOR('',#1385,2.79999999999999);
#375=VECTOR('',#1390,2.79999999999999);
#376=VECTOR('',#1395,2.79999999999999);
#377=VECTOR('',#1400,1000.);
#378=VECTOR('',#1401,1000.);
#379=VECTOR('',#1402,1000.);
#380=VECTOR('',#1403,1000.);
#381=VECTOR('',#1406,1000.);
#382=VECTOR('',#1407,1000.);
#383=VECTOR('',#1408,1000.);
#384=VECTOR('',#1409,1000.);
#385=VECTOR('',#1410,1000.);
#386=VECTOR('',#1411,1000.);
#387=VECTOR('',#1412,1000.);
#388=VECTOR('',#1415,1000.);
#389=VECTOR('',#1416,1000.);
#390=VECTOR('',#1417,1000.);
#391=VECTOR('',#1418,1000.);
#392=VECTOR('',#1419,1000.);
#393=VECTOR('',#1420,1000.);
#394=VECTOR('',#1421,1000.);
#395=VECTOR('',#1422,1000.);
#396=VECTOR('',#1425,1000.);
#397=VECTOR('',#1426,1000.);
#398=VECTOR('',#1427,1000.);
#399=VECTOR('',#1428,1000.);
#400=VECTOR('',#1429,1000.);
#401=VECTOR('',#1430,1000.);
#402=VECTOR('',#1431,1000.);
#403=VECTOR('',#1432,1000.);
#404=VECTOR('',#1435,1000.);
#405=VECTOR('',#1436,1000.);
#406=VECTOR('',#1439,1000.);
#407=VECTOR('',#1442,1000.);
#408=VECTOR('',#1443,1000.);
#409=VECTOR('',#1446,1000.);
#410=VECTOR('',#1447,1000.);
#411=VECTOR('',#1448,1000.);
#412=VECTOR('',#1449,1000.);
#413=VECTOR('',#1452,1000.);
#414=VECTOR('',#1455,1000.);
#415=VECTOR('',#1456,1000.);
#416=VECTOR('',#1457,1000.);
#417=VECTOR('',#1458,1000.);
#418=VECTOR('',#1459,1000.);
#419=VECTOR('',#1460,1000.);
#420=VECTOR('',#1461,1000.);
#421=VECTOR('',#1462,1000.);
#422=VECTOR('',#1463,1000.);
#423=VECTOR('',#1466,1000.);
#424=VECTOR('',#1467,1000.);
#425=VECTOR('',#1468,1000.);
#426=VECTOR('',#1469,1000.);
#427=VECTOR('',#1472,1000.);
#428=VECTOR('',#1473,1000.);
#429=VECTOR('',#1474,1000.);
#430=VECTOR('',#1477,1000.);
#431=VECTOR('',#1478,1000.);
#432=VECTOR('',#1479,1000.);
#433=VECTOR('',#1482,1000.);
#434=VECTOR('',#1487,1000.);
#435=VECTOR('',#1488,1000.);
#436=VECTOR('',#1491,1000.);
#437=VECTOR('',#1492,1000.);
#438=VECTOR('',#1493,1000.);
#439=VECTOR('',#1496,1000.);
#440=VECTOR('',#1497,1000.);
#441=VECTOR('',#1500,1000.);
#442=VECTOR('',#1501,1000.);
#443=VECTOR('',#1504,1000.);
#444=VECTOR('',#1505,1000.);
#445=VECTOR('',#1508,10.);
#446=VECTOR('',#1509,1000.);
#447=VECTOR('',#1510,1000.);
#448=VECTOR('',#1511,10.);
#449=VECTOR('',#1512,1000.);
#450=VECTOR('',#1515,1000.);
#451=VECTOR('',#1518,1000.);
#452=VECTOR('',#1521,1000.);
#453=VECTOR('',#1526,1000.);
#454=VECTOR('',#1527,1000.);
#455=VECTOR('',#1528,1000.);
#456=VECTOR('',#1531,1000.);
#457=VECTOR('',#1532,1000.);
#458=VECTOR('',#1533,1000.);
#459=VECTOR('',#1534,1000.);
#460=VECTOR('',#1537,1000.);
#461=VECTOR('',#1542,1000.);
#462=VECTOR('',#1545,1000.);
#463=VECTOR('',#1548,1000.);
#464=VECTOR('',#1549,1000.);
#465=VECTOR('',#1550,999.999999999999);
#466=VECTOR('',#1553,1000.);
#467=VECTOR('',#1554,999.999999999999);
#468=VECTOR('',#1557,1000.);
#469=VECTOR('',#1558,1000.);
#470=VECTOR('',#1559,1000.);
#471=VECTOR('',#1562,1000.);
#472=VECTOR('',#1567,1000.);
#473=VECTOR('',#1570,1000.);
#474=VECTOR('',#1571,1000.);
#475=VECTOR('',#1574,1000.);
#476=VECTOR('',#1577,1000.);
#477=VECTOR('',#1582,1000.);
#478=VECTOR('',#1583,1000.);
#479=VECTOR('',#1586,1000.);
#480=VECTOR('',#1589,1000.);
#481=VECTOR('',#1594,10.);
#482=VECTOR('',#1595,10.);
#483=VECTOR('',#1598,10.);
#484=VECTOR('',#1599,10.);
#485=VECTOR('',#1610,1000.);
#486=VECTOR('',#1611,1000.);
#487=VECTOR('',#1612,1000.);
#488=VECTOR('',#1615,1000.);
#489=VECTOR('',#1616,1000.);
#490=VECTOR('',#1617,1000.);
#491=VECTOR('',#1620,1000.);
#492=VECTOR('',#1621,1000.);
#493=VECTOR('',#1624,1000.);
#494=VECTOR('',#1625,1000.);
#495=VECTOR('',#1628,1000.);
#496=VECTOR('',#1631,1000.);
#497=VECTOR('',#1636,1000.);
#498=VECTOR('',#1637,1000.);
#499=VECTOR('',#1638,1000.);
#500=VECTOR('',#1641,1000.);
#501=VECTOR('',#1642,1000.);
#502=VECTOR('',#1645,1000.);
#503=VECTOR('',#1646,1000.);
#504=VECTOR('',#1649,1000.);
#505=VERTEX_POINT('',#1659);
#506=VERTEX_POINT('',#1660);
#507=VERTEX_POINT('',#1662);
#508=VERTEX_POINT('',#1664);
#509=VERTEX_POINT('',#1666);
#510=VERTEX_POINT('',#1668);
#511=VERTEX_POINT('',#1670);
#512=VERTEX_POINT('',#1672);
#513=VERTEX_POINT('',#1675);
#514=VERTEX_POINT('',#1677);
#515=VERTEX_POINT('',#1679);
#516=VERTEX_POINT('',#1681);
#517=VERTEX_POINT('',#1683);
#518=VERTEX_POINT('',#1685);
#519=VERTEX_POINT('',#1687);
#520=VERTEX_POINT('',#1688);
#521=VERTEX_POINT('',#1690);
#522=VERTEX_POINT('',#1692);
#523=VERTEX_POINT('',#1696);
#524=VERTEX_POINT('',#1700);
#525=VERTEX_POINT('',#1704);
#526=VERTEX_POINT('',#1708);
#527=VERTEX_POINT('',#1712);
#528=VERTEX_POINT('',#1716);
#529=VERTEX_POINT('',#1720);
#530=VERTEX_POINT('',#1721);
#531=VERTEX_POINT('',#1723);
#532=VERTEX_POINT('',#1725);
#533=VERTEX_POINT('',#1730);
#534=VERTEX_POINT('',#1733);
#535=VERTEX_POINT('',#1734);
#536=VERTEX_POINT('',#1736);
#537=VERTEX_POINT('',#1738);
#538=VERTEX_POINT('',#1742);
#539=VERTEX_POINT('',#1743);
#540=VERTEX_POINT('',#1745);
#541=VERTEX_POINT('',#1749);
#542=VERTEX_POINT('',#1750);
#543=VERTEX_POINT('',#1752);
#544=VERTEX_POINT('',#1754);
#545=VERTEX_POINT('',#1758);
#546=VERTEX_POINT('',#1761);
#547=VERTEX_POINT('',#1763);
#548=VERTEX_POINT('',#1765);
#549=VERTEX_POINT('',#1768);
#550=VERTEX_POINT('',#1772);
#551=VERTEX_POINT('',#1773);
#552=VERTEX_POINT('',#1776);
#553=VERTEX_POINT('',#1778);
#554=VERTEX_POINT('',#1780);
#555=VERTEX_POINT('',#1782);
#556=VERTEX_POINT('',#1786);
#557=VERTEX_POINT('',#1787);
#558=VERTEX_POINT('',#1789);
#559=VERTEX_POINT('',#1791);
#560=VERTEX_POINT('',#1797);
#561=VERTEX_POINT('',#1798);
#562=VERTEX_POINT('',#1800);
#563=VERTEX_POINT('',#1802);
#564=VERTEX_POINT('',#1804);
#565=VERTEX_POINT('',#1806);
#566=VERTEX_POINT('',#1809);
#567=VERTEX_POINT('',#1811);
#568=VERTEX_POINT('',#1815);
#569=VERTEX_POINT('',#1816);
#570=VERTEX_POINT('',#1818);
#571=VERTEX_POINT('',#1820);
#572=VERTEX_POINT('',#1824);
#573=VERTEX_POINT('',#1826);
#574=VERTEX_POINT('',#1831);
#575=VERTEX_POINT('',#1833);
#576=VERTEX_POINT('',#1835);
#577=VERTEX_POINT('',#1837);
#578=VERTEX_POINT('',#1841);
#579=VERTEX_POINT('',#1845);
#580=VERTEX_POINT('',#1847);
#581=VERTEX_POINT('',#1851);
#582=VERTEX_POINT('',#1855);
#583=VERTEX_POINT('',#1859);
#584=VERTEX_POINT('',#1867);
#585=VERTEX_POINT('',#1868);
#586=VERTEX_POINT('',#1870);
#587=VERTEX_POINT('',#1872);
#588=VERTEX_POINT('',#1875);
#589=VERTEX_POINT('',#1876);
#590=VERTEX_POINT('',#1878);
#591=VERTEX_POINT('',#1880);
#592=VERTEX_POINT('',#1884);
#593=VERTEX_POINT('',#1886);
#594=VERTEX_POINT('',#1890);
#595=VERTEX_POINT('',#1892);
#596=VERTEX_POINT('',#1895);
#597=VERTEX_POINT('',#1896);
#598=VERTEX_POINT('',#1898);
#599=VERTEX_POINT('',#1900);
#600=VERTEX_POINT('',#1908);
#601=VERTEX_POINT('',#1910);
#602=VERTEX_POINT('',#1914);
#603=VERTEX_POINT('',#1918);
#604=VERTEX_POINT('',#1921);
#605=VERTEX_POINT('',#1922);
#606=VERTEX_POINT('',#1924);
#607=VERTEX_POINT('',#1926);
#608=VERTEX_POINT('',#1959);
#609=VERTEX_POINT('',#1963);
#610=VERTEX_POINT('',#1965);
#611=VERTEX_POINT('',#1969);
#612=VERTEX_POINT('',#1973);
#613=VERTEX_POINT('',#1982);
#614=VERTEX_POINT('',#1984);
#615=VERTEX_POINT('',#1988);
#616=VERTEX_POINT('',#1992);
#617=EDGE_CURVE('',#505,#506,#221,.T.);
#618=EDGE_CURVE('',#506,#507,#193,.T.);
#619=EDGE_CURVE('',#507,#508,#222,.T.);
#620=EDGE_CURVE('',#508,#509,#194,.T.);
#621=EDGE_CURVE('',#509,#510,#223,.T.);
#622=EDGE_CURVE('',#510,#511,#195,.T.);
#623=EDGE_CURVE('',#511,#512,#224,.T.);
#624=EDGE_CURVE('',#512,#505,#196,.T.);
#625=EDGE_CURVE('',#513,#513,#197,.T.);
#626=EDGE_CURVE('',#514,#514,#198,.T.);
#627=EDGE_CURVE('',#515,#515,#199,.T.);
#628=EDGE_CURVE('',#516,#516,#200,.T.);
#629=EDGE_CURVE('',#517,#517,#201,.T.);
#630=EDGE_CURVE('',#518,#518,#202,.T.);
#631=EDGE_CURVE('',#519,#520,#225,.T.);
#632=EDGE_CURVE('',#520,#521,#226,.T.);
#633=EDGE_CURVE('',#521,#522,#227,.T.);
#634=EDGE_CURVE('',#522,#519,#228,.T.);
#635=EDGE_CURVE('',#513,#523,#229,.T.);
#636=EDGE_CURVE('',#523,#523,#203,.T.);
#637=EDGE_CURVE('',#514,#524,#230,.T.);
#638=EDGE_CURVE('',#524,#524,#204,.T.);
#639=EDGE_CURVE('',#515,#525,#231,.T.);
#640=EDGE_CURVE('',#525,#525,#205,.T.);
#641=EDGE_CURVE('',#516,#526,#232,.T.);
#642=EDGE_CURVE('',#526,#526,#206,.T.);
#643=EDGE_CURVE('',#517,#527,#233,.T.);
#644=EDGE_CURVE('',#527,#527,#207,.T.);
#645=EDGE_CURVE('',#518,#528,#234,.T.);
#646=EDGE_CURVE('',#528,#528,#208,.T.);
#647=EDGE_CURVE('',#529,#530,#235,.T.);
#648=EDGE_CURVE('',#530,#531,#236,.T.);
#649=EDGE_CURVE('',#531,#532,#237,.T.);
#650=EDGE_CURVE('',#532,#529,#238,.T.);
#651=EDGE_CURVE('',#529,#521,#239,.T.);
#652=EDGE_CURVE('',#533,#520,#240,.T.);
#653=EDGE_CURVE('',#533,#530,#241,.T.);
#654=EDGE_CURVE('',#534,#535,#242,.T.);
#655=EDGE_CURVE('',#535,#536,#243,.T.);
#656=EDGE_CURVE('',#536,#537,#244,.T.);
#657=EDGE_CURVE('',#537,#534,#245,.T.);
#658=EDGE_CURVE('',#538,#539,#246,.T.);
#659=EDGE_CURVE('',#538,#540,#247,.T.);
#660=EDGE_CURVE('',#519,#540,#248,.T.);
#661=EDGE_CURVE('',#539,#522,#249,.T.);
#662=EDGE_CURVE('',#541,#542,#250,.T.);
#663=EDGE_CURVE('',#542,#543,#251,.T.);
#664=EDGE_CURVE('',#543,#544,#252,.T.);
#665=EDGE_CURVE('',#544,#541,#253,.T.);
#666=EDGE_CURVE('',#545,#531,#254,.T.);
#667=EDGE_CURVE('',#530,#538,#255,.T.);
#668=EDGE_CURVE('',#546,#538,#256,.T.);
#669=EDGE_CURVE('',#547,#546,#257,.T.);
#670=EDGE_CURVE('',#548,#547,#258,.T.);
#671=EDGE_CURVE('',#548,#506,#259,.T.);
#672=EDGE_CURVE('',#505,#549,#260,.F.);
#673=EDGE_CURVE('',#549,#545,#261,.T.);
#674=EDGE_CURVE('',#550,#551,#262,.T.);
#675=EDGE_CURVE('',#551,#545,#263,.T.);
#676=EDGE_CURVE('',#549,#552,#209,.F.);
#677=EDGE_CURVE('',#552,#553,#264,.T.);
#678=EDGE_CURVE('',#553,#554,#210,.F.);
#679=EDGE_CURVE('',#554,#555,#265,.T.);
#680=EDGE_CURVE('',#555,#550,#266,.T.);
#681=EDGE_CURVE('',#556,#557,#267,.T.);
#682=EDGE_CURVE('',#557,#558,#268,.T.);
#683=EDGE_CURVE('',#558,#559,#269,.T.);
#684=EDGE_CURVE('',#559,#556,#270,.T.);
#685=EDGE_CURVE('',#533,#540,#271,.T.);
#686=EDGE_CURVE('',#560,#561,#272,.T.);
#687=EDGE_CURVE('',#562,#561,#273,.T.);
#688=EDGE_CURVE('',#562,#563,#274,.T.);
#689=EDGE_CURVE('',#563,#564,#275,.T.);
#690=EDGE_CURVE('',#564,#565,#276,.T.);
#691=EDGE_CURVE('',#539,#565,#277,.T.);
#692=EDGE_CURVE('',#566,#529,#278,.T.);
#693=EDGE_CURVE('',#566,#567,#279,.T.);
#694=EDGE_CURVE('',#567,#560,#280,.T.);
#695=EDGE_CURVE('',#568,#569,#281,.T.);
#696=EDGE_CURVE('',#570,#569,#282,.T.);
#697=EDGE_CURVE('',#570,#571,#283,.T.);
#698=EDGE_CURVE('',#571,#568,#284,.T.);
#699=EDGE_CURVE('',#550,#572,#285,.T.);
#700=EDGE_CURVE('',#573,#572,#286,.T.);
#701=EDGE_CURVE('',#573,#551,#287,.T.);
#702=EDGE_CURVE('',#547,#570,#288,.T.);
#703=EDGE_CURVE('',#569,#574,#289,.T.);
#704=EDGE_CURVE('',#574,#575,#290,.T.);
#705=EDGE_CURVE('',#575,#576,#211,.F.);
#706=EDGE_CURVE('',#576,#577,#291,.T.);
#707=EDGE_CURVE('',#577,#548,#212,.F.);
#708=EDGE_CURVE('',#568,#578,#292,.T.);
#709=EDGE_CURVE('',#574,#578,#293,.T.);
#710=EDGE_CURVE('',#558,#579,#294,.T.);
#711=EDGE_CURVE('',#579,#580,#295,.T.);
#712=EDGE_CURVE('',#580,#559,#296,.T.);
#713=EDGE_CURVE('',#581,#556,#297,.T.);
#714=EDGE_CURVE('',#581,#580,#298,.T.);
#715=EDGE_CURVE('',#581,#582,#299,.T.);
#716=EDGE_CURVE('',#582,#557,#300,.T.);
#717=EDGE_CURVE('',#555,#583,#301,.T.);
#718=EDGE_CURVE('',#583,#572,#302,.T.);
#719=EDGE_CURVE('',#575,#509,#303,.T.);
#720=EDGE_CURVE('',#578,#579,#304,.T.);
#721=EDGE_CURVE('',#582,#583,#305,.T.);
#722=EDGE_CURVE('',#554,#510,#306,.T.);
#723=EDGE_CURVE('',#584,#585,#307,.T.);
#724=EDGE_CURVE('',#585,#586,#213,.T.);
#725=EDGE_CURVE('',#586,#587,#308,.T.);
#726=EDGE_CURVE('',#587,#584,#214,.T.);
#727=EDGE_CURVE('',#588,#589,#309,.T.);
#728=EDGE_CURVE('',#589,#590,#215,.T.);
#729=EDGE_CURVE('',#590,#591,#310,.T.);
#730=EDGE_CURVE('',#591,#588,#216,.T.);
#731=EDGE_CURVE('',#563,#592,#311,.T.);
#732=EDGE_CURVE('',#592,#593,#312,.T.);
#733=EDGE_CURVE('',#593,#564,#313,.T.);
#734=EDGE_CURVE('',#594,#592,#314,.T.);
#735=EDGE_CURVE('',#595,#594,#315,.T.);
#736=EDGE_CURVE('',#595,#593,#316,.T.);
#737=EDGE_CURVE('',#596,#597,#317,.T.);
#738=EDGE_CURVE('',#597,#598,#217,.T.);
#739=EDGE_CURVE('',#598,#599,#318,.T.);
#740=EDGE_CURVE('',#599,#596,#218,.T.);
#741=EDGE_CURVE('',#594,#562,#319,.T.);
#742=EDGE_CURVE('',#565,#595,#320,.T.);
#743=EDGE_CURVE('',#567,#600,#321,.T.);
#744=EDGE_CURVE('',#600,#601,#322,.T.);
#745=EDGE_CURVE('',#601,#560,#323,.T.);
#746=EDGE_CURVE('',#602,#601,#324,.T.);
#747=EDGE_CURVE('',#561,#602,#325,.T.);
#748=EDGE_CURVE('',#603,#600,#326,.T.);
#749=EDGE_CURVE('',#602,#603,#327,.T.);
#750=EDGE_CURVE('',#604,#605,#328,.T.);
#751=EDGE_CURVE('',#605,#606,#219,.T.);
#752=EDGE_CURVE('',#606,#607,#329,.T.);
#753=EDGE_CURVE('',#607,#604,#220,.T.);
#754=EDGE_CURVE('',#603,#566,#330,.T.);
#755=EDGE_CURVE('',#586,#599,#331,.T.);
#756=EDGE_CURVE('',#585,#596,#332,.T.);
#757=EDGE_CURVE('',#587,#598,#333,.T.);
#758=EDGE_CURVE('',#584,#597,#334,.T.);
#759=EDGE_CURVE('',#590,#607,#335,.T.);
#760=EDGE_CURVE('',#589,#604,#336,.T.);
#761=EDGE_CURVE('',#591,#606,#337,.T.);
#762=EDGE_CURVE('',#588,#605,#338,.T.);
#763=EDGE_CURVE('',#577,#507,#339,.T.);
#764=EDGE_CURVE('',#576,#508,#340,.T.);
#765=EDGE_CURVE('',#553,#511,#341,.T.);
#766=EDGE_CURVE('',#552,#512,#342,.T.);
#767=EDGE_CURVE('',#532,#573,#343,.T.);
#768=EDGE_CURVE('',#571,#608,#344,.T.);
#769=EDGE_CURVE('',#608,#539,#345,.T.);
#770=EDGE_CURVE('',#609,#544,#346,.T.);
#771=EDGE_CURVE('',#610,#543,#347,.T.);
#772=EDGE_CURVE('',#609,#610,#348,.T.);
#773=EDGE_CURVE('',#611,#542,#349,.T.);
#774=EDGE_CURVE('',#610,#611,#350,.T.);
#775=EDGE_CURVE('',#612,#541,#351,.T.);
#776=EDGE_CURVE('',#611,#612,#352,.T.);
#777=EDGE_CURVE('',#608,#546,#353,.T.);
#778=EDGE_CURVE('',#612,#609,#354,.T.);
#779=EDGE_CURVE('',#613,#536,#355,.T.);
#780=EDGE_CURVE('',#614,#613,#356,.T.);
#781=EDGE_CURVE('',#614,#537,#357,.T.);
#782=EDGE_CURVE('',#615,#614,#358,.T.);
#783=EDGE_CURVE('',#615,#534,#359,.T.);
#784=EDGE_CURVE('',#616,#615,#360,.T.);
#785=EDGE_CURVE('',#616,#535,#361,.T.);
#786=EDGE_CURVE('',#613,#616,#362,.T.);
#787=ORIENTED_EDGE('',*,*,#617,.T.);
#788=ORIENTED_EDGE('',*,*,#618,.T.);
#789=ORIENTED_EDGE('',*,*,#619,.T.);
#790=ORIENTED_EDGE('',*,*,#620,.T.);
#791=ORIENTED_EDGE('',*,*,#621,.T.);
#792=ORIENTED_EDGE('',*,*,#622,.T.);
#793=ORIENTED_EDGE('',*,*,#623,.T.);
#794=ORIENTED_EDGE('',*,*,#624,.T.);
#795=ORIENTED_EDGE('',*,*,#625,.T.);
#796=ORIENTED_EDGE('',*,*,#626,.T.);
#797=ORIENTED_EDGE('',*,*,#627,.T.);
#798=ORIENTED_EDGE('',*,*,#628,.T.);
#799=ORIENTED_EDGE('',*,*,#629,.T.);
#800=ORIENTED_EDGE('',*,*,#630,.T.);
#801=ORIENTED_EDGE('',*,*,#631,.T.);
#802=ORIENTED_EDGE('',*,*,#632,.T.);
#803=ORIENTED_EDGE('',*,*,#633,.T.);
#804=ORIENTED_EDGE('',*,*,#634,.T.);
#805=ORIENTED_EDGE('',*,*,#625,.F.);
#806=ORIENTED_EDGE('',*,*,#635,.T.);
#807=ORIENTED_EDGE('',*,*,#636,.F.);
#808=ORIENTED_EDGE('',*,*,#635,.F.);
#809=ORIENTED_EDGE('',*,*,#626,.F.);
#810=ORIENTED_EDGE('',*,*,#637,.T.);
#811=ORIENTED_EDGE('',*,*,#638,.F.);
#812=ORIENTED_EDGE('',*,*,#637,.F.);
#813=ORIENTED_EDGE('',*,*,#627,.F.);
#814=ORIENTED_EDGE('',*,*,#639,.T.);
#815=ORIENTED_EDGE('',*,*,#640,.F.);
#816=ORIENTED_EDGE('',*,*,#639,.F.);
#817=ORIENTED_EDGE('',*,*,#628,.F.);
#818=ORIENTED_EDGE('',*,*,#641,.T.);
#819=ORIENTED_EDGE('',*,*,#642,.F.);
#820=ORIENTED_EDGE('',*,*,#641,.F.);
#821=ORIENTED_EDGE('',*,*,#629,.F.);
#822=ORIENTED_EDGE('',*,*,#643,.T.);
#823=ORIENTED_EDGE('',*,*,#644,.F.);
#824=ORIENTED_EDGE('',*,*,#643,.F.);
#825=ORIENTED_EDGE('',*,*,#630,.F.);
#826=ORIENTED_EDGE('',*,*,#645,.T.);
#827=ORIENTED_EDGE('',*,*,#646,.F.);
#828=ORIENTED_EDGE('',*,*,#645,.F.);
#829=ORIENTED_EDGE('',*,*,#647,.T.);
#830=ORIENTED_EDGE('',*,*,#648,.T.);
#831=ORIENTED_EDGE('',*,*,#649,.T.);
#832=ORIENTED_EDGE('',*,*,#650,.T.);
#833=ORIENTED_EDGE('',*,*,#647,.F.);
#834=ORIENTED_EDGE('',*,*,#651,.T.);
#835=ORIENTED_EDGE('',*,*,#632,.F.);
#836=ORIENTED_EDGE('',*,*,#652,.F.);
#837=ORIENTED_EDGE('',*,*,#653,.T.);
#838=ORIENTED_EDGE('',*,*,#654,.T.);
#839=ORIENTED_EDGE('',*,*,#655,.T.);
#840=ORIENTED_EDGE('',*,*,#656,.T.);
#841=ORIENTED_EDGE('',*,*,#657,.T.);
#842=ORIENTED_EDGE('',*,*,#658,.F.);
#843=ORIENTED_EDGE('',*,*,#659,.T.);
#844=ORIENTED_EDGE('',*,*,#660,.F.);
#845=ORIENTED_EDGE('',*,*,#634,.F.);
#846=ORIENTED_EDGE('',*,*,#661,.F.);
#847=ORIENTED_EDGE('',*,*,#662,.T.);
#848=ORIENTED_EDGE('',*,*,#663,.T.);
#849=ORIENTED_EDGE('',*,*,#664,.T.);
#850=ORIENTED_EDGE('',*,*,#665,.T.);
#851=ORIENTED_EDGE('',*,*,#666,.T.);
#852=ORIENTED_EDGE('',*,*,#648,.F.);
#853=ORIENTED_EDGE('',*,*,#667,.T.);
#854=ORIENTED_EDGE('',*,*,#668,.F.);
#855=ORIENTED_EDGE('',*,*,#669,.F.);
#856=ORIENTED_EDGE('',*,*,#670,.F.);
#857=ORIENTED_EDGE('',*,*,#671,.T.);
#858=ORIENTED_EDGE('',*,*,#617,.F.);
#859=ORIENTED_EDGE('',*,*,#672,.T.);
#860=ORIENTED_EDGE('',*,*,#673,.T.);
#861=ORIENTED_EDGE('',*,*,#674,.T.);
#862=ORIENTED_EDGE('',*,*,#675,.T.);
#863=ORIENTED_EDGE('',*,*,#673,.F.);
#864=ORIENTED_EDGE('',*,*,#676,.T.);
#865=ORIENTED_EDGE('',*,*,#677,.T.);
#866=ORIENTED_EDGE('',*,*,#678,.T.);
#867=ORIENTED_EDGE('',*,*,#679,.T.);
#868=ORIENTED_EDGE('',*,*,#680,.T.);
#869=ORIENTED_EDGE('',*,*,#636,.T.);
#870=ORIENTED_EDGE('',*,*,#640,.T.);
#871=ORIENTED_EDGE('',*,*,#646,.T.);
#872=ORIENTED_EDGE('',*,*,#681,.T.);
#873=ORIENTED_EDGE('',*,*,#682,.T.);
#874=ORIENTED_EDGE('',*,*,#683,.T.);
#875=ORIENTED_EDGE('',*,*,#684,.T.);
#876=ORIENTED_EDGE('',*,*,#685,.F.);
#877=ORIENTED_EDGE('',*,*,#652,.T.);
#878=ORIENTED_EDGE('',*,*,#631,.F.);
#879=ORIENTED_EDGE('',*,*,#660,.T.);
#880=ORIENTED_EDGE('',*,*,#686,.T.);
#881=ORIENTED_EDGE('',*,*,#687,.F.);
#882=ORIENTED_EDGE('',*,*,#688,.T.);
#883=ORIENTED_EDGE('',*,*,#689,.T.);
#884=ORIENTED_EDGE('',*,*,#690,.T.);
#885=ORIENTED_EDGE('',*,*,#691,.F.);
#886=ORIENTED_EDGE('',*,*,#661,.T.);
#887=ORIENTED_EDGE('',*,*,#633,.F.);
#888=ORIENTED_EDGE('',*,*,#651,.F.);
#889=ORIENTED_EDGE('',*,*,#692,.F.);
#890=ORIENTED_EDGE('',*,*,#693,.T.);
#891=ORIENTED_EDGE('',*,*,#694,.T.);
#892=ORIENTED_EDGE('',*,*,#695,.T.);
#893=ORIENTED_EDGE('',*,*,#696,.F.);
#894=ORIENTED_EDGE('',*,*,#697,.T.);
#895=ORIENTED_EDGE('',*,*,#698,.T.);
#896=ORIENTED_EDGE('',*,*,#699,.T.);
#897=ORIENTED_EDGE('',*,*,#700,.F.);
#898=ORIENTED_EDGE('',*,*,#701,.T.);
#899=ORIENTED_EDGE('',*,*,#674,.F.);
#900=ORIENTED_EDGE('',*,*,#670,.T.);
#901=ORIENTED_EDGE('',*,*,#702,.T.);
#902=ORIENTED_EDGE('',*,*,#696,.T.);
#903=ORIENTED_EDGE('',*,*,#703,.T.);
#904=ORIENTED_EDGE('',*,*,#704,.T.);
#905=ORIENTED_EDGE('',*,*,#705,.T.);
#906=ORIENTED_EDGE('',*,*,#706,.T.);
#907=ORIENTED_EDGE('',*,*,#707,.T.);
#908=ORIENTED_EDGE('',*,*,#638,.T.);
#909=ORIENTED_EDGE('',*,*,#642,.T.);
#910=ORIENTED_EDGE('',*,*,#644,.T.);
#911=ORIENTED_EDGE('',*,*,#695,.F.);
#912=ORIENTED_EDGE('',*,*,#708,.T.);
#913=ORIENTED_EDGE('',*,*,#709,.F.);
#914=ORIENTED_EDGE('',*,*,#703,.F.);
#915=ORIENTED_EDGE('',*,*,#710,.T.);
#916=ORIENTED_EDGE('',*,*,#711,.T.);
#917=ORIENTED_EDGE('',*,*,#712,.T.);
#918=ORIENTED_EDGE('',*,*,#683,.F.);
#919=ORIENTED_EDGE('',*,*,#713,.T.);
#920=ORIENTED_EDGE('',*,*,#684,.F.);
#921=ORIENTED_EDGE('',*,*,#712,.F.);
#922=ORIENTED_EDGE('',*,*,#714,.F.);
#923=ORIENTED_EDGE('',*,*,#713,.F.);
#924=ORIENTED_EDGE('',*,*,#715,.T.);
#925=ORIENTED_EDGE('',*,*,#716,.T.);
#926=ORIENTED_EDGE('',*,*,#681,.F.);
#927=ORIENTED_EDGE('',*,*,#717,.T.);
#928=ORIENTED_EDGE('',*,*,#718,.T.);
#929=ORIENTED_EDGE('',*,*,#699,.F.);
#930=ORIENTED_EDGE('',*,*,#680,.F.);
#931=ORIENTED_EDGE('',*,*,#719,.F.);
#932=ORIENTED_EDGE('',*,*,#704,.F.);
#933=ORIENTED_EDGE('',*,*,#709,.T.);
#934=ORIENTED_EDGE('',*,*,#720,.T.);
#935=ORIENTED_EDGE('',*,*,#710,.F.);
#936=ORIENTED_EDGE('',*,*,#682,.F.);
#937=ORIENTED_EDGE('',*,*,#716,.F.);
#938=ORIENTED_EDGE('',*,*,#721,.T.);
#939=ORIENTED_EDGE('',*,*,#717,.F.);
#940=ORIENTED_EDGE('',*,*,#679,.F.);
#941=ORIENTED_EDGE('',*,*,#722,.T.);
#942=ORIENTED_EDGE('',*,*,#621,.F.);
#943=ORIENTED_EDGE('',*,*,#723,.T.);
#944=ORIENTED_EDGE('',*,*,#724,.T.);
#945=ORIENTED_EDGE('',*,*,#725,.T.);
#946=ORIENTED_EDGE('',*,*,#726,.T.);
#947=ORIENTED_EDGE('',*,*,#727,.T.);
#948=ORIENTED_EDGE('',*,*,#728,.T.);
#949=ORIENTED_EDGE('',*,*,#729,.T.);
#950=ORIENTED_EDGE('',*,*,#730,.T.);
#951=ORIENTED_EDGE('',*,*,#689,.F.);
#952=ORIENTED_EDGE('',*,*,#731,.T.);
#953=ORIENTED_EDGE('',*,*,#732,.T.);
#954=ORIENTED_EDGE('',*,*,#733,.T.);
#955=ORIENTED_EDGE('',*,*,#732,.F.);
#956=ORIENTED_EDGE('',*,*,#734,.F.);
#957=ORIENTED_EDGE('',*,*,#735,.F.);
#958=ORIENTED_EDGE('',*,*,#736,.T.);
#959=ORIENTED_EDGE('',*,*,#737,.T.);
#960=ORIENTED_EDGE('',*,*,#738,.T.);
#961=ORIENTED_EDGE('',*,*,#739,.T.);
#962=ORIENTED_EDGE('',*,*,#740,.T.);
#963=ORIENTED_EDGE('',*,*,#731,.F.);
#964=ORIENTED_EDGE('',*,*,#688,.F.);
#965=ORIENTED_EDGE('',*,*,#741,.F.);
#966=ORIENTED_EDGE('',*,*,#734,.T.);
#967=ORIENTED_EDGE('',*,*,#733,.F.);
#968=ORIENTED_EDGE('',*,*,#736,.F.);
#969=ORIENTED_EDGE('',*,*,#742,.F.);
#970=ORIENTED_EDGE('',*,*,#690,.F.);
#971=ORIENTED_EDGE('',*,*,#743,.T.);
#972=ORIENTED_EDGE('',*,*,#744,.T.);
#973=ORIENTED_EDGE('',*,*,#745,.T.);
#974=ORIENTED_EDGE('',*,*,#694,.F.);
#975=ORIENTED_EDGE('',*,*,#745,.F.);
#976=ORIENTED_EDGE('',*,*,#746,.F.);
#977=ORIENTED_EDGE('',*,*,#747,.F.);
#978=ORIENTED_EDGE('',*,*,#686,.F.);
#979=ORIENTED_EDGE('',*,*,#744,.F.);
#980=ORIENTED_EDGE('',*,*,#748,.F.);
#981=ORIENTED_EDGE('',*,*,#749,.F.);
#982=ORIENTED_EDGE('',*,*,#746,.T.);
#983=ORIENTED_EDGE('',*,*,#750,.T.);
#984=ORIENTED_EDGE('',*,*,#751,.T.);
#985=ORIENTED_EDGE('',*,*,#752,.T.);
#986=ORIENTED_EDGE('',*,*,#753,.T.);
#987=ORIENTED_EDGE('',*,*,#743,.F.);
#988=ORIENTED_EDGE('',*,*,#693,.F.);
#989=ORIENTED_EDGE('',*,*,#754,.F.);
#990=ORIENTED_EDGE('',*,*,#748,.T.);
#991=ORIENTED_EDGE('',*,*,#740,.F.);
#992=ORIENTED_EDGE('',*,*,#755,.F.);
#993=ORIENTED_EDGE('',*,*,#724,.F.);
#994=ORIENTED_EDGE('',*,*,#756,.T.);
#995=ORIENTED_EDGE('',*,*,#739,.F.);
#996=ORIENTED_EDGE('',*,*,#757,.F.);
#997=ORIENTED_EDGE('',*,*,#725,.F.);
#998=ORIENTED_EDGE('',*,*,#755,.T.);
#999=ORIENTED_EDGE('',*,*,#738,.F.);
#1000=ORIENTED_EDGE('',*,*,#758,.F.);
#1001=ORIENTED_EDGE('',*,*,#726,.F.);
#1002=ORIENTED_EDGE('',*,*,#757,.T.);
#1003=ORIENTED_EDGE('',*,*,#737,.F.);
#1004=ORIENTED_EDGE('',*,*,#756,.F.);
#1005=ORIENTED_EDGE('',*,*,#723,.F.);
#1006=ORIENTED_EDGE('',*,*,#758,.T.);
#1007=ORIENTED_EDGE('',*,*,#753,.F.);
#1008=ORIENTED_EDGE('',*,*,#759,.F.);
#1009=ORIENTED_EDGE('',*,*,#728,.F.);
#1010=ORIENTED_EDGE('',*,*,#760,.T.);
#1011=ORIENTED_EDGE('',*,*,#752,.F.);
#1012=ORIENTED_EDGE('',*,*,#761,.F.);
#1013=ORIENTED_EDGE('',*,*,#729,.F.);
#1014=ORIENTED_EDGE('',*,*,#759,.T.);
#1015=ORIENTED_EDGE('',*,*,#751,.F.);
#1016=ORIENTED_EDGE('',*,*,#762,.F.);
#1017=ORIENTED_EDGE('',*,*,#730,.F.);
#1018=ORIENTED_EDGE('',*,*,#761,.T.);
#1019=ORIENTED_EDGE('',*,*,#750,.F.);
#1020=ORIENTED_EDGE('',*,*,#760,.F.);
#1021=ORIENTED_EDGE('',*,*,#727,.F.);
#1022=ORIENTED_EDGE('',*,*,#762,.T.);
#1023=ORIENTED_EDGE('',*,*,#763,.F.);
#1024=ORIENTED_EDGE('',*,*,#706,.F.);
#1025=ORIENTED_EDGE('',*,*,#764,.T.);
#1026=ORIENTED_EDGE('',*,*,#619,.F.);
#1027=ORIENTED_EDGE('',*,*,#765,.F.);
#1028=ORIENTED_EDGE('',*,*,#677,.F.);
#1029=ORIENTED_EDGE('',*,*,#766,.T.);
#1030=ORIENTED_EDGE('',*,*,#623,.F.);
#1031=ORIENTED_EDGE('',*,*,#707,.F.);
#1032=ORIENTED_EDGE('',*,*,#763,.T.);
#1033=ORIENTED_EDGE('',*,*,#618,.F.);
#1034=ORIENTED_EDGE('',*,*,#671,.F.);
#1035=ORIENTED_EDGE('',*,*,#705,.F.);
#1036=ORIENTED_EDGE('',*,*,#719,.T.);
#1037=ORIENTED_EDGE('',*,*,#620,.F.);
#1038=ORIENTED_EDGE('',*,*,#764,.F.);
#1039=ORIENTED_EDGE('',*,*,#678,.F.);
#1040=ORIENTED_EDGE('',*,*,#765,.T.);
#1041=ORIENTED_EDGE('',*,*,#622,.F.);
#1042=ORIENTED_EDGE('',*,*,#722,.F.);
#1043=ORIENTED_EDGE('',*,*,#676,.F.);
#1044=ORIENTED_EDGE('',*,*,#672,.F.);
#1045=ORIENTED_EDGE('',*,*,#624,.F.);
#1046=ORIENTED_EDGE('',*,*,#766,.F.);
#1047=ORIENTED_EDGE('',*,*,#650,.F.);
#1048=ORIENTED_EDGE('',*,*,#767,.T.);
#1049=ORIENTED_EDGE('',*,*,#700,.T.);
#1050=ORIENTED_EDGE('',*,*,#718,.F.);
#1051=ORIENTED_EDGE('',*,*,#721,.F.);
#1052=ORIENTED_EDGE('',*,*,#715,.F.);
#1053=ORIENTED_EDGE('',*,*,#714,.T.);
#1054=ORIENTED_EDGE('',*,*,#711,.F.);
#1055=ORIENTED_EDGE('',*,*,#720,.F.);
#1056=ORIENTED_EDGE('',*,*,#708,.F.);
#1057=ORIENTED_EDGE('',*,*,#698,.F.);
#1058=ORIENTED_EDGE('',*,*,#768,.T.);
#1059=ORIENTED_EDGE('',*,*,#769,.T.);
#1060=ORIENTED_EDGE('',*,*,#691,.T.);
#1061=ORIENTED_EDGE('',*,*,#742,.T.);
#1062=ORIENTED_EDGE('',*,*,#735,.T.);
#1063=ORIENTED_EDGE('',*,*,#741,.T.);
#1064=ORIENTED_EDGE('',*,*,#687,.T.);
#1065=ORIENTED_EDGE('',*,*,#747,.T.);
#1066=ORIENTED_EDGE('',*,*,#749,.T.);
#1067=ORIENTED_EDGE('',*,*,#754,.T.);
#1068=ORIENTED_EDGE('',*,*,#692,.T.);
#1069=ORIENTED_EDGE('',*,*,#770,.T.);
#1070=ORIENTED_EDGE('',*,*,#664,.F.);
#1071=ORIENTED_EDGE('',*,*,#771,.F.);
#1072=ORIENTED_EDGE('',*,*,#772,.F.);
#1073=ORIENTED_EDGE('',*,*,#771,.T.);
#1074=ORIENTED_EDGE('',*,*,#663,.F.);
#1075=ORIENTED_EDGE('',*,*,#773,.F.);
#1076=ORIENTED_EDGE('',*,*,#774,.F.);
#1077=ORIENTED_EDGE('',*,*,#773,.T.);
#1078=ORIENTED_EDGE('',*,*,#662,.F.);
#1079=ORIENTED_EDGE('',*,*,#775,.F.);
#1080=ORIENTED_EDGE('',*,*,#776,.F.);
#1081=ORIENTED_EDGE('',*,*,#668,.T.);
#1082=ORIENTED_EDGE('',*,*,#658,.T.);
#1083=ORIENTED_EDGE('',*,*,#769,.F.);
#1084=ORIENTED_EDGE('',*,*,#777,.T.);
#1085=ORIENTED_EDGE('',*,*,#775,.T.);
#1086=ORIENTED_EDGE('',*,*,#665,.F.);
#1087=ORIENTED_EDGE('',*,*,#770,.F.);
#1088=ORIENTED_EDGE('',*,*,#778,.F.);
#1089=ORIENTED_EDGE('',*,*,#777,.F.);
#1090=ORIENTED_EDGE('',*,*,#768,.F.);
#1091=ORIENTED_EDGE('',*,*,#697,.F.);
#1092=ORIENTED_EDGE('',*,*,#702,.F.);
#1093=ORIENTED_EDGE('',*,*,#669,.T.);
#1094=ORIENTED_EDGE('',*,*,#772,.T.);
#1095=ORIENTED_EDGE('',*,*,#774,.T.);
#1096=ORIENTED_EDGE('',*,*,#776,.T.);
#1097=ORIENTED_EDGE('',*,*,#778,.T.);
#1098=ORIENTED_EDGE('',*,*,#779,.F.);
#1099=ORIENTED_EDGE('',*,*,#780,.F.);
#1100=ORIENTED_EDGE('',*,*,#781,.T.);
#1101=ORIENTED_EDGE('',*,*,#656,.F.);
#1102=ORIENTED_EDGE('',*,*,#781,.F.);
#1103=ORIENTED_EDGE('',*,*,#782,.F.);
#1104=ORIENTED_EDGE('',*,*,#783,.T.);
#1105=ORIENTED_EDGE('',*,*,#657,.F.);
#1106=ORIENTED_EDGE('',*,*,#783,.F.);
#1107=ORIENTED_EDGE('',*,*,#784,.F.);
#1108=ORIENTED_EDGE('',*,*,#785,.T.);
#1109=ORIENTED_EDGE('',*,*,#654,.F.);
#1110=ORIENTED_EDGE('',*,*,#785,.F.);
#1111=ORIENTED_EDGE('',*,*,#786,.F.);
#1112=ORIENTED_EDGE('',*,*,#779,.T.);
#1113=ORIENTED_EDGE('',*,*,#655,.F.);
#1114=ORIENTED_EDGE('',*,*,#649,.F.);
#1115=ORIENTED_EDGE('',*,*,#666,.F.);
#1116=ORIENTED_EDGE('',*,*,#675,.F.);
#1117=ORIENTED_EDGE('',*,*,#701,.F.);
#1118=ORIENTED_EDGE('',*,*,#767,.F.);
#1119=ORIENTED_EDGE('',*,*,#780,.T.);
#1120=ORIENTED_EDGE('',*,*,#786,.T.);
#1121=ORIENTED_EDGE('',*,*,#784,.T.);
#1122=ORIENTED_EDGE('',*,*,#782,.T.);
#1123=ORIENTED_EDGE('',*,*,#685,.T.);
#1124=ORIENTED_EDGE('',*,*,#659,.F.);
#1125=ORIENTED_EDGE('',*,*,#667,.F.);
#1126=ORIENTED_EDGE('',*,*,#653,.F.);
#1127=PLANE('',#1246);
#1128=PLANE('',#1269);
#1129=PLANE('',#1270);
#1130=PLANE('',#1271);
#1131=PLANE('',#1272);
#1132=PLANE('',#1273);
#1133=PLANE('',#1276);
#1134=PLANE('',#1277);
#1135=PLANE('',#1278);
#1136=PLANE('',#1279);
#1137=PLANE('',#1280);
#1138=PLANE('',#1281);
#1139=PLANE('',#1284);
#1140=PLANE('',#1285);
#1141=PLANE('',#1286);
#1142=PLANE('',#1287);
#1143=PLANE('',#1288);
#1144=PLANE('',#1289);
#1145=PLANE('',#1294);
#1146=PLANE('',#1295);
#1147=PLANE('',#1298);
#1148=PLANE('',#1299);
#1149=PLANE('',#1300);
#1150=PLANE('',#1301);
#1151=PLANE('',#1302);
#1152=PLANE('',#1305);
#1153=PLANE('',#1307);
#1154=PLANE('',#1309);
#1155=PLANE('',#1311);
#1156=PLANE('',#1313);
#1157=PLANE('',#1314);
#1158=PLANE('',#1315);
#1159=PLANE('',#1320);
#1160=PLANE('',#1321);
#1161=PLANE('',#1322);
#1162=PLANE('',#1323);
#1163=PLANE('',#1324);
#1164=PLANE('',#1325);
#1165=PLANE('',#1326);
#1166=PLANE('',#1327);
#1167=PLANE('',#1328);
#1168=PLANE('',#1329);
#1169=PLANE('',#1330);
#1170=PLANE('',#1331);
#1171=PLANE('',#1332);
#1172=ADVANCED_FACE('',(#54,#33,#34,#35,#36,#37,#38,#39),#1127,.T.);
#1173=ADVANCED_FACE('',(#55),#19,.F.);
#1174=ADVANCED_FACE('',(#56),#20,.F.);
#1175=ADVANCED_FACE('',(#57),#21,.F.);
#1176=ADVANCED_FACE('',(#58),#22,.F.);
#1177=ADVANCED_FACE('',(#59),#23,.F.);
#1178=ADVANCED_FACE('',(#60),#24,.F.);
#1179=ADVANCED_FACE('',(#61),#1128,.T.);
#1180=ADVANCED_FACE('',(#62,#40),#1129,.T.);
#1181=ADVANCED_FACE('',(#63,#41),#1130,.T.);
#1182=ADVANCED_FACE('',(#64),#1131,.T.);
#1183=ADVANCED_FACE('',(#65,#42,#43,#44),#1132,.F.);
#1184=ADVANCED_FACE('',(#66),#1133,.F.);
#1185=ADVANCED_FACE('',(#67),#1134,.T.);
#1186=ADVANCED_FACE('',(#68),#1135,.T.);
#1187=ADVANCED_FACE('',(#69),#1136,.T.);
#1188=ADVANCED_FACE('',(#70),#1137,.T.);
#1189=ADVANCED_FACE('',(#71,#45,#46,#47),#1138,.F.);
#1190=ADVANCED_FACE('',(#72),#1139,.T.);
#1191=ADVANCED_FACE('',(#73),#1140,.T.);
#1192=ADVANCED_FACE('',(#74),#1141,.T.);
#1193=ADVANCED_FACE('',(#75),#1142,.T.);
#1194=ADVANCED_FACE('',(#76),#1143,.T.);
#1195=ADVANCED_FACE('',(#77,#48,#49),#1144,.T.);
#1196=ADVANCED_FACE('',(#78),#1145,.T.);
#1197=ADVANCED_FACE('',(#79,#50),#1146,.F.);
#1198=ADVANCED_FACE('',(#80),#1147,.F.);
#1199=ADVANCED_FACE('',(#81),#1148,.F.);
#1200=ADVANCED_FACE('',(#82),#1149,.T.);
#1201=ADVANCED_FACE('',(#83),#1150,.F.);
#1202=ADVANCED_FACE('',(#84,#51),#1151,.F.);
#1203=ADVANCED_FACE('',(#85),#1152,.F.);
#1204=ADVANCED_FACE('',(#86),#25,.F.);
#1205=ADVANCED_FACE('',(#87),#1153,.F.);
#1206=ADVANCED_FACE('',(#88),#26,.F.);
#1207=ADVANCED_FACE('',(#89),#1154,.F.);
#1208=ADVANCED_FACE('',(#90),#27,.F.);
#1209=ADVANCED_FACE('',(#91),#1155,.F.);
#1210=ADVANCED_FACE('',(#92),#28,.F.);
#1211=ADVANCED_FACE('',(#93),#1156,.F.);
#1212=ADVANCED_FACE('',(#94),#1157,.T.);
#1213=ADVANCED_FACE('',(#95),#1158,.T.);
#1214=ADVANCED_FACE('',(#96),#29,.T.);
#1215=ADVANCED_FACE('',(#97),#30,.T.);
#1216=ADVANCED_FACE('',(#98),#31,.T.);
#1217=ADVANCED_FACE('',(#99),#32,.T.);
#1218=ADVANCED_FACE('',(#100),#1159,.T.);
#1219=ADVANCED_FACE('',(#101),#1160,.F.);
#1220=ADVANCED_FACE('',(#102),#1161,.F.);
#1221=ADVANCED_FACE('',(#103),#1162,.F.);
#1222=ADVANCED_FACE('',(#104),#1163,.T.);
#1223=ADVANCED_FACE('',(#105),#1164,.F.);
#1224=ADVANCED_FACE('',(#106,#52),#1165,.T.);
#1225=ADVANCED_FACE('',(#107),#1166,.T.);
#1226=ADVANCED_FACE('',(#108),#1167,.T.);
#1227=ADVANCED_FACE('',(#109),#1168,.T.);
#1228=ADVANCED_FACE('',(#110),#1169,.T.);
#1229=ADVANCED_FACE('',(#111,#53),#1170,.T.);
#1230=ADVANCED_FACE('',(#112),#1171,.T.);
#1231=CLOSED_SHELL('',(#1172,#1173,#1174,#1175,#1176,#1177,#1178,#1179,
#1180,#1181,#1182,#1183,#1184,#1185,#1186,#1187,#1188,#1189,#1190,#1191,
#1192,#1193,#1194,#1195,#1196,#1197,#1198,#1199,#1200,#1201,#1202,#1203,
#1204,#1205,#1206,#1207,#1208,#1209,#1210,#1211,#1212,#1213,#1214,#1215,
#1216,#1217,#1218,#1219,#1220,#1221,#1222,#1223,#1224,#1225,#1226,#1227,
#1228,#1229,#1230));
#1232=DERIVED_UNIT_ELEMENT(#1234,1.);
#1233=DERIVED_UNIT_ELEMENT(#2007,-3.);
#1234=(
MASS_UNIT()
NAMED_UNIT(*)
SI_UNIT(.KILO.,.GRAM.)
);
#1235=DERIVED_UNIT((#1232,#1233));
#1236=MEASURE_REPRESENTATION_ITEM('density measure',
POSITIVE_RATIO_MEASURE(7850.),#1235);
#1237=PROPERTY_DEFINITION_REPRESENTATION(#1242,#1239);
#1238=PROPERTY_DEFINITION_REPRESENTATION(#1243,#1240);
#1239=REPRESENTATION('material name',(#1241),#2004);
#1240=REPRESENTATION('density',(#1236),#2004);
#1241=DESCRIPTIVE_REPRESENTATION_ITEM('Steel','Steel');
#1242=PROPERTY_DEFINITION('material property','material name',#2019);
#1243=PROPERTY_DEFINITION('material property','density of part',#2019);
#1244=AXIS2_PLACEMENT_3D('',#1656,#1334,#1335);
#1245=AXIS2_PLACEMENT_3D('',#1657,#1336,#1337);
#1246=AXIS2_PLACEMENT_3D('',#1658,#1338,#1339);
#1247=AXIS2_PLACEMENT_3D('',#1663,#1341,#1342);
#1248=AXIS2_PLACEMENT_3D('',#1667,#1344,#1345);
#1249=AXIS2_PLACEMENT_3D('',#1671,#1347,#1348);
#1250=AXIS2_PLACEMENT_3D('',#1674,#1350,#1351);
#1251=AXIS2_PLACEMENT_3D('',#1676,#1352,#1353);
#1252=AXIS2_PLACEMENT_3D('',#1678,#1354,#1355);
#1253=AXIS2_PLACEMENT_3D('',#1680,#1356,#1357);
#1254=AXIS2_PLACEMENT_3D('',#1682,#1358,#1359);
#1255=AXIS2_PLACEMENT_3D('',#1684,#1360,#1361);
#1256=AXIS2_PLACEMENT_3D('',#1686,#1362,#1363);
#1257=AXIS2_PLACEMENT_3D('',#1695,#1368,#1369);
#1258=AXIS2_PLACEMENT_3D('',#1698,#1371,#1372);
#1259=AXIS2_PLACEMENT_3D('',#1699,#1373,#1374);
#1260=AXIS2_PLACEMENT_3D('',#1702,#1376,#1377);
#1261=AXIS2_PLACEMENT_3D('',#1703,#1378,#1379);
#1262=AXIS2_PLACEMENT_3D('',#1706,#1381,#1382);
#1263=AXIS2_PLACEMENT_3D('',#1707,#1383,#1384);
#1264=AXIS2_PLACEMENT_3D('',#1710,#1386,#1387);
#1265=AXIS2_PLACEMENT_3D('',#1711,#1388,#1389);
#1266=AXIS2_PLACEMENT_3D('',#1714,#1391,#1392);
#1267=AXIS2_PLACEMENT_3D('',#1715,#1393,#1394);
#1268=AXIS2_PLACEMENT_3D('',#1718,#1396,#1397);
#1269=AXIS2_PLACEMENT_3D('',#1719,#1398,#1399);
#1270=AXIS2_PLACEMENT_3D('',#1728,#1404,#1405);
#1271=AXIS2_PLACEMENT_3D('',#1741,#1413,#1414);
#1272=AXIS2_PLACEMENT_3D('',#1757,#1423,#1424);
#1273=AXIS2_PLACEMENT_3D('',#1771,#1433,#1434);
#1274=AXIS2_PLACEMENT_3D('',#1777,#1437,#1438);
#1275=AXIS2_PLACEMENT_3D('',#1781,#1440,#1441);
#1276=AXIS2_PLACEMENT_3D('',#1785,#1444,#1445);
#1277=AXIS2_PLACEMENT_3D('',#1794,#1450,#1451);
#1278=AXIS2_PLACEMENT_3D('',#1796,#1453,#1454);
#1279=AXIS2_PLACEMENT_3D('',#1814,#1464,#1465);
#1280=AXIS2_PLACEMENT_3D('',#1823,#1470,#1471);
#1281=AXIS2_PLACEMENT_3D('',#1829,#1475,#1476);
#1282=AXIS2_PLACEMENT_3D('',#1836,#1480,#1481);
#1283=AXIS2_PLACEMENT_3D('',#1839,#1483,#1484);
#1284=AXIS2_PLACEMENT_3D('',#1840,#1485,#1486);
#1285=AXIS2_PLACEMENT_3D('',#1844,#1489,#1490);
#1286=AXIS2_PLACEMENT_3D('',#1850,#1494,#1495);
#1287=AXIS2_PLACEMENT_3D('',#1854,#1498,#1499);
#1288=AXIS2_PLACEMENT_3D('',#1858,#1502,#1503);
#1289=AXIS2_PLACEMENT_3D('',#1862,#1506,#1507);
#1290=AXIS2_PLACEMENT_3D('',#1871,#1513,#1514);
#1291=AXIS2_PLACEMENT_3D('',#1874,#1516,#1517);
#1292=AXIS2_PLACEMENT_3D('',#1879,#1519,#1520);
#1293=AXIS2_PLACEMENT_3D('',#1882,#1522,#1523);
#1294=AXIS2_PLACEMENT_3D('',#1883,#1524,#1525);
#1295=AXIS2_PLACEMENT_3D('',#1889,#1529,#1530);
#1296=AXIS2_PLACEMENT_3D('',#1899,#1535,#1536);
#1297=AXIS2_PLACEMENT_3D('',#1902,#1538,#1539);
#1298=AXIS2_PLACEMENT_3D('',#1903,#1540,#1541);
#1299=AXIS2_PLACEMENT_3D('',#1905,#1543,#1544);
#1300=AXIS2_PLACEMENT_3D('',#1907,#1546,#1547);
#1301=AXIS2_PLACEMENT_3D('',#1913,#1551,#1552);
#1302=AXIS2_PLACEMENT_3D('',#1917,#1555,#1556);
#1303=AXIS2_PLACEMENT_3D('',#1925,#1560,#1561);
#1304=AXIS2_PLACEMENT_3D('',#1928,#1563,#1564);
#1305=AXIS2_PLACEMENT_3D('',#1929,#1565,#1566);
#1306=AXIS2_PLACEMENT_3D('',#1931,#1568,#1569);
#1307=AXIS2_PLACEMENT_3D('',#1934,#1572,#1573);
#1308=AXIS2_PLACEMENT_3D('',#1936,#1575,#1576);
#1309=AXIS2_PLACEMENT_3D('',#1938,#1578,#1579);
#1310=AXIS2_PLACEMENT_3D('',#1939,#1580,#1581);
#1311=AXIS2_PLACEMENT_3D('',#1942,#1584,#1585);
#1312=AXIS2_PLACEMENT_3D('',#1944,#1587,#1588);
#1313=AXIS2_PLACEMENT_3D('',#1946,#1590,#1591);
#1314=AXIS2_PLACEMENT_3D('',#1947,#1592,#1593);
#1315=AXIS2_PLACEMENT_3D('',#1950,#1596,#1597);
#1316=AXIS2_PLACEMENT_3D('',#1953,#1600,#1601);
#1317=AXIS2_PLACEMENT_3D('',#1954,#1602,#1603);
#1318=AXIS2_PLACEMENT_3D('',#1955,#1604,#1605);
#1319=AXIS2_PLACEMENT_3D('',#1956,#1606,#1607);
#1320=AXIS2_PLACEMENT_3D('',#1957,#1608,#1609);
#1321=AXIS2_PLACEMENT_3D('',#1962,#1613,#1614);
#1322=AXIS2_PLACEMENT_3D('',#1968,#1618,#1619);
#1323=AXIS2_PLACEMENT_3D('',#1972,#1622,#1623);
#1324=AXIS2_PLACEMENT_3D('',#1976,#1626,#1627);
#1325=AXIS2_PLACEMENT_3D('',#1978,#1629,#1630);
#1326=AXIS2_PLACEMENT_3D('',#1980,#1632,#1633);
#1327=AXIS2_PLACEMENT_3D('',#1981,#1634,#1635);
#1328=AXIS2_PLACEMENT_3D('',#1987,#1639,#1640);
#1329=AXIS2_PLACEMENT_3D('',#1991,#1643,#1644);
#1330=AXIS2_PLACEMENT_3D('',#1995,#1647,#1648);
#1331=AXIS2_PLACEMENT_3D('',#1997,#1650,#1651);
#1332=AXIS2_PLACEMENT_3D('',#1998,#1652,#1653);
#1333=AXIS2_PLACEMENT_3D('',#1999,#1654,#1655);
#1334=DIRECTION('axis',(0.,0.,1.));
#1335=DIRECTION('refdir',(1.,0.,0.));
#1336=DIRECTION('axis',(0.,0.,1.));
#1337=DIRECTION('refdir',(1.,0.,0.));
#1338=DIRECTION('center_axis',(0.,0.,1.));
#1339=DIRECTION('ref_axis',(1.,0.,0.));
#1340=DIRECTION('',(-1.,0.,0.));
#1341=DIRECTION('center_axis',(0.,0.,1.));
#1342=DIRECTION('ref_axis',(1.,0.,0.));
#1343=DIRECTION('',(0.,-1.,0.));
#1344=DIRECTION('center_axis',(0.,0.,1.));
#1345=DIRECTION('ref_axis',(1.,0.,0.));
#1346=DIRECTION('',(1.,0.,0.));
#1347=DIRECTION('center_axis',(0.,0.,1.));
#1348=DIRECTION('ref_axis',(1.,0.,0.));
#1349=DIRECTION('',(-3.70074341541719E-16,1.,0.));
#1350=DIRECTION('center_axis',(0.,0.,1.));
#1351=DIRECTION('ref_axis',(1.,0.,0.));
#1352=DIRECTION('center_axis',(0.,0.,-1.));
#1353=DIRECTION('ref_axis',(-1.,0.,0.));
#1354=DIRECTION('center_axis',(0.,0.,-1.));
#1355=DIRECTION('ref_axis',(-1.,0.,0.));
#1356=DIRECTION('center_axis',(0.,0.,-1.));
#1357=DIRECTION('ref_axis',(-1.,0.,0.));
#1358=DIRECTION('center_axis',(0.,0.,-1.));
#1359=DIRECTION('ref_axis',(-1.,0.,0.));
#1360=DIRECTION('center_axis',(0.,0.,-1.));
#1361=DIRECTION('ref_axis',(-1.,0.,0.));
#1362=DIRECTION('center_axis',(0.,0.,-1.));
#1363=DIRECTION('ref_axis',(-1.,0.,0.));
#1364=DIRECTION('',(1.,6.08127780342431E-17,0.));
#1365=DIRECTION('',(-1.0449157878825E-15,-1.,0.));
#1366=DIRECTION('',(-1.,-4.98976640280969E-17,0.));
#1367=DIRECTION('',(1.0449157878825E-15,1.,0.));
#1368=DIRECTION('center_axis',(0.,0.,-1.));
#1369=DIRECTION('ref_axis',(-1.,0.,0.));
#1370=DIRECTION('',(0.,0.,-1.));
#1371=DIRECTION('center_axis',(0.,0.,1.));
#1372=DIRECTION('ref_axis',(-1.,0.,0.));
#1373=DIRECTION('center_axis',(0.,0.,-1.));
#1374=DIRECTION('ref_axis',(-1.,0.,0.));
#1375=DIRECTION('',(0.,0.,-1.));
#1376=DIRECTION('center_axis',(0.,0.,1.));
#1377=DIRECTION('ref_axis',(-1.,0.,0.));
#1378=DIRECTION('center_axis',(0.,0.,-1.));
#1379=DIRECTION('ref_axis',(-1.,0.,0.));
#1380=DIRECTION('',(0.,0.,-1.));
#1381=DIRECTION('center_axis',(0.,0.,1.));
#1382=DIRECTION('ref_axis',(-1.,0.,0.));
#1383=DIRECTION('center_axis',(0.,0.,-1.));
#1384=DIRECTION('ref_axis',(-1.,0.,0.));
#1385=DIRECTION('',(0.,0.,-1.));
#1386=DIRECTION('center_axis',(0.,0.,1.));
#1387=DIRECTION('ref_axis',(-1.,0.,0.));
#1388=DIRECTION('center_axis',(0.,0.,-1.));
#1389=DIRECTION('ref_axis',(-1.,0.,0.));
#1390=DIRECTION('',(0.,0.,-1.));
#1391=DIRECTION('center_axis',(0.,0.,1.));
#1392=DIRECTION('ref_axis',(-1.,0.,0.));
#1393=DIRECTION('center_axis',(0.,0.,-1.));
#1394=DIRECTION('ref_axis',(-1.,0.,0.));
#1395=DIRECTION('',(0.,0.,-1.));
#1396=DIRECTION('center_axis',(0.,0.,1.));
#1397=DIRECTION('ref_axis',(-1.,0.,0.));
#1398=DIRECTION('center_axis',(-3.98315324535265E-16,0.896926373576487,
-0.442179918565884));
#1399=DIRECTION('ref_axis',(-1.571134079426E-32,0.442179918565884,0.896926373576487));
#1400=DIRECTION('',(4.6204077799409E-16,0.442179918565884,0.896926373576487));
#1401=DIRECTION('',(1.,4.44089209850063E-16,0.));
#1402=DIRECTION('',(0.,-0.442179918565884,-0.896926373576487));
#1403=DIRECTION('',(-1.,-4.44089209850063E-16,0.));
#1404=DIRECTION('center_axis',(-1.,1.0449157878825E-15,0.));
#1405=DIRECTION('ref_axis',(-1.0449157878825E-15,-1.,0.));
#1406=DIRECTION('',(0.,0.,1.));
#1407=DIRECTION('',(0.,0.,1.));
#1408=DIRECTION('',(1.0449157878825E-15,1.,0.));
#1409=DIRECTION('',(4.6204077799409E-16,0.442179918565884,0.896926373576487));
#1410=DIRECTION('',(1.72613473186775E-31,1.65193669373656E-16,1.));
#1411=DIRECTION('',(-1.0449157878825E-15,-1.,6.94595099011316E-17));
#1412=DIRECTION('',(-1.63766399332586E-31,-1.56726887689634E-16,-1.));
#1413=DIRECTION('center_axis',(1.,-1.0449157878825E-15,0.));
#1414=DIRECTION('ref_axis',(1.0449157878825E-15,1.,0.));
#1415=DIRECTION('',(-4.6204077799409E-16,-0.442179918565884,-0.896926373576487));
#1416=DIRECTION('',(-1.0449157878825E-15,-1.,0.));
#1417=DIRECTION('',(0.,0.,-1.));
#1418=DIRECTION('',(0.,0.,1.));
#1419=DIRECTION('',(1.0449157878825E-15,1.,-6.94595099011316E-17));
#1420=DIRECTION('',(-1.72613473186775E-31,-1.65193669373656E-16,-1.));
#1421=DIRECTION('',(-4.6204077799409E-16,-0.442179918565884,-0.896926373576487));
#1422=DIRECTION('',(1.63766399332586E-31,1.56726887689634E-16,1.));
#1423=DIRECTION('center_axis',(0.,1.,0.));
#1424=DIRECTION('ref_axis',(1.,0.,0.));
#1425=DIRECTION('',(0.,0.,-1.));
#1426=DIRECTION('',(-1.,1.0449157878825E-15,0.));
#1427=DIRECTION('',(1.,4.44089209850063E-16,0.));
#1428=DIRECTION('',(0.,0.,-1.));
#1429=DIRECTION('',(1.,0.,0.));
#1430=DIRECTION('',(0.,0.,1.));
#1431=DIRECTION('',(0.,0.,1.));
#1432=DIRECTION('',(-1.,-3.70074341541719E-16,0.));
#1433=DIRECTION('center_axis',(0.,0.,1.));
#1434=DIRECTION('ref_axis',(1.,0.,0.));
#1435=DIRECTION('',(1.,1.46403036214306E-16,0.));
#1436=DIRECTION('',(0.,1.,0.));
#1437=DIRECTION('center_axis',(0.,0.,1.));
#1438=DIRECTION('ref_axis',(1.,0.,0.));
#1439=DIRECTION('',(3.70074341541719E-16,-1.,0.));
#1440=DIRECTION('center_axis',(0.,0.,1.));
#1441=DIRECTION('ref_axis',(1.,0.,0.));
#1442=DIRECTION('',(-1.,-3.70074341541719E-16,0.));
#1443=DIRECTION('',(0.906307787036658,0.422618261740683,0.));
#1444=DIRECTION('center_axis',(0.,0.,1.));
#1445=DIRECTION('ref_axis',(1.,0.,0.));
#1446=DIRECTION('',(0.906307787036652,-0.422618261740694,0.));
#1447=DIRECTION('',(-1.,0.,0.));
#1448=DIRECTION('',(0.906307787036653,0.422618261740692,0.));
#1449=DIRECTION('',(1.,1.46403036214306E-16,0.));
#1450=DIRECTION('center_axis',(6.08127780342431E-17,-1.,0.));
#1451=DIRECTION('ref_axis',(1.,6.08127780342431E-17,0.));
#1452=DIRECTION('',(-1.,1.0449157878825E-15,0.));
#1453=DIRECTION('center_axis',(-4.98976640280969E-17,1.,0.));
#1454=DIRECTION('ref_axis',(-1.,-4.98976640280969E-17,0.));
#1455=DIRECTION('',(0.,0.,-1.));
#1456=DIRECTION('',(1.,4.98976640280969E-17,0.));
#1457=DIRECTION('',(0.,0.,1.));
#1458=DIRECTION('',(-1.,-4.98976640280969E-17,0.));
#1459=DIRECTION('',(0.,0.,-1.));
#1460=DIRECTION('',(1.,4.98976640280969E-17,0.));
#1461=DIRECTION('',(1.,4.98976640280969E-17,0.));
#1462=DIRECTION('',(0.,0.,1.));
#1463=DIRECTION('',(-1.,-4.98976640280969E-17,0.));
#1464=DIRECTION('center_axis',(1.46403036214306E-16,-1.,0.));
#1465=DIRECTION('ref_axis',(-1.,-1.46403036214306E-16,0.));
#1466=DIRECTION('',(0.,0.,1.));
#1467=DIRECTION('',(1.,1.46403036214306E-16,0.));
#1468=DIRECTION('',(0.,0.,-1.));
#1469=DIRECTION('',(1.,4.44089209850063E-16,0.));
#1470=DIRECTION('center_axis',(1.46403036214306E-16,-1.,0.));
#1471=DIRECTION('ref_axis',(-1.,-1.46403036214306E-16,0.));
#1472=DIRECTION('',(0.,0.,-1.));
#1473=DIRECTION('',(-1.,-1.46403036214306E-16,0.));
#1474=DIRECTION('',(0.,0.,1.));
#1475=DIRECTION('center_axis',(0.,0.,1.));
#1476=DIRECTION('ref_axis',(1.,0.,0.));
#1477=DIRECTION('',(4.44089209850063E-16,-1.,0.));
#1478=DIRECTION('',(0.906307787036657,-0.422618261740685,0.));
#1479=DIRECTION('',(-1.,0.,0.));
#1480=DIRECTION('center_axis',(0.,0.,1.));
#1481=DIRECTION('ref_axis',(1.,0.,0.));
#1482=DIRECTION('',(0.,1.,0.));
#1483=DIRECTION('center_axis',(0.,0.,1.));
#1484=DIRECTION('ref_axis',(1.,0.,0.));
#1485=DIRECTION('center_axis',(-0.422618261740685,-0.906307787036657,0.));
#1486=DIRECTION('ref_axis',(-0.906307787036657,0.422618261740685,0.));
#1487=DIRECTION('',(0.906307787036657,-0.422618261740685,0.));
#1488=DIRECTION('',(0.,0.,-1.));
#1489=DIRECTION('center_axis',(0.422618261740692,-0.906307787036653,0.));
#1490=DIRECTION('ref_axis',(-0.906307787036653,-0.422618261740692,0.));
#1491=DIRECTION('',(0.,0.,-1.));
#1492=DIRECTION('',(0.906307787036653,0.422618261740692,0.));
#1493=DIRECTION('',(0.,0.,1.));
#1494=DIRECTION('center_axis',(1.46403036214306E-16,-1.,0.));
#1495=DIRECTION('ref_axis',(-1.,-1.46403036214306E-16,0.));
#1496=DIRECTION('',(0.,0.,1.));
#1497=DIRECTION('',(-1.,-1.46403036214306E-16,0.));
#1498=DIRECTION('center_axis',(-0.422618261740694,-0.906307787036653,0.));
#1499=DIRECTION('ref_axis',(-0.906307787036653,0.422618261740694,0.));
#1500=DIRECTION('',(0.906307787036652,-0.422618261740694,0.));
#1501=DIRECTION('',(0.,0.,1.));
#1502=DIRECTION('center_axis',(0.422618261740683,-0.906307787036658,0.));
#1503=DIRECTION('ref_axis',(-0.906307787036658,-0.422618261740683,0.));
#1504=DIRECTION('',(0.,0.,-1.));
#1505=DIRECTION('',(0.906307787036658,0.422618261740683,0.));
#1506=DIRECTION('center_axis',(0.,-1.,0.));
#1507=DIRECTION('ref_axis',(-1.,0.,0.));
#1508=DIRECTION('',(0.,0.,1.));
#1509=DIRECTION('',(1.,0.,0.));
#1510=DIRECTION('',(1.,0.,0.));
#1511=DIRECTION('',(0.,0.,1.));
#1512=DIRECTION('',(-2.96059473233374E-15,0.,1.));
#1513=DIRECTION('center_axis',(0.,1.,0.));
#1514=DIRECTION('ref_axis',(0.,0.,-1.));
#1515=DIRECTION('',(2.96059473233374E-15,0.,-1.));
#1516=DIRECTION('center_axis',(0.,1.,0.));
#1517=DIRECTION('ref_axis',(0.,0.,-1.));
#1518=DIRECTION('',(0.,0.,1.));
#1519=DIRECTION('center_axis',(0.,1.,0.));
#1520=DIRECTION('ref_axis',(1.,0.,0.));
#1521=DIRECTION('',(0.,0.,-1.));
#1522=DIRECTION('center_axis',(0.,1.,0.));
#1523=DIRECTION('ref_axis',(-1.,0.,0.));
#1524=DIRECTION('center_axis',(0.,0.,-1.));
#1525=DIRECTION('ref_axis',(-1.,0.,0.));
#1526=DIRECTION('',(-0.906307787036645,-0.42261826174071,0.));
#1527=DIRECTION('',(-1.,-5.59985405988287E-16,0.));
#1528=DIRECTION('',(-0.906307787036663,0.422618261740671,0.));
#1529=DIRECTION('center_axis',(5.59985405988287E-16,-1.,0.));
#1530=DIRECTION('ref_axis',(1.,5.59985405988287E-16,0.));
#1531=DIRECTION('',(0.,0.,1.));
#1532=DIRECTION('',(1.,5.59985405988287E-16,0.));
#1533=DIRECTION('',(0.,0.,1.));
#1534=DIRECTION('',(2.96059473233374E-15,1.65788984315269E-30,-1.));
#1535=DIRECTION('center_axis',(5.59985405988287E-16,-1.,0.));
#1536=DIRECTION('ref_axis',(1.,5.59985405988287E-16,0.));
#1537=DIRECTION('',(-2.96059473233374E-15,-1.65788984315269E-30,1.));
#1538=DIRECTION('center_axis',(5.59985405988287E-16,-1.,0.));
#1539=DIRECTION('ref_axis',(1.,5.59985405988287E-16,0.));
#1540=DIRECTION('center_axis',(0.42261826174071,-0.906307787036645,0.));
#1541=DIRECTION('ref_axis',(0.906307787036645,0.42261826174071,0.));
#1542=DIRECTION('',(0.906307787036645,0.42261826174071,0.));
#1543=DIRECTION('center_axis',(-0.422618261740671,-0.906307787036663,0.));
#1544=DIRECTION('ref_axis',(0.906307787036663,-0.422618261740671,0.));
#1545=DIRECTION('',(0.906307787036663,-0.422618261740671,0.));
#1546=DIRECTION('center_axis',(0.,0.,-1.));
#1547=DIRECTION('ref_axis',(-1.,0.,0.));
#1548=DIRECTION('',(-0.906307787036657,-0.422618261740685,0.));
#1549=DIRECTION('',(-1.,-5.59985405988287E-16,0.));
#1550=DIRECTION('',(-0.906307787036651,0.422618261740696,0.));
#1551=DIRECTION('center_axis',(-0.422618261740696,-0.906307787036652,0.));
#1552=DIRECTION('ref_axis',(0.906307787036652,-0.422618261740696,0.));
#1553=DIRECTION('',(0.,0.,1.));
#1554=DIRECTION('',(0.906307787036651,-0.422618261740696,0.));
#1555=DIRECTION('center_axis',(5.59985405988287E-16,-1.,0.));
#1556=DIRECTION('ref_axis',(1.,5.59985405988287E-16,0.));
#1557=DIRECTION('',(0.,0.,1.));
#1558=DIRECTION('',(1.,5.59985405988287E-16,0.));
#1559=DIRECTION('',(0.,0.,-1.));
#1560=DIRECTION('center_axis',(5.59985405988287E-16,-1.,0.));
#1561=DIRECTION('ref_axis',(-1.,-5.59985405988287E-16,0.));
#1562=DIRECTION('',(0.,0.,1.));
#1563=DIRECTION('center_axis',(5.59985405988287E-16,-1.,0.));
#1564=DIRECTION('ref_axis',(1.,5.59985405988287E-16,0.));
#1565=DIRECTION('center_axis',(0.422618261740685,-0.906307787036657,0.));
#1566=DIRECTION('ref_axis',(0.906307787036657,0.422618261740685,0.));
#1567=DIRECTION('',(0.906307787036657,0.422618261740685,0.));
#1568=DIRECTION('center_axis',(0.,1.,0.));
#1569=DIRECTION('ref_axis',(1.,0.,0.));
#1570=DIRECTION('',(0.,1.,0.));
#1571=DIRECTION('',(0.,1.,0.));
#1572=DIRECTION('center_axis',(1.,0.,2.96059473233374E-15));
#1573=DIRECTION('ref_axis',(2.96059473233374E-15,0.,-1.));
#1574=DIRECTION('',(0.,1.,0.));
#1575=DIRECTION('center_axis',(0.,1.,0.));
#1576=DIRECTION('ref_axis',(-1.,0.,0.));
#1577=DIRECTION('',(0.,1.,0.));
#1578=DIRECTION('center_axis',(-1.,0.,-2.96059473233374E-15));
#1579=DIRECTION('ref_axis',(-2.96059473233374E-15,0.,1.));
#1580=DIRECTION('center_axis',(0.,1.,0.));
#1581=DIRECTION('ref_axis',(1.,0.,0.));
#1582=DIRECTION('',(0.,1.,0.));
#1583=DIRECTION('',(0.,1.,0.));
#1584=DIRECTION('center_axis',(1.,0.,0.));
#1585=DIRECTION('ref_axis',(0.,0.,-1.));
#1586=DIRECTION('',(0.,1.,0.));
#1587=DIRECTION('center_axis',(0.,1.,0.));
#1588=DIRECTION('ref_axis',(-1.,0.,0.));
#1589=DIRECTION('',(0.,1.,0.));
#1590=DIRECTION('center_axis',(-1.,0.,0.));
#1591=DIRECTION('ref_axis',(0.,0.,1.));
#1592=DIRECTION('center_axis',(-1.,0.,0.));
#1593=DIRECTION('ref_axis',(0.,-1.,0.));
#1594=DIRECTION('',(0.,0.,1.));
#1595=DIRECTION('',(0.,0.,1.));
#1596=DIRECTION('center_axis',(1.,3.70074341541719E-16,0.));
#1597=DIRECTION('ref_axis',(-3.70074341541719E-16,1.,0.));
#1598=DIRECTION('',(0.,0.,1.));
#1599=DIRECTION('',(0.,0.,1.));
#1600=DIRECTION('center_axis',(0.,0.,1.));
#1601=DIRECTION('ref_axis',(1.,0.,0.));
#1602=DIRECTION('center_axis',(0.,0.,1.));
#1603=DIRECTION('ref_axis',(1.,0.,0.));
#1604=DIRECTION('center_axis',(0.,0.,1.));
#1605=DIRECTION('ref_axis',(1.,0.,0.));
#1606=DIRECTION('center_axis',(0.,0.,1.));
#1607=DIRECTION('ref_axis',(1.,0.,0.));
#1608=DIRECTION('center_axis',(0.,0.,-1.));
#1609=DIRECTION('ref_axis',(-1.,0.,0.));
#1610=DIRECTION('',(0.,-1.,0.));
#1611=DIRECTION('',(-4.44089209850063E-16,1.,0.));
#1612=DIRECTION('',(1.,4.44089209850063E-16,0.));
#1613=DIRECTION('center_axis',(-3.98315324535265E-16,0.896926373576487,
-0.442179918565884));
#1614=DIRECTION('ref_axis',(1.84783095010565E-31,0.442179918565884,0.896926373576487));
#1615=DIRECTION('',(1.,4.44089209850063E-16,0.));
#1616=DIRECTION('',(1.,4.44089209850063E-16,0.));
#1617=DIRECTION('',(-1.96367330647488E-16,0.442179918565884,0.896926373576487));
#1618=DIRECTION('center_axis',(-4.44089209850063E-16,1.,-1.65193669373656E-16));
#1619=DIRECTION('ref_axis',(-1.,-4.44089209850063E-16,0.));
#1620=DIRECTION('',(1.,4.44089209850063E-16,0.));
#1621=DIRECTION('',(-7.33607261043795E-32,1.65193669373656E-16,1.));
#1622=DIRECTION('center_axis',(-3.08462188685662E-32,6.94595099011316E-17,
1.));
#1623=DIRECTION('ref_axis',(0.,-1.,6.94595099011316E-17));
#1624=DIRECTION('',(1.,4.44089209850063E-16,0.));
#1625=DIRECTION('',(4.44089209850063E-16,-1.,6.94595099011316E-17));
#1626=DIRECTION('center_axis',(-3.98315324535265E-16,0.896926373576487,
-0.442179918565884));
#1627=DIRECTION('ref_axis',(-1.571134079426E-32,0.442179918565884,0.896926373576487));
#1628=DIRECTION('',(-1.96367330647488E-16,0.442179918565884,0.896926373576487));
#1629=DIRECTION('center_axis',(4.44089209850063E-16,-1.,1.56726887689634E-16));
#1630=DIRECTION('ref_axis',(1.,4.44089209850063E-16,0.));
#1631=DIRECTION('',(6.96007197163492E-32,-1.56726887689634E-16,-1.));
#1632=DIRECTION('center_axis',(-1.,-4.44089209850063E-16,0.));
#1633=DIRECTION('ref_axis',(4.44089209850063E-16,-1.,0.));
#1634=DIRECTION('center_axis',(3.08462188685662E-32,-6.94595099011316E-17,
-1.));
#1635=DIRECTION('ref_axis',(0.,1.,-6.94595099011316E-17));
#1636=DIRECTION('',(-1.,-4.44089209850063E-16,0.));
#1637=DIRECTION('',(0.,1.,-6.94595099011316E-17));
#1638=DIRECTION('',(-1.,-4.44089209850063E-16,0.));
#1639=DIRECTION('center_axis',(-4.44089209850063E-16,1.,-1.56726887689634E-16));
#1640=DIRECTION('ref_axis',(-1.,-4.44089209850063E-16,0.));
#1641=DIRECTION('',(0.,1.56726887689634E-16,1.));
#1642=DIRECTION('',(-1.,-4.44089209850063E-16,0.));
#1643=DIRECTION('center_axis',(3.98315324535265E-16,-0.896926373576487,
0.442179918565884));
#1644=DIRECTION('ref_axis',(1.571134079426E-32,-0.442179918565884,-0.896926373576487));
#1645=DIRECTION('',(0.,-0.442179918565884,-0.896926373576487));
#1646=DIRECTION('',(-1.,-4.44089209850063E-16,0.));
#1647=DIRECTION('center_axis',(4.44089209850063E-16,-1.,1.65193669373656E-16));
#1648=DIRECTION('ref_axis',(1.,4.44089209850063E-16,0.));
#1649=DIRECTION('',(0.,-1.65193669373656E-16,-1.));
#1650=DIRECTION('center_axis',(1.,0.,0.));
#1651=DIRECTION('ref_axis',(0.,-1.,0.));
#1652=DIRECTION('center_axis',(0.,0.,-1.));
#1653=DIRECTION('ref_axis',(-1.,0.,0.));
#1654=DIRECTION('',(0.,0.,1.));
#1655=DIRECTION('',(1.,0.,0.));
#1656=CARTESIAN_POINT('',(0.,0.,0.));
#1657=CARTESIAN_POINT('',(0.,0.,0.));
#1658=CARTESIAN_POINT('Origin',(0.,-20.,5.));
#1659=CARTESIAN_POINT('',(121.9988,1.47460000000009,5.));
#1660=CARTESIAN_POINT('',(-121.9988,1.47460000000009,5.));
#1661=CARTESIAN_POINT('',(-126.9988,1.47460000000009,5.));
#1662=CARTESIAN_POINT('',(-126.9988,-3.52539999999991,5.));
#1663=CARTESIAN_POINT('Origin',(-121.9988,-3.52539999999991,5.));
#1664=CARTESIAN_POINT('',(-126.9988,-37.98,5.));
#1665=CARTESIAN_POINT('',(-126.9988,-44.,5.));
#1666=CARTESIAN_POINT('',(-121.9988,-42.98,5.));
#1667=CARTESIAN_POINT('Origin',(-121.9988,-37.98,5.));
#1668=CARTESIAN_POINT('',(121.9988,-42.98,5.));
#1669=CARTESIAN_POINT('',(-126.9988,-42.98,5.));
#1670=CARTESIAN_POINT('',(126.9988,-37.98,5.));
#1671=CARTESIAN_POINT('Origin',(121.9988,-37.98,5.));
#1672=CARTESIAN_POINT('',(126.9988,-3.52539999999991,5.));
#1673=CARTESIAN_POINT('',(126.9988,4.0000000000001,5.));
#1674=CARTESIAN_POINT('Origin',(121.9988,-3.52539999999991,5.));
#1675=CARTESIAN_POINT('',(121.2988,-36.63,5.));
#1676=CARTESIAN_POINT('Origin',(118.4988,-36.63,5.));
#1677=CARTESIAN_POINT('',(-115.6988,-4.87539999999991,5.));
#1678=CARTESIAN_POINT('Origin',(-118.4988,-4.87539999999991,5.));
#1679=CARTESIAN_POINT('',(121.2988,-20.755,5.));
#1680=CARTESIAN_POINT('Origin',(118.4988,-20.755,5.));
#1681=CARTESIAN_POINT('',(-115.6988,-36.63,5.));
#1682=CARTESIAN_POINT('Origin',(-118.4988,-36.63,5.));
#1683=CARTESIAN_POINT('',(-115.6988,-20.755,5.));
#1684=CARTESIAN_POINT('Origin',(-118.4988,-20.755,5.));
#1685=CARTESIAN_POINT('',(121.2988,-4.87539999999991,5.));
#1686=CARTESIAN_POINT('Origin',(118.4988,-4.87539999999991,5.));
#1687=CARTESIAN_POINT('',(-89.,-1.49999999999992,5.));
#1688=CARTESIAN_POINT('',(89.,-1.49999999999991,5.));
#1689=CARTESIAN_POINT('',(-89.,-1.49999999999992,5.));
#1690=CARTESIAN_POINT('',(89.,-35.5,5.));
#1691=CARTESIAN_POINT('',(89.,-1.49999999999991,5.));
#1692=CARTESIAN_POINT('',(-89.,-35.5,5.));
#1693=CARTESIAN_POINT('',(89.,-35.5,5.));
#1694=CARTESIAN_POINT('',(-89.,-35.5,5.));
#1695=CARTESIAN_POINT('Origin',(118.4988,-36.63,3.));
#1696=CARTESIAN_POINT('',(121.2988,-36.63,0.));
#1697=CARTESIAN_POINT('',(121.2988,-36.63,3.));
#1698=CARTESIAN_POINT('Origin',(118.4988,-36.63,0.));
#1699=CARTESIAN_POINT('Origin',(-118.4988,-4.87539999999991,3.));
#1700=CARTESIAN_POINT('',(-115.6988,-4.87539999999991,0.));
#1701=CARTESIAN_POINT('',(-115.6988,-4.87539999999991,3.));
#1702=CARTESIAN_POINT('Origin',(-118.4988,-4.87539999999991,0.));
#1703=CARTESIAN_POINT('Origin',(118.4988,-20.755,3.));
#1704=CARTESIAN_POINT('',(121.2988,-20.755,0.));
#1705=CARTESIAN_POINT('',(121.2988,-20.755,3.));
#1706=CARTESIAN_POINT('Origin',(118.4988,-20.755,0.));
#1707=CARTESIAN_POINT('Origin',(-118.4988,-36.63,3.));
#1708=CARTESIAN_POINT('',(-115.6988,-36.63,0.));
#1709=CARTESIAN_POINT('',(-115.6988,-36.63,3.));
#1710=CARTESIAN_POINT('Origin',(-118.4988,-36.63,0.));
#1711=CARTESIAN_POINT('Origin',(-118.4988,-20.755,3.));
#1712=CARTESIAN_POINT('',(-115.6988,-20.755,0.));
#1713=CARTESIAN_POINT('',(-115.6988,-20.755,3.));
#1714=CARTESIAN_POINT('Origin',(-118.4988,-20.755,0.));
#1715=CARTESIAN_POINT('Origin',(118.4988,-4.87539999999991,3.));
#1716=CARTESIAN_POINT('',(121.2988,-4.87539999999991,0.));
#1717=CARTESIAN_POINT('',(121.2988,-4.87539999999991,3.));
#1718=CARTESIAN_POINT('Origin',(118.4988,-4.87539999999991,0.));
#1719=CARTESIAN_POINT('Origin',(-99.,-17.0127,-62.5));
#1720=CARTESIAN_POINT('',(89.,-35.5,-100.));
#1721=CARTESIAN_POINT('',(89.,1.4745999999999,-25.));
#1722=CARTESIAN_POINT('',(89.,10.8080678157842,-6.06781179015323));
#1723=CARTESIAN_POINT('',(99.,1.47460000000009,-25.));
#1724=CARTESIAN_POINT('',(-99.,1.47460000000009,-25.));
#1725=CARTESIAN_POINT('',(99.,-35.5,-100.));
#1726=CARTESIAN_POINT('',(99.,11.394637056933,-4.8780032976703));
#1727=CARTESIAN_POINT('',(163.,-35.5,-100.));
#1728=CARTESIAN_POINT('Origin',(89.,-1.49999999999991,0.));
#1729=CARTESIAN_POINT('',(89.,-35.5,-100.));
#1730=CARTESIAN_POINT('',(89.,-1.5000000000001,-25.));
#1731=CARTESIAN_POINT('',(89.,-1.49999999999991,0.));
#1732=CARTESIAN_POINT('',(89.,-0.012700000000103,-25.));
#1733=CARTESIAN_POINT('',(89.,-31.,-73.9106906561716));
#1734=CARTESIAN_POINT('',(89.,-6.02539999999982,-23.2517247714831));
#1735=CARTESIAN_POINT('',(89.,4.08112001396055,-2.7514624009091));
#1736=CARTESIAN_POINT('',(89.,-6.02539999999983,-7.5));
#1737=CARTESIAN_POINT('',(89.,-6.02539999999982,7.47567431383529E-16));
#1738=CARTESIAN_POINT('',(89.,-31.,-7.5));
#1739=CARTESIAN_POINT('',(89.,-1.49999999999991,-7.5));
#1740=CARTESIAN_POINT('',(89.,-31.,4.62344318684421E-15));
#1741=CARTESIAN_POINT('Origin',(-89.,-35.5,0.));
#1742=CARTESIAN_POINT('',(-89.,1.47460000000009,-25.));
#1743=CARTESIAN_POINT('',(-89.,-35.5,-100.));
#1744=CARTESIAN_POINT('',(-89.,4.16028308276446,-19.5523080382932));
#1745=CARTESIAN_POINT('',(-89.,-1.49999999999992,-25.));
#1746=CARTESIAN_POINT('',(-89.,-0.012699999999917,-25.));
#1747=CARTESIAN_POINT('',(-89.,-1.49999999999992,0.));
#1748=CARTESIAN_POINT('',(-89.,-35.5,0.));
#1749=CARTESIAN_POINT('',(-89.,-31.,-7.5));
#1750=CARTESIAN_POINT('',(-89.,-6.0253999999998,-7.5));
#1751=CARTESIAN_POINT('',(-89.,-35.5,-7.5));
#1752=CARTESIAN_POINT('',(-89.,-6.0253999999999,-23.2517247714831));
#1753=CARTESIAN_POINT('',(-89.,-6.0253999999999,-4.86901732732078E-15));
#1754=CARTESIAN_POINT('',(-89.,-31.,-73.9106906561716));
#1755=CARTESIAN_POINT('',(-89.,-2.56666471905921,-16.235958649049));
#1756=CARTESIAN_POINT('',(-89.,-31.,-7.05270994603353E-16));
#1757=CARTESIAN_POINT('Origin',(-91.,1.47460000000009,0.));
#1758=CARTESIAN_POINT('',(99.,1.47460000000009,0.));
#1759=CARTESIAN_POINT('',(99.,1.47460000000009,0.));
#1760=CARTESIAN_POINT('',(89.002,1.4745999999999,-25.));
#1761=CARTESIAN_POINT('',(-99.,1.47460000000009,-25.));
#1762=CARTESIAN_POINT('',(-99.,1.47460000000009,-25.));
#1763=CARTESIAN_POINT('',(-99.,1.47460000000009,0.));
#1764=CARTESIAN_POINT('',(-99.,1.47460000000009,0.));
#1765=CARTESIAN_POINT('',(-121.9988,1.47460000000009,0.));
#1766=CARTESIAN_POINT('',(-126.9988,1.47460000000009,0.));
#1767=CARTESIAN_POINT('',(-121.9988,1.47460000000009,0.));
#1768=CARTESIAN_POINT('',(121.9988,1.47460000000009,0.));
#1769=CARTESIAN_POINT('',(121.9988,1.47460000000009,0.));
#1770=CARTESIAN_POINT('',(126.9988,1.4746000000001,0.));
#1771=CARTESIAN_POINT('Origin',(0.,-20.,0.));
#1772=CARTESIAN_POINT('',(69.,-38.5,0.));
#1773=CARTESIAN_POINT('',(99.,-38.5,0.));
#1774=CARTESIAN_POINT('',(45.5,-38.5,0.));
#1775=CARTESIAN_POINT('',(99.,-9.25,0.));
#1776=CARTESIAN_POINT('',(126.9988,-3.52539999999991,0.));
#1777=CARTESIAN_POINT('Origin',(121.9988,-3.52539999999991,0.));
#1778=CARTESIAN_POINT('',(126.9988,-37.98,0.));
#1779=CARTESIAN_POINT('',(126.9988,4.0000000000001,0.));
#1780=CARTESIAN_POINT('',(121.9988,-42.98,0.));
#1781=CARTESIAN_POINT('Origin',(121.9988,-37.98,0.));
#1782=CARTESIAN_POINT('',(59.3926089961167,-42.98,0.));
#1783=CARTESIAN_POINT('',(126.9988,-42.98,0.));
#1784=CARTESIAN_POINT('',(44.2048692823319,-50.0621593386022,0.));
#1785=CARTESIAN_POINT('Origin',(0.,-20.,0.));
#1786=CARTESIAN_POINT('',(31.,-38.5,0.));
#1787=CARTESIAN_POINT('',(40.6073910038831,-42.98,0.));
#1788=CARTESIAN_POINT('',(19.5291359774455,-33.1510482606282,0.));
#1789=CARTESIAN_POINT('',(-40.607391003883,-42.98,0.));
#1790=CARTESIAN_POINT('',(98.5,-42.98,0.));
#1791=CARTESIAN_POINT('',(-31.,-38.5,0.));
#1792=CARTESIAN_POINT('',(-14.725440475504,-30.9110482606281,0.));
#1793=CARTESIAN_POINT('',(45.5,-38.5,0.));
#1794=CARTESIAN_POINT('Origin',(-89.,-1.49999999999992,0.));
#1795=CARTESIAN_POINT('',(89.002,-1.5000000000001,-25.));
#1796=CARTESIAN_POINT('Origin',(89.,-35.5,0.));
#1797=CARTESIAN_POINT('',(32.4622378632065,-35.5,-18.5));
#1798=CARTESIAN_POINT('',(32.4622378632067,-35.5,-100.));
#1799=CARTESIAN_POINT('',(32.4622378632066,-35.5,-25.));
#1800=CARTESIAN_POINT('',(-32.4622378632057,-35.5,-100.));
#1801=CARTESIAN_POINT('',(-89.,-35.5,-100.));
#1802=CARTESIAN_POINT('',(-32.4622378632065,-35.5,-18.5));
#1803=CARTESIAN_POINT('',(-32.4622378632057,-35.5,-100.));
#1804=CARTESIAN_POINT('',(-67.5377621367937,-35.5000000000009,-18.5));
#1805=CARTESIAN_POINT('',(44.5,-35.5,-18.5));
#1806=CARTESIAN_POINT('',(-67.5377621367956,-35.5,-100.));
#1807=CARTESIAN_POINT('',(-67.5377621367958,-35.5,-25.));
#1808=CARTESIAN_POINT('',(-89.,-35.5,-100.));
#1809=CARTESIAN_POINT('',(67.5377621367936,-35.5,-100.));
#1810=CARTESIAN_POINT('',(-89.,-35.5,-100.));
#1811=CARTESIAN_POINT('',(67.5377621367937,-35.5,-18.5));
#1812=CARTESIAN_POINT('',(67.5377621367936,-35.5,-100.));
#1813=CARTESIAN_POINT('',(44.5,-35.5,-18.5));
#1814=CARTESIAN_POINT('Origin',(91.,-38.5,0.));
#1815=CARTESIAN_POINT('',(-69.,-38.5,-100.));
#1816=CARTESIAN_POINT('',(-69.,-38.5,0.));
#1817=CARTESIAN_POINT('',(-69.,-38.5,0.));
#1818=CARTESIAN_POINT('',(-99.,-38.5,0.));
#1819=CARTESIAN_POINT('',(45.5,-38.5,0.));
#1820=CARTESIAN_POINT('',(-99.,-38.5,-100.));
#1821=CARTESIAN_POINT('',(-99.,-38.5,0.));
#1822=CARTESIAN_POINT('',(-99.,-38.5,-100.));
#1823=CARTESIAN_POINT('Origin',(91.,-38.5,0.));
#1824=CARTESIAN_POINT('',(69.,-38.5,-100.));
#1825=CARTESIAN_POINT('',(69.,-38.5,0.));
#1826=CARTESIAN_POINT('',(99.,-38.5,-100.));
#1827=CARTESIAN_POINT('',(-91.,-38.5,-100.));
#1828=CARTESIAN_POINT('',(99.,-38.5,-100.));
#1829=CARTESIAN_POINT('Origin',(0.,-20.,0.));
#1830=CARTESIAN_POINT('',(-99.,-29.25,0.));
#1831=CARTESIAN_POINT('',(-59.3926089961165,-42.98,0.));
#1832=CARTESIAN_POINT('',(-39.4011737803902,-52.3021593386022,0.));
#1833=CARTESIAN_POINT('',(-121.9988,-42.98,0.));
#1834=CARTESIAN_POINT('',(98.5,-42.98,0.));
#1835=CARTESIAN_POINT('',(-126.9988,-37.98,0.));
#1836=CARTESIAN_POINT('Origin',(-121.9988,-37.98,0.));
#1837=CARTESIAN_POINT('',(-126.9988,-3.52539999999991,0.));
#1838=CARTESIAN_POINT('',(-126.9988,-44.,0.));
#1839=CARTESIAN_POINT('Origin',(-121.9988,-3.52539999999991,0.));
#1840=CARTESIAN_POINT('Origin',(-59.3926089961165,-42.98,0.));
#1841=CARTESIAN_POINT('',(-59.3926089961165,-42.98,-100.));
#1842=CARTESIAN_POINT('',(-35.4292333428184,-54.1543055823773,-100.));
#1843=CARTESIAN_POINT('',(-59.3926089961161,-42.98,0.));
#1844=CARTESIAN_POINT('Origin',(-31.,-38.5,0.));
#1845=CARTESIAN_POINT('',(-40.6073910038829,-42.98,-100.));
#1846=CARTESIAN_POINT('',(-40.6073910038834,-42.98,0.));
#1847=CARTESIAN_POINT('',(-31.,-38.5,-100.));
#1848=CARTESIAN_POINT('',(-18.6973809130758,-32.7631945044034,-100.));
#1849=CARTESIAN_POINT('',(-31.,-38.5,-100.));
#1850=CARTESIAN_POINT('Origin',(91.,-38.5,0.));
#1851=CARTESIAN_POINT('',(31.,-38.5,-100.));
#1852=CARTESIAN_POINT('',(31.,-38.5,0.));
#1853=CARTESIAN_POINT('',(-91.,-38.5,-100.));
#1854=CARTESIAN_POINT('Origin',(40.6073910038831,-42.98,0.));
#1855=CARTESIAN_POINT('',(40.6073910038832,-42.98,-100.));
#1856=CARTESIAN_POINT('',(23.5010764150174,-35.0031945044034,-100.));
#1857=CARTESIAN_POINT('',(40.6073910038832,-42.98,-100.));
#1858=CARTESIAN_POINT('Origin',(69.,-38.5,0.));
#1859=CARTESIAN_POINT('',(59.3926089961165,-42.98,-100.));
#1860=CARTESIAN_POINT('',(59.3926089961165,-42.98,0.));
#1861=CARTESIAN_POINT('',(40.2329288447601,-51.9143055823774,-100.));
#1862=CARTESIAN_POINT('Origin',(59.3926089961165,-42.98,0.));
#1863=CARTESIAN_POINT('',(-121.9988,-42.98,3.));
#1864=CARTESIAN_POINT('',(59.3926089961165,-42.98,-100.));
#1865=CARTESIAN_POINT('',(29.6963044980583,-42.98,-100.));
#1866=CARTESIAN_POINT('',(121.9988,-42.98,3.));
#1867=CARTESIAN_POINT('',(-52.1,-42.98,-45.));
#1868=CARTESIAN_POINT('',(-52.1,-42.98,-39.));
#1869=CARTESIAN_POINT('',(-52.1,-42.98,-3.30084430888049E-13));
#1870=CARTESIAN_POINT('',(-47.9,-42.98,-39.));
#1871=CARTESIAN_POINT('Origin',(-50.,-42.98,-39.));
#1872=CARTESIAN_POINT('',(-47.9,-42.98,-45.));
#1873=CARTESIAN_POINT('',(-47.9,-42.98,-3.17649933012247E-13));
#1874=CARTESIAN_POINT('Origin',(-50.,-42.98,-45.));
#1875=CARTESIAN_POINT('',(47.9,-42.98,-45.));
#1876=CARTESIAN_POINT('',(47.9,-42.98,-39.));
#1877=CARTESIAN_POINT('',(47.9,-42.98,-22.5));
#1878=CARTESIAN_POINT('',(52.1,-42.98,-39.));
#1879=CARTESIAN_POINT('Origin',(50.,-42.98,-39.));
#1880=CARTESIAN_POINT('',(52.1,-42.98,-45.));
#1881=CARTESIAN_POINT('',(52.1,-42.98,-19.5));
#1882=CARTESIAN_POINT('Origin',(50.,-42.98,-45.));
#1883=CARTESIAN_POINT('Origin',(0.,-37.74,-18.5));
#1884=CARTESIAN_POINT('',(-42.0696288670894,-39.9800000000006,-18.5));
#1885=CARTESIAN_POINT('',(-24.3627777172015,-31.723159706997,-18.5));
#1886=CARTESIAN_POINT('',(-57.9303711329102,-39.9800000000008,-18.5));
#1887=CARTESIAN_POINT('',(1.25436730941355E-15,-39.98,-18.5));
#1888=CARTESIAN_POINT('',(-39.371227542576,-48.6342707849712,-18.5));
#1889=CARTESIAN_POINT('Origin',(42.0696288670896,-39.98,-50.));
#1890=CARTESIAN_POINT('',(-42.0696288670895,-39.9800000000006,-100.));
#1891=CARTESIAN_POINT('',(-42.0696288670883,-39.98,-50.));
#1892=CARTESIAN_POINT('',(-57.9303711329103,-39.9800000000008,-100.));
#1893=CARTESIAN_POINT('',(4.75556233086335E-14,-39.98,-100.));
#1894=CARTESIAN_POINT('',(-57.930371132912,-39.98,-50.));
#1895=CARTESIAN_POINT('',(-52.1,-39.9800000000008,-39.));
#1896=CARTESIAN_POINT('',(-52.1,-39.9800000000008,-45.));
#1897=CARTESIAN_POINT('',(-52.1,-39.98,-50.));
#1898=CARTESIAN_POINT('',(-47.9,-39.9800000000008,-45.));
#1899=CARTESIAN_POINT('Origin',(-50.,-39.98,-45.));
#1900=CARTESIAN_POINT('',(-47.9,-39.9800000000008,-39.));
#1901=CARTESIAN_POINT('',(-47.9,-39.98,-50.));
#1902=CARTESIAN_POINT('Origin',(-50.,-39.98,-39.));
#1903=CARTESIAN_POINT('Origin',(-42.0696288670895,-39.9800000000006,-50.));
#1904=CARTESIAN_POINT('',(-20.6781039457991,-30.0049681095891,-100.));
#1905=CARTESIAN_POINT('Origin',(-67.5377621367937,-35.5000000000009,-50.));
#1906=CARTESIAN_POINT('',(-43.0559013139782,-46.9160791875637,-100.));
#1907=CARTESIAN_POINT('Origin',(0.,-37.74,-18.5));
#1908=CARTESIAN_POINT('',(57.9303711329104,-39.98,-18.5));
#1909=CARTESIAN_POINT('',(34.5675320406346,-50.8742707849707,-18.5));
#1910=CARTESIAN_POINT('',(42.0696288670896,-39.98,-18.5));
#1911=CARTESIAN_POINT('',(21.0348144335448,-39.98,-18.5));
#1912=CARTESIAN_POINT('',(19.55908221526,-29.4831597069966,-18.5));
#1913=CARTESIAN_POINT('Origin',(32.4622378632065,-35.5,-50.));
#1914=CARTESIAN_POINT('',(42.0696288670896,-39.98,-100.));
#1915=CARTESIAN_POINT('',(42.0696288670896,-39.98,-50.));
#1916=CARTESIAN_POINT('',(15.8744084438576,-27.7649681095888,-100.));
#1917=CARTESIAN_POINT('Origin',(42.0696288670896,-39.98,-50.));
#1918=CARTESIAN_POINT('',(57.9303711329104,-39.98,-100.));
#1919=CARTESIAN_POINT('',(57.9303711329104,-39.98,-50.));
#1920=CARTESIAN_POINT('',(21.0348144335448,-39.98,-100.));
#1921=CARTESIAN_POINT('',(47.9,-39.9799999999993,-39.));
#1922=CARTESIAN_POINT('',(47.9,-39.9799999999993,-45.));
#1923=CARTESIAN_POINT('',(47.9,-39.98,-47.5));
#1924=CARTESIAN_POINT('',(52.1,-39.9799999999992,-45.));
#1925=CARTESIAN_POINT('Origin',(50.,-39.98,-45.));
#1926=CARTESIAN_POINT('',(52.1,-39.9799999999992,-39.));
#1927=CARTESIAN_POINT('',(52.1,-39.98,-44.5));
#1928=CARTESIAN_POINT('Origin',(50.,-39.98,-39.));
#1929=CARTESIAN_POINT('Origin',(57.9303711329104,-39.98,-50.));
#1930=CARTESIAN_POINT('',(38.2522058120369,-49.156079187563,-100.));
#1931=CARTESIAN_POINT('Origin',(-50.,-42.98,-39.));
#1932=CARTESIAN_POINT('',(-47.9,-42.98,-39.));
#1933=CARTESIAN_POINT('',(-52.1,-42.98,-39.));
#1934=CARTESIAN_POINT('Origin',(-47.9,-42.98,-39.));
#1935=CARTESIAN_POINT('',(-47.9,-42.98,-45.));
#1936=CARTESIAN_POINT('Origin',(-50.,-42.98,-45.));
#1937=CARTESIAN_POINT('',(-52.1,-42.98,-45.));
#1938=CARTESIAN_POINT('Origin',(-52.1,-42.98,-45.));
#1939=CARTESIAN_POINT('Origin',(50.,-42.98,-39.));
#1940=CARTESIAN_POINT('',(52.1,-42.98,-39.));
#1941=CARTESIAN_POINT('',(47.9,-42.98,-39.));
#1942=CARTESIAN_POINT('Origin',(52.1,-42.98,-39.));
#1943=CARTESIAN_POINT('',(52.1,-42.98,-45.));
#1944=CARTESIAN_POINT('Origin',(50.,-42.98,-45.));
#1945=CARTESIAN_POINT('',(47.9,-42.98,-45.));
#1946=CARTESIAN_POINT('Origin',(47.9,-42.98,-45.));
#1947=CARTESIAN_POINT('Origin',(-126.9988,4.00000000000009,0.));
#1948=CARTESIAN_POINT('',(-126.9988,-3.52539999999991,3.));
#1949=CARTESIAN_POINT('',(-126.9988,-37.98,3.));
#1950=CARTESIAN_POINT('Origin',(126.9988,-44.,0.));
#1951=CARTESIAN_POINT('',(126.9988,-37.98,3.));
#1952=CARTESIAN_POINT('',(126.9988,-3.52539999999991,3.));
#1953=CARTESIAN_POINT('Origin',(-121.9988,-3.52539999999991,0.));
#1954=CARTESIAN_POINT('Origin',(-121.9988,-37.98,0.));
#1955=CARTESIAN_POINT('Origin',(121.9988,-37.98,0.));
#1956=CARTESIAN_POINT('Origin',(121.9988,-3.52539999999991,0.));
#1957=CARTESIAN_POINT('Origin',(3.5527136788005E-14,-18.5,-100.));
#1958=CARTESIAN_POINT('',(99.,-38.5,-100.));
#1959=CARTESIAN_POINT('',(-99.,-35.5,-100.));
#1960=CARTESIAN_POINT('',(-99.,1.50000000000009,-100.));
#1961=CARTESIAN_POINT('',(-99.,-35.5,-100.));
#1962=CARTESIAN_POINT('Origin',(-99.,-18.5127,-48.5812077138274));
#1963=CARTESIAN_POINT('',(-99.,-31.,-73.9106906561716));
#1964=CARTESIAN_POINT('',(-99.,-31.,-73.9106906561716));
#1965=CARTESIAN_POINT('',(-99.,-6.02539999999991,-23.2517247714831));
#1966=CARTESIAN_POINT('',(-99.,-6.02539999999991,-23.2517247714831));
#1967=CARTESIAN_POINT('',(-99.,-18.5127,-48.5812077138274));
#1968=CARTESIAN_POINT('Origin',(-99.,-6.02539999999991,-15.3758623857416));
#1969=CARTESIAN_POINT('',(-99.,-6.02539999999991,-7.5));
#1970=CARTESIAN_POINT('',(-99.,-6.02539999999991,-7.5));
#1971=CARTESIAN_POINT('',(-99.,-6.02539999999991,-15.3758623857416));
#1972=CARTESIAN_POINT('Origin',(-99.,-18.5127,-7.5));
#1973=CARTESIAN_POINT('',(-99.,-31.,-7.5));
#1974=CARTESIAN_POINT('',(-99.,-31.,-7.5));
#1975=CARTESIAN_POINT('',(-99.,-18.5127,-7.5));
#1976=CARTESIAN_POINT('Origin',(-99.,-17.0127,-62.5));
#1977=CARTESIAN_POINT('',(-99.,-17.0127,-62.5));
#1978=CARTESIAN_POINT('Origin',(-99.,-31.,-40.7053453280858));
#1979=CARTESIAN_POINT('',(-99.,-31.,-40.7053453280858));
#1980=CARTESIAN_POINT('Origin',(-99.,-18.5136749999999,-49.999025));
#1981=CARTESIAN_POINT('Origin',(163.,-18.5127,-7.5));
#1982=CARTESIAN_POINT('',(99.,-6.02539999999979,-7.5));
#1983=CARTESIAN_POINT('',(163.,-6.02539999999979,-7.5));
#1984=CARTESIAN_POINT('',(99.,-31.,-7.5));
#1985=CARTESIAN_POINT('',(99.,1.50000000000009,-7.5));
#1986=CARTESIAN_POINT('',(163.,-31.,-7.5));
#1987=CARTESIAN_POINT('Origin',(163.,-31.,-40.7053453280858));
#1988=CARTESIAN_POINT('',(99.,-31.,-73.9106906561716));
#1989=CARTESIAN_POINT('',(99.,-31.,5.09362384991311E-15));
#1990=CARTESIAN_POINT('',(163.,-31.,-73.9106906561716));
#1991=CARTESIAN_POINT('Origin',(163.,-18.5127,-48.5812077138274));
#1992=CARTESIAN_POINT('',(99.,-6.02539999999982,-23.2517247714831));
#1993=CARTESIAN_POINT('',(99.,4.66768925510934,-1.56165390842617));
#1994=CARTESIAN_POINT('',(163.,-6.02539999999979,-23.2517247714831));
#1995=CARTESIAN_POINT('Origin',(163.,-6.02539999999979,-15.3758623857416));
#1996=CARTESIAN_POINT('',(99.,-6.02539999999982,1.2431484395045E-15));
#1997=CARTESIAN_POINT('Origin',(99.,1.50000000000009,0.));
#1998=CARTESIAN_POINT('Origin',(89.002,-0.012700000000103,-25.));
#1999=CARTESIAN_POINT('',(0.,0.,0.));
#2000=UNCERTAINTY_MEASURE_WITH_UNIT(LENGTH_MEASURE(0.01),#2006,
'DISTANCE_ACCURACY_VALUE',
'Maximum model space distance between geometric entities at asserted c
onnectivities');
#2001=UNCERTAINTY_MEASURE_WITH_UNIT(LENGTH_MEASURE(0.01),#2006,
'DISTANCE_ACCURACY_VALUE',
'Maximum model space distance between geometric entities at asserted c
onnectivities');
#2002=UNCERTAINTY_MEASURE_WITH_UNIT(LENGTH_MEASURE(0.01),#2006,
'DISTANCE_ACCURACY_VALUE',
'Maximum model space distance between geometric entities at asserted c
onnectivities');
#2003=(
GEOMETRIC_REPRESENTATION_CONTEXT(3)
GLOBAL_UNCERTAINTY_ASSIGNED_CONTEXT((#2000))
GLOBAL_UNIT_ASSIGNED_CONTEXT((#2006,#2008,#2009))
REPRESENTATION_CONTEXT('','3D')
);
#2004=(
GEOMETRIC_REPRESENTATION_CONTEXT(3)
GLOBAL_UNCERTAINTY_ASSIGNED_CONTEXT((#2001))
GLOBAL_UNIT_ASSIGNED_CONTEXT((#2006,#2008,#2009))
REPRESENTATION_CONTEXT('','3D')
);
#2005=(
GEOMETRIC_REPRESENTATION_CONTEXT(3)
GLOBAL_UNCERTAINTY_ASSIGNED_CONTEXT((#2002))
GLOBAL_UNIT_ASSIGNED_CONTEXT((#2006,#2008,#2009))
REPRESENTATION_CONTEXT('','3D')
);
#2006=(
LENGTH_UNIT()
NAMED_UNIT(*)
SI_UNIT(.MILLI.,.METRE.)
);
#2007=(
LENGTH_UNIT()
NAMED_UNIT(*)
SI_UNIT($,.METRE.)
);
#2008=(
NAMED_UNIT(*)
PLANE_ANGLE_UNIT()
SI_UNIT($,.RADIAN.)
);
#2009=(
NAMED_UNIT(*)
SI_UNIT($,.STERADIAN.)
SOLID_ANGLE_UNIT()
);
#2010=SHAPE_DEFINITION_REPRESENTATION(#2012,#2015);
#2011=SHAPE_DEFINITION_REPRESENTATION(#2013,#2016);
#2012=PRODUCT_DEFINITION_SHAPE('',$,#2018);
#2013=PRODUCT_DEFINITION_SHAPE('',$,#2019);
#2014=PRODUCT_DEFINITION_SHAPE($,$,#14);
#2015=SHAPE_REPRESENTATION('',(#1244,#1333),#2003);
#2016=SHAPE_REPRESENTATION('',(#1245),#2004);
#2017=PRODUCT_DEFINITION_CONTEXT('part definition',#2025,'design');
#2018=PRODUCT_DEFINITION('mini rack v1','hp mount v2 v1',#2020,#2017);
#2019=PRODUCT_DEFINITION('Component2','Component2',#2021,#2017);
#2020=PRODUCT_DEFINITION_FORMATION('',$,#2027);
#2021=PRODUCT_DEFINITION_FORMATION('',$,#2028);
#2022=PRODUCT_RELATED_PRODUCT_CATEGORY('hp mount v2 v1',
'hp mount v2 v1',(#2027));
#2023=PRODUCT_RELATED_PRODUCT_CATEGORY('Component2','Component2',(#2028));
#2024=APPLICATION_PROTOCOL_DEFINITION('international standard',
'automotive_design',2009,#2025);
#2025=APPLICATION_CONTEXT(
'Core Data for Automotive Mechanical Design Process');
#2026=PRODUCT_CONTEXT('part definition',#2025,'mechanical');
#2027=PRODUCT('mini rack v1','hp mount v2 v1','STEP AP242',(#2026));
#2028=PRODUCT('Component2','Component2',$,(#2026));
#2029=PRESENTATION_STYLE_ASSIGNMENT((#2031));
#2030=PRESENTATION_STYLE_ASSIGNMENT((#2032));
#2031=SURFACE_STYLE_USAGE(.BOTH.,#2033);
#2032=SURFACE_STYLE_USAGE(.BOTH.,#2034);
#2033=SURFACE_SIDE_STYLE('',(#2035));
#2034=SURFACE_SIDE_STYLE('',(#2036));
#2035=SURFACE_STYLE_FILL_AREA(#2037);
#2036=SURFACE_STYLE_FILL_AREA(#2038);
#2037=FILL_AREA_STYLE('Steel - Satin',(#2039));
#2038=FILL_AREA_STYLE('Tough 2000 (with Formlabs SLA 3D Printers)',(#2040));
#2039=FILL_AREA_STYLE_COLOUR('Steel - Satin',#2041);
#2040=FILL_AREA_STYLE_COLOUR(
'Tough 2000 (with Formlabs SLA 3D Printers)',#2042);
#2041=COLOUR_RGB('Steel - Satin',0.627450980392157,0.627450980392157,0.627450980392157);
#2042=COLOUR_RGB('Tough 2000 (with Formlabs SLA 3D Printers)',0.247058823529412,
0.247058823529412,0.247058823529412);
ENDSEC;
END-ISO-10303-21;
