ISO-10303-21;
HEADER;
/* Generated by software containing ST-Developer
 * from STEP Tools, Inc. (www.steptools.com) 
 */

FILE_DESCRIPTION(
/* description */ (''),
/* implementation_level */ '2;1');

FILE_NAME(
/* name */ 'Omada Switch LaserCut.step',
/* time_stamp */ '2026-08-30T16:53:21+05:30',
/* author */ (''),
/* organization */ (''),
/* preprocessor_version */ 'ST-DEVELOPER v20.1',
/* originating_system */ 'Autodesk Translation Framework v15.8.0.0',
/* authorisation */ '');

FILE_SCHEMA (('AUTOMOTIVE_DESIGN { 1 0 10303 214 3 1 1 }'));
ENDSEC;

DATA;
#10=MECHANICAL_DESIGN_GEOMETRIC_PRESENTATION_REPRESENTATION('',(#19,#20,
#21),#2321);
#11=SHAPE_REPRESENTATION_RELATIONSHIP('SRR','None',#2328,#12);
#12=ADVANCED_BREP_SHAPE_REPRESENTATION('',(#22,#23,#24),#2320);
#13=ELLIPSE('',#1465,3.18198051533946,2.25);
#14=ELLIPSE('',#1471,3.18198051533946,2.25);
#15=ELLIPSE('',#1474,3.18198051533946,2.25);
#16=ELLIPSE('',#1481,3.18198051533946,2.25);
#17=ELLIPSE('',#1487,3.18198051533946,2.25);
#18=ELLIPSE('',#1490,3.18198051533946,2.25);
#19=STYLED_ITEM('',(#2337),#22);
#20=STYLED_ITEM('',(#2337),#23);
#21=STYLED_ITEM('',(#2337),#24);
#22=MANIFOLD_SOLID_BREP('Body1',#1403);
#23=MANIFOLD_SOLID_BREP('Body2',#1404);
#24=MANIFOLD_SOLID_BREP('Body5',#1405);
#25=FACE_BOUND('',#200,.T.);
#26=FACE_BOUND('',#201,.T.);
#27=FACE_BOUND('',#202,.T.);
#28=FACE_BOUND('',#203,.T.);
#29=FACE_BOUND('',#204,.T.);
#30=FACE_BOUND('',#205,.T.);
#31=FACE_BOUND('',#206,.T.);
#32=FACE_BOUND('',#207,.T.);
#33=FACE_BOUND('',#208,.T.);
#34=FACE_BOUND('',#209,.T.);
#35=FACE_BOUND('',#210,.T.);
#36=FACE_BOUND('',#212,.T.);
#37=FACE_BOUND('',#213,.T.);
#38=FACE_BOUND('',#214,.T.);
#39=FACE_BOUND('',#215,.T.);
#40=FACE_BOUND('',#216,.T.);
#41=FACE_BOUND('',#217,.T.);
#42=FACE_BOUND('',#218,.T.);
#43=FACE_BOUND('',#219,.T.);
#44=FACE_BOUND('',#220,.T.);
#45=FACE_BOUND('',#221,.T.);
#46=FACE_BOUND('',#222,.T.);
#47=FACE_BOUND('',#250,.T.);
#48=FACE_BOUND('',#252,.T.);
#49=FACE_BOUND('',#253,.T.);
#50=FACE_BOUND('',#254,.T.);
#51=FACE_BOUND('',#255,.T.);
#52=FACE_BOUND('',#256,.T.);
#53=FACE_BOUND('',#274,.T.);
#54=FACE_BOUND('',#275,.T.);
#55=FACE_BOUND('',#276,.T.);
#56=FACE_BOUND('',#277,.T.);
#57=FACE_BOUND('',#278,.T.);
#58=FACE_BOUND('',#279,.T.);
#59=FACE_BOUND('',#280,.T.);
#60=FACE_BOUND('',#281,.T.);
#61=FACE_BOUND('',#282,.T.);
#62=FACE_BOUND('',#284,.T.);
#63=FACE_BOUND('',#285,.T.);
#64=FACE_BOUND('',#286,.T.);
#65=FACE_BOUND('',#287,.T.);
#66=FACE_BOUND('',#288,.T.);
#67=FACE_BOUND('',#289,.T.);
#68=FACE_BOUND('',#290,.T.);
#69=FACE_BOUND('',#291,.T.);
#70=FACE_BOUND('',#292,.T.);
#71=PLANE('',#1449);
#72=PLANE('',#1450);
#73=PLANE('',#1451);
#74=PLANE('',#1452);
#75=PLANE('',#1453);
#76=PLANE('',#1454);
#77=PLANE('',#1455);
#78=PLANE('',#1456);
#79=PLANE('',#1457);
#80=PLANE('',#1458);
#81=PLANE('',#1459);
#82=PLANE('',#1467);
#83=PLANE('',#1475);
#84=PLANE('',#1483);
#85=PLANE('',#1491);
#86=PLANE('',#1492);
#87=PLANE('',#1493);
#88=PLANE('',#1494);
#89=PLANE('',#1495);
#90=PLANE('',#1496);
#91=PLANE('',#1497);
#92=PLANE('',#1498);
#93=PLANE('',#1499);
#94=PLANE('',#1500);
#95=PLANE('',#1501);
#96=PLANE('',#1502);
#97=PLANE('',#1503);
#98=PLANE('',#1504);
#99=PLANE('',#1505);
#100=PLANE('',#1506);
#101=PLANE('',#1507);
#102=PLANE('',#1508);
#103=PLANE('',#1509);
#104=PLANE('',#1510);
#105=PLANE('',#1535);
#106=PLANE('',#1536);
#107=PLANE('',#1537);
#108=PLANE('',#1538);
#109=PLANE('',#1539);
#110=PLANE('',#1540);
#111=PLANE('',#1541);
#112=PLANE('',#1542);
#113=PLANE('',#1543);
#114=PLANE('',#1544);
#115=FACE_OUTER_BOUND('',#181,.T.);
#116=FACE_OUTER_BOUND('',#182,.T.);
#117=FACE_OUTER_BOUND('',#183,.T.);
#118=FACE_OUTER_BOUND('',#184,.T.);
#119=FACE_OUTER_BOUND('',#185,.T.);
#120=FACE_OUTER_BOUND('',#186,.T.);
#121=FACE_OUTER_BOUND('',#187,.T.);
#122=FACE_OUTER_BOUND('',#188,.T.);
#123=FACE_OUTER_BOUND('',#189,.T.);
#124=FACE_OUTER_BOUND('',#190,.T.);
#125=FACE_OUTER_BOUND('',#191,.T.);
#126=FACE_OUTER_BOUND('',#192,.T.);
#127=FACE_OUTER_BOUND('',#193,.T.);
#128=FACE_OUTER_BOUND('',#194,.T.);
#129=FACE_OUTER_BOUND('',#195,.T.);
#130=FACE_OUTER_BOUND('',#196,.T.);
#131=FACE_OUTER_BOUND('',#197,.T.);
#132=FACE_OUTER_BOUND('',#198,.T.);
#133=FACE_OUTER_BOUND('',#199,.T.);
#134=FACE_OUTER_BOUND('',#211,.T.);
#135=FACE_OUTER_BOUND('',#223,.T.);
#136=FACE_OUTER_BOUND('',#224,.T.);
#137=FACE_OUTER_BOUND('',#225,.T.);
#138=FACE_OUTER_BOUND('',#226,.T.);
#139=FACE_OUTER_BOUND('',#227,.T.);
#140=FACE_OUTER_BOUND('',#228,.T.);
#141=FACE_OUTER_BOUND('',#229,.T.);
#142=FACE_OUTER_BOUND('',#230,.T.);
#143=FACE_OUTER_BOUND('',#231,.T.);
#144=FACE_OUTER_BOUND('',#232,.T.);
#145=FACE_OUTER_BOUND('',#233,.T.);
#146=FACE_OUTER_BOUND('',#234,.T.);
#147=FACE_OUTER_BOUND('',#235,.T.);
#148=FACE_OUTER_BOUND('',#236,.T.);
#149=FACE_OUTER_BOUND('',#237,.T.);
#150=FACE_OUTER_BOUND('',#238,.T.);
#151=FACE_OUTER_BOUND('',#239,.T.);
#152=FACE_OUTER_BOUND('',#240,.T.);
#153=FACE_OUTER_BOUND('',#241,.T.);
#154=FACE_OUTER_BOUND('',#242,.T.);
#155=FACE_OUTER_BOUND('',#243,.T.);
#156=FACE_OUTER_BOUND('',#244,.T.);
#157=FACE_OUTER_BOUND('',#245,.T.);
#158=FACE_OUTER_BOUND('',#246,.T.);
#159=FACE_OUTER_BOUND('',#247,.T.);
#160=FACE_OUTER_BOUND('',#248,.T.);
#161=FACE_OUTER_BOUND('',#249,.T.);
#162=FACE_OUTER_BOUND('',#251,.T.);
#163=FACE_OUTER_BOUND('',#257,.T.);
#164=FACE_OUTER_BOUND('',#258,.T.);
#165=FACE_OUTER_BOUND('',#259,.T.);
#166=FACE_OUTER_BOUND('',#260,.T.);
#167=FACE_OUTER_BOUND('',#261,.T.);
#168=FACE_OUTER_BOUND('',#262,.T.);
#169=FACE_OUTER_BOUND('',#263,.T.);
#170=FACE_OUTER_BOUND('',#264,.T.);
#171=FACE_OUTER_BOUND('',#265,.T.);
#172=FACE_OUTER_BOUND('',#266,.T.);
#173=FACE_OUTER_BOUND('',#267,.T.);
#174=FACE_OUTER_BOUND('',#268,.T.);
#175=FACE_OUTER_BOUND('',#269,.T.);
#176=FACE_OUTER_BOUND('',#270,.T.);
#177=FACE_OUTER_BOUND('',#271,.T.);
#178=FACE_OUTER_BOUND('',#272,.T.);
#179=FACE_OUTER_BOUND('',#273,.T.);
#180=FACE_OUTER_BOUND('',#283,.T.);
#181=EDGE_LOOP('',(#931,#932,#933,#934));
#182=EDGE_LOOP('',(#935,#936,#937,#938));
#183=EDGE_LOOP('',(#939,#940,#941,#942));
#184=EDGE_LOOP('',(#943,#944,#945,#946));
#185=EDGE_LOOP('',(#947,#948,#949,#950));
#186=EDGE_LOOP('',(#951,#952,#953,#954));
#187=EDGE_LOOP('',(#955,#956,#957,#958));
#188=EDGE_LOOP('',(#959,#960,#961,#962));
#189=EDGE_LOOP('',(#963,#964,#965,#966));
#190=EDGE_LOOP('',(#967,#968,#969,#970));
#191=EDGE_LOOP('',(#971,#972,#973,#974));
#192=EDGE_LOOP('',(#975,#976,#977,#978));
#193=EDGE_LOOP('',(#979,#980,#981,#982));
#194=EDGE_LOOP('',(#983,#984,#985,#986));
#195=EDGE_LOOP('',(#987,#988,#989,#990));
#196=EDGE_LOOP('',(#991,#992,#993,#994));
#197=EDGE_LOOP('',(#995,#996,#997,#998));
#198=EDGE_LOOP('',(#999,#1000,#1001,#1002));
#199=EDGE_LOOP('',(#1003,#1004,#1005,#1006));
#200=EDGE_LOOP('',(#1007));
#201=EDGE_LOOP('',(#1008));
#202=EDGE_LOOP('',(#1009));
#203=EDGE_LOOP('',(#1010));
#204=EDGE_LOOP('',(#1011));
#205=EDGE_LOOP('',(#1012));
#206=EDGE_LOOP('',(#1013,#1014,#1015,#1016));
#207=EDGE_LOOP('',(#1017));
#208=EDGE_LOOP('',(#1018));
#209=EDGE_LOOP('',(#1019));
#210=EDGE_LOOP('',(#1020));
#211=EDGE_LOOP('',(#1021,#1022,#1023,#1024));
#212=EDGE_LOOP('',(#1025));
#213=EDGE_LOOP('',(#1026));
#214=EDGE_LOOP('',(#1027));
#215=EDGE_LOOP('',(#1028));
#216=EDGE_LOOP('',(#1029));
#217=EDGE_LOOP('',(#1030));
#218=EDGE_LOOP('',(#1031,#1032,#1033,#1034));
#219=EDGE_LOOP('',(#1035));
#220=EDGE_LOOP('',(#1036));
#221=EDGE_LOOP('',(#1037));
#222=EDGE_LOOP('',(#1038));
#223=EDGE_LOOP('',(#1039,#1040,#1041));
#224=EDGE_LOOP('',(#1042,#1043,#1044,#1045,#1046,#1047,#1048,#1049,#1050,
#1051));
#225=EDGE_LOOP('',(#1052,#1053));
#226=EDGE_LOOP('',(#1054,#1055,#1056,#1057,#1058,#1059,#1060,#1061,#1062,
#1063));
#227=EDGE_LOOP('',(#1064,#1065,#1066));
#228=EDGE_LOOP('',(#1067,#1068,#1069,#1070,#1071,#1072,#1073,#1074,#1075,
#1076));
#229=EDGE_LOOP('',(#1077,#1078));
#230=EDGE_LOOP('',(#1079,#1080,#1081,#1082,#1083,#1084,#1085,#1086,#1087,
#1088));
#231=EDGE_LOOP('',(#1089,#1090,#1091,#1092,#1093,#1094,#1095,#1096,#1097,
#1098,#1099,#1100));
#232=EDGE_LOOP('',(#1101,#1102,#1103,#1104));
#233=EDGE_LOOP('',(#1105,#1106,#1107,#1108));
#234=EDGE_LOOP('',(#1109,#1110,#1111,#1112,#1113,#1114,#1115,#1116,#1117,
#1118,#1119,#1120));
#235=EDGE_LOOP('',(#1121,#1122,#1123,#1124));
#236=EDGE_LOOP('',(#1125,#1126,#1127,#1128));
#237=EDGE_LOOP('',(#1129,#1130,#1131,#1132,#1133,#1134,#1135,#1136));
#238=EDGE_LOOP('',(#1137,#1138,#1139,#1140));
#239=EDGE_LOOP('',(#1141,#1142,#1143,#1144));
#240=EDGE_LOOP('',(#1145,#1146,#1147,#1148,#1149,#1150,#1151,#1152,#1153,
#1154));
#241=EDGE_LOOP('',(#1155,#1156,#1157,#1158));
#242=EDGE_LOOP('',(#1159,#1160,#1161,#1162));
#243=EDGE_LOOP('',(#1163,#1164,#1165,#1166));
#244=EDGE_LOOP('',(#1167,#1168,#1169,#1170));
#245=EDGE_LOOP('',(#1171,#1172,#1173,#1174));
#246=EDGE_LOOP('',(#1175,#1176,#1177,#1178));
#247=EDGE_LOOP('',(#1179,#1180,#1181,#1182,#1183,#1184,#1185,#1186,#1187,
#1188));
#248=EDGE_LOOP('',(#1189,#1190,#1191,#1192,#1193,#1194,#1195,#1196,#1197,
#1198));
#249=EDGE_LOOP('',(#1199,#1200,#1201,#1202));
#250=EDGE_LOOP('',(#1203,#1204,#1205,#1206));
#251=EDGE_LOOP('',(#1207,#1208,#1209,#1210));
#252=EDGE_LOOP('',(#1211,#1212,#1213,#1214));
#253=EDGE_LOOP('',(#1215));
#254=EDGE_LOOP('',(#1216));
#255=EDGE_LOOP('',(#1217));
#256=EDGE_LOOP('',(#1218));
#257=EDGE_LOOP('',(#1219,#1220,#1221,#1222));
#258=EDGE_LOOP('',(#1223,#1224,#1225,#1226));
#259=EDGE_LOOP('',(#1227,#1228,#1229,#1230));
#260=EDGE_LOOP('',(#1231,#1232,#1233,#1234));
#261=EDGE_LOOP('',(#1235,#1236,#1237,#1238));
#262=EDGE_LOOP('',(#1239,#1240,#1241,#1242));
#263=EDGE_LOOP('',(#1243,#1244,#1245,#1246));
#264=EDGE_LOOP('',(#1247,#1248,#1249,#1250));
#265=EDGE_LOOP('',(#1251,#1252,#1253,#1254));
#266=EDGE_LOOP('',(#1255,#1256,#1257,#1258));
#267=EDGE_LOOP('',(#1259,#1260,#1261,#1262));
#268=EDGE_LOOP('',(#1263,#1264,#1265,#1266));
#269=EDGE_LOOP('',(#1267,#1268,#1269,#1270));
#270=EDGE_LOOP('',(#1271,#1272,#1273,#1274));
#271=EDGE_LOOP('',(#1275,#1276,#1277,#1278));
#272=EDGE_LOOP('',(#1279,#1280,#1281,#1282));
#273=EDGE_LOOP('',(#1283,#1284,#1285,#1286));
#274=EDGE_LOOP('',(#1287));
#275=EDGE_LOOP('',(#1288));
#276=EDGE_LOOP('',(#1289));
#277=EDGE_LOOP('',(#1290));
#278=EDGE_LOOP('',(#1291,#1292,#1293,#1294));
#279=EDGE_LOOP('',(#1295));
#280=EDGE_LOOP('',(#1296));
#281=EDGE_LOOP('',(#1297));
#282=EDGE_LOOP('',(#1298));
#283=EDGE_LOOP('',(#1299,#1300,#1301,#1302));
#284=EDGE_LOOP('',(#1303));
#285=EDGE_LOOP('',(#1304));
#286=EDGE_LOOP('',(#1305));
#287=EDGE_LOOP('',(#1306));
#288=EDGE_LOOP('',(#1307,#1308,#1309,#1310));
#289=EDGE_LOOP('',(#1311));
#290=EDGE_LOOP('',(#1312));
#291=EDGE_LOOP('',(#1313));
#292=EDGE_LOOP('',(#1314));
#293=LINE('',#1936,#425);
#294=LINE('',#1942,#426);
#295=LINE('',#1948,#427);
#296=LINE('',#1954,#428);
#297=LINE('',#1960,#429);
#298=LINE('',#1966,#430);
#299=LINE('',#1972,#431);
#300=LINE('',#1978,#432);
#301=LINE('',#1984,#433);
#302=LINE('',#1990,#434);
#303=LINE('',#1995,#435);
#304=LINE('',#1997,#436);
#305=LINE('',#1999,#437);
#306=LINE('',#2000,#438);
#307=LINE('',#2003,#439);
#308=LINE('',#2005,#440);
#309=LINE('',#2006,#441);
#310=LINE('',#2009,#442);
#311=LINE('',#2011,#443);
#312=LINE('',#2012,#444);
#313=LINE('',#2014,#445);
#314=LINE('',#2015,#446);
#315=LINE('',#2019,#447);
#316=LINE('',#2021,#448);
#317=LINE('',#2023,#449);
#318=LINE('',#2024,#450);
#319=LINE('',#2027,#451);
#320=LINE('',#2029,#452);
#321=LINE('',#2030,#453);
#322=LINE('',#2033,#454);
#323=LINE('',#2035,#455);
#324=LINE('',#2036,#456);
#325=LINE('',#2038,#457);
#326=LINE('',#2039,#458);
#327=LINE('',#2045,#459);
#328=LINE('',#2052,#460);
#329=LINE('',#2054,#461);
#330=LINE('',#2061,#462);
#331=LINE('',#2065,#463);
#332=LINE('',#2071,#464);
#333=LINE('',#2076,#465);
#334=LINE('',#2078,#466);
#335=LINE('',#2085,#467);
#336=LINE('',#2092,#468);
#337=LINE('',#2094,#469);
#338=LINE('',#2101,#470);
#339=LINE('',#2105,#471);
#340=LINE('',#2111,#472);
#341=LINE('',#2116,#473);
#342=LINE('',#2118,#474);
#343=LINE('',#2123,#475);
#344=LINE('',#2125,#476);
#345=LINE('',#2127,#477);
#346=LINE('',#2129,#478);
#347=LINE('',#2131,#479);
#348=LINE('',#2132,#480);
#349=LINE('',#2135,#481);
#350=LINE('',#2136,#482);
#351=LINE('',#2138,#483);
#352=LINE('',#2141,#484);
#353=LINE('',#2143,#485);
#354=LINE('',#2145,#486);
#355=LINE('',#2147,#487);
#356=LINE('',#2148,#488);
#357=LINE('',#2149,#489);
#358=LINE('',#2152,#490);
#359=LINE('',#2153,#491);
#360=LINE('',#2156,#492);
#361=LINE('',#2157,#493);
#362=LINE('',#2160,#494);
#363=LINE('',#2162,#495);
#364=LINE('',#2164,#496);
#365=LINE('',#2165,#497);
#366=LINE('',#2167,#498);
#367=LINE('',#2170,#499);
#368=LINE('',#2172,#500);
#369=LINE('',#2173,#501);
#370=LINE('',#2175,#502);
#371=LINE('',#2177,#503);
#372=LINE('',#2179,#504);
#373=LINE('',#2180,#505);
#374=LINE('',#2184,#506);
#375=LINE('',#2186,#507);
#376=LINE('',#2187,#508);
#377=LINE('',#2191,#509);
#378=LINE('',#2193,#510);
#379=LINE('',#2195,#511);
#380=LINE('',#2196,#512);
#381=LINE('',#2199,#513);
#382=LINE('',#2201,#514);
#383=LINE('',#2202,#515);
#384=LINE('',#2205,#516);
#385=LINE('',#2207,#517);
#386=LINE('',#2208,#518);
#387=LINE('',#2210,#519);
#388=LINE('',#2211,#520);
#389=LINE('',#2213,#521);
#390=LINE('',#2214,#522);
#391=LINE('',#2216,#523);
#392=LINE('',#2217,#524);
#393=LINE('',#2224,#525);
#394=LINE('',#2230,#526);
#395=LINE('',#2236,#527);
#396=LINE('',#2242,#528);
#397=LINE('',#2248,#529);
#398=LINE('',#2254,#530);
#399=LINE('',#2260,#531);
#400=LINE('',#2266,#532);
#401=LINE('',#2271,#533);
#402=LINE('',#2273,#534);
#403=LINE('',#2275,#535);
#404=LINE('',#2276,#536);
#405=LINE('',#2279,#537);
#406=LINE('',#2281,#538);
#407=LINE('',#2282,#539);
#408=LINE('',#2285,#540);
#409=LINE('',#2287,#541);
#410=LINE('',#2288,#542);
#411=LINE('',#2290,#543);
#412=LINE('',#2291,#544);
#413=LINE('',#2295,#545);
#414=LINE('',#2297,#546);
#415=LINE('',#2299,#547);
#416=LINE('',#2300,#548);
#417=LINE('',#2303,#549);
#418=LINE('',#2305,#550);
#419=LINE('',#2306,#551);
#420=LINE('',#2309,#552);
#421=LINE('',#2311,#553);
#422=LINE('',#2312,#554);
#423=LINE('',#2314,#555);
#424=LINE('',#2315,#556);
#425=VECTOR('',#1551,2.25);
#426=VECTOR('',#1558,2.25);
#427=VECTOR('',#1565,2.25);
#428=VECTOR('',#1572,2.25);
#429=VECTOR('',#1579,2.79999999999999);
#430=VECTOR('',#1586,2.79999999999999);
#431=VECTOR('',#1593,2.79999999999999);
#432=VECTOR('',#1600,2.79999999999999);
#433=VECTOR('',#1607,2.79999999999999);
#434=VECTOR('',#1614,2.79999999999999);
#435=VECTOR('',#1619,10.);
#436=VECTOR('',#1620,10.);
#437=VECTOR('',#1621,10.);
#438=VECTOR('',#1622,10.);
#439=VECTOR('',#1625,10.);
#440=VECTOR('',#1626,10.);
#441=VECTOR('',#1627,10.);
#442=VECTOR('',#1630,10.);
#443=VECTOR('',#1631,10.);
#444=VECTOR('',#1632,10.);
#445=VECTOR('',#1635,10.);
#446=VECTOR('',#1636,10.);
#447=VECTOR('',#1639,10.);
#448=VECTOR('',#1640,10.);
#449=VECTOR('',#1641,10.);
#450=VECTOR('',#1642,10.);
#451=VECTOR('',#1645,10.);
#452=VECTOR('',#1646,10.);
#453=VECTOR('',#1647,10.);
#454=VECTOR('',#1650,10.);
#455=VECTOR('',#1651,10.);
#456=VECTOR('',#1652,10.);
#457=VECTOR('',#1655,10.);
#458=VECTOR('',#1656,10.);
#459=VECTOR('',#1663,10.);
#460=VECTOR('',#1672,2.25);
#461=VECTOR('',#1673,10.);
#462=VECTOR('',#1680,10.);
#463=VECTOR('',#1683,10.);
#464=VECTOR('',#1690,2.25);
#465=VECTOR('',#1695,10.);
#466=VECTOR('',#1696,10.);
#467=VECTOR('',#1703,10.);
#468=VECTOR('',#1712,2.25);
#469=VECTOR('',#1713,10.);
#470=VECTOR('',#1720,10.);
#471=VECTOR('',#1723,10.);
#472=VECTOR('',#1730,2.25);
#473=VECTOR('',#1735,10.);
#474=VECTOR('',#1736,10.);
#475=VECTOR('',#1743,10.);
#476=VECTOR('',#1744,10.);
#477=VECTOR('',#1745,10.);
#478=VECTOR('',#1746,10.);
#479=VECTOR('',#1747,10.);
#480=VECTOR('',#1748,10.);
#481=VECTOR('',#1751,10.);
#482=VECTOR('',#1752,10.);
#483=VECTOR('',#1755,10.);
#484=VECTOR('',#1758,10.);
#485=VECTOR('',#1759,10.);
#486=VECTOR('',#1760,10.);
#487=VECTOR('',#1761,10.);
#488=VECTOR('',#1762,10.);
#489=VECTOR('',#1763,10.);
#490=VECTOR('',#1766,10.);
#491=VECTOR('',#1767,10.);
#492=VECTOR('',#1770,10.);
#493=VECTOR('',#1771,10.);
#494=VECTOR('',#1774,10.);
#495=VECTOR('',#1775,10.);
#496=VECTOR('',#1776,10.);
#497=VECTOR('',#1777,10.);
#498=VECTOR('',#1780,10.);
#499=VECTOR('',#1783,10.);
#500=VECTOR('',#1784,10.);
#501=VECTOR('',#1785,10.);
#502=VECTOR('',#1788,10.);
#503=VECTOR('',#1789,10.);
#504=VECTOR('',#1790,10.);
#505=VECTOR('',#1791,10.);
#506=VECTOR('',#1796,10.);
#507=VECTOR('',#1797,10.);
#508=VECTOR('',#1798,10.);
#509=VECTOR('',#1801,10.);
#510=VECTOR('',#1802,10.);
#511=VECTOR('',#1803,10.);
#512=VECTOR('',#1804,10.);
#513=VECTOR('',#1807,10.);
#514=VECTOR('',#1808,10.);
#515=VECTOR('',#1809,10.);
#516=VECTOR('',#1812,10.);
#517=VECTOR('',#1813,10.);
#518=VECTOR('',#1814,10.);
#519=VECTOR('',#1817,10.);
#520=VECTOR('',#1818,10.);
#521=VECTOR('',#1821,10.);
#522=VECTOR('',#1822,10.);
#523=VECTOR('',#1825,10.);
#524=VECTOR('',#1826,10.);
#525=VECTOR('',#1835,2.25);
#526=VECTOR('',#1842,2.25);
#527=VECTOR('',#1849,2.25);
#528=VECTOR('',#1856,2.25);
#529=VECTOR('',#1863,2.79999999999999);
#530=VECTOR('',#1870,2.79999999999999);
#531=VECTOR('',#1877,2.79999999999999);
#532=VECTOR('',#1884,2.79999999999999);
#533=VECTOR('',#1889,10.);
#534=VECTOR('',#1890,10.);
#535=VECTOR('',#1891,10.);
#536=VECTOR('',#1892,10.);
#537=VECTOR('',#1895,10.);
#538=VECTOR('',#1896,10.);
#539=VECTOR('',#1897,10.);
#540=VECTOR('',#1900,10.);
#541=VECTOR('',#1901,10.);
#542=VECTOR('',#1902,10.);
#543=VECTOR('',#1905,10.);
#544=VECTOR('',#1906,10.);
#545=VECTOR('',#1909,10.);
#546=VECTOR('',#1910,10.);
#547=VECTOR('',#1911,10.);
#548=VECTOR('',#1912,10.);
#549=VECTOR('',#1915,10.);
#550=VECTOR('',#1916,10.);
#551=VECTOR('',#1917,10.);
#552=VECTOR('',#1920,10.);
#553=VECTOR('',#1921,10.);
#554=VECTOR('',#1922,10.);
#555=VECTOR('',#1925,10.);
#556=VECTOR('',#1926,10.);
#557=CIRCLE('',#1420,2.25);
#558=CIRCLE('',#1421,2.25);
#559=CIRCLE('',#1423,2.25);
#560=CIRCLE('',#1424,2.25);
#561=CIRCLE('',#1426,2.25);
#562=CIRCLE('',#1427,2.25);
#563=CIRCLE('',#1429,2.25);
#564=CIRCLE('',#1430,2.25);
#565=CIRCLE('',#1432,2.79999999999999);
#566=CIRCLE('',#1433,2.79999999999999);
#567=CIRCLE('',#1435,2.79999999999999);
#568=CIRCLE('',#1436,2.79999999999999);
#569=CIRCLE('',#1438,2.79999999999999);
#570=CIRCLE('',#1439,2.79999999999999);
#571=CIRCLE('',#1441,2.79999999999999);
#572=CIRCLE('',#1442,2.79999999999999);
#573=CIRCLE('',#1444,2.79999999999999);
#574=CIRCLE('',#1445,2.79999999999999);
#575=CIRCLE('',#1447,2.79999999999999);
#576=CIRCLE('',#1448,2.79999999999999);
#577=CIRCLE('',#1460,2.25);
#578=CIRCLE('',#1461,2.25);
#579=CIRCLE('',#1463,2.25);
#580=CIRCLE('',#1464,2.25);
#581=CIRCLE('',#1466,2.25);
#582=CIRCLE('',#1468,2.25);
#583=CIRCLE('',#1470,2.25);
#584=CIRCLE('',#1472,2.25);
#585=CIRCLE('',#1473,2.25);
#586=CIRCLE('',#1476,2.25);
#587=CIRCLE('',#1477,2.25);
#588=CIRCLE('',#1479,2.25);
#589=CIRCLE('',#1480,2.25);
#590=CIRCLE('',#1482,2.25);
#591=CIRCLE('',#1484,2.25);
#592=CIRCLE('',#1486,2.25);
#593=CIRCLE('',#1488,2.25);
#594=CIRCLE('',#1489,2.25);
#595=CIRCLE('',#1512,2.25);
#596=CIRCLE('',#1513,2.25);
#597=CIRCLE('',#1515,2.25);
#598=CIRCLE('',#1516,2.25);
#599=CIRCLE('',#1518,2.25);
#600=CIRCLE('',#1519,2.25);
#601=CIRCLE('',#1521,2.25);
#602=CIRCLE('',#1522,2.25);
#603=CIRCLE('',#1524,2.79999999999999);
#604=CIRCLE('',#1525,2.79999999999999);
#605=CIRCLE('',#1527,2.79999999999999);
#606=CIRCLE('',#1528,2.79999999999999);
#607=CIRCLE('',#1530,2.79999999999999);
#608=CIRCLE('',#1531,2.79999999999999);
#609=CIRCLE('',#1533,2.79999999999999);
#610=CIRCLE('',#1534,2.79999999999999);
#611=VERTEX_POINT('',#1933);
#612=VERTEX_POINT('',#1935);
#613=VERTEX_POINT('',#1939);
#614=VERTEX_POINT('',#1941);
#615=VERTEX_POINT('',#1945);
#616=VERTEX_POINT('',#1947);
#617=VERTEX_POINT('',#1951);
#618=VERTEX_POINT('',#1953);
#619=VERTEX_POINT('',#1957);
#620=VERTEX_POINT('',#1959);
#621=VERTEX_POINT('',#1963);
#622=VERTEX_POINT('',#1965);
#623=VERTEX_POINT('',#1969);
#624=VERTEX_POINT('',#1971);
#625=VERTEX_POINT('',#1975);
#626=VERTEX_POINT('',#1977);
#627=VERTEX_POINT('',#1981);
#628=VERTEX_POINT('',#1983);
#629=VERTEX_POINT('',#1987);
#630=VERTEX_POINT('',#1989);
#631=VERTEX_POINT('',#1993);
#632=VERTEX_POINT('',#1994);
#633=VERTEX_POINT('',#1996);
#634=VERTEX_POINT('',#1998);
#635=VERTEX_POINT('',#2002);
#636=VERTEX_POINT('',#2004);
#637=VERTEX_POINT('',#2008);
#638=VERTEX_POINT('',#2010);
#639=VERTEX_POINT('',#2017);
#640=VERTEX_POINT('',#2018);
#641=VERTEX_POINT('',#2020);
#642=VERTEX_POINT('',#2022);
#643=VERTEX_POINT('',#2026);
#644=VERTEX_POINT('',#2028);
#645=VERTEX_POINT('',#2032);
#646=VERTEX_POINT('',#2034);
#647=VERTEX_POINT('',#2043);
#648=VERTEX_POINT('',#2044);
#649=VERTEX_POINT('',#2046);
#650=VERTEX_POINT('',#2050);
#651=VERTEX_POINT('',#2053);
#652=VERTEX_POINT('',#2055);
#653=VERTEX_POINT('',#2057);
#654=VERTEX_POINT('',#2059);
#655=VERTEX_POINT('',#2063);
#656=VERTEX_POINT('',#2064);
#657=VERTEX_POINT('',#2068);
#658=VERTEX_POINT('',#2070);
#659=VERTEX_POINT('',#2072);
#660=VERTEX_POINT('',#2074);
#661=VERTEX_POINT('',#2077);
#662=VERTEX_POINT('',#2079);
#663=VERTEX_POINT('',#2083);
#664=VERTEX_POINT('',#2084);
#665=VERTEX_POINT('',#2086);
#666=VERTEX_POINT('',#2090);
#667=VERTEX_POINT('',#2093);
#668=VERTEX_POINT('',#2095);
#669=VERTEX_POINT('',#2097);
#670=VERTEX_POINT('',#2099);
#671=VERTEX_POINT('',#2103);
#672=VERTEX_POINT('',#2104);
#673=VERTEX_POINT('',#2108);
#674=VERTEX_POINT('',#2110);
#675=VERTEX_POINT('',#2112);
#676=VERTEX_POINT('',#2114);
#677=VERTEX_POINT('',#2117);
#678=VERTEX_POINT('',#2119);
#679=VERTEX_POINT('',#2124);
#680=VERTEX_POINT('',#2126);
#681=VERTEX_POINT('',#2128);
#682=VERTEX_POINT('',#2130);
#683=VERTEX_POINT('',#2134);
#684=VERTEX_POINT('',#2140);
#685=VERTEX_POINT('',#2142);
#686=VERTEX_POINT('',#2144);
#687=VERTEX_POINT('',#2146);
#688=VERTEX_POINT('',#2151);
#689=VERTEX_POINT('',#2155);
#690=VERTEX_POINT('',#2159);
#691=VERTEX_POINT('',#2161);
#692=VERTEX_POINT('',#2163);
#693=VERTEX_POINT('',#2169);
#694=VERTEX_POINT('',#2171);
#695=VERTEX_POINT('',#2176);
#696=VERTEX_POINT('',#2178);
#697=VERTEX_POINT('',#2183);
#698=VERTEX_POINT('',#2185);
#699=VERTEX_POINT('',#2189);
#700=VERTEX_POINT('',#2190);
#701=VERTEX_POINT('',#2192);
#702=VERTEX_POINT('',#2194);
#703=VERTEX_POINT('',#2198);
#704=VERTEX_POINT('',#2200);
#705=VERTEX_POINT('',#2204);
#706=VERTEX_POINT('',#2206);
#707=VERTEX_POINT('',#2221);
#708=VERTEX_POINT('',#2223);
#709=VERTEX_POINT('',#2227);
#710=VERTEX_POINT('',#2229);
#711=VERTEX_POINT('',#2233);
#712=VERTEX_POINT('',#2235);
#713=VERTEX_POINT('',#2239);
#714=VERTEX_POINT('',#2241);
#715=VERTEX_POINT('',#2245);
#716=VERTEX_POINT('',#2247);
#717=VERTEX_POINT('',#2251);
#718=VERTEX_POINT('',#2253);
#719=VERTEX_POINT('',#2257);
#720=VERTEX_POINT('',#2259);
#721=VERTEX_POINT('',#2263);
#722=VERTEX_POINT('',#2265);
#723=VERTEX_POINT('',#2269);
#724=VERTEX_POINT('',#2270);
#725=VERTEX_POINT('',#2272);
#726=VERTEX_POINT('',#2274);
#727=VERTEX_POINT('',#2278);
#728=VERTEX_POINT('',#2280);
#729=VERTEX_POINT('',#2284);
#730=VERTEX_POINT('',#2286);
#731=VERTEX_POINT('',#2293);
#732=VERTEX_POINT('',#2294);
#733=VERTEX_POINT('',#2296);
#734=VERTEX_POINT('',#2298);
#735=VERTEX_POINT('',#2302);
#736=VERTEX_POINT('',#2304);
#737=VERTEX_POINT('',#2308);
#738=VERTEX_POINT('',#2310);
#739=EDGE_CURVE('',#611,#611,#557,.T.);
#740=EDGE_CURVE('',#611,#612,#293,.T.);
#741=EDGE_CURVE('',#612,#612,#558,.T.);
#742=EDGE_CURVE('',#613,#613,#559,.T.);
#743=EDGE_CURVE('',#613,#614,#294,.T.);
#744=EDGE_CURVE('',#614,#614,#560,.T.);
#745=EDGE_CURVE('',#615,#615,#561,.T.);
#746=EDGE_CURVE('',#615,#616,#295,.T.);
#747=EDGE_CURVE('',#616,#616,#562,.T.);
#748=EDGE_CURVE('',#617,#617,#563,.T.);
#749=EDGE_CURVE('',#617,#618,#296,.T.);
#750=EDGE_CURVE('',#618,#618,#564,.T.);
#751=EDGE_CURVE('',#619,#619,#565,.T.);
#752=EDGE_CURVE('',#619,#620,#297,.T.);
#753=EDGE_CURVE('',#620,#620,#566,.T.);
#754=EDGE_CURVE('',#621,#621,#567,.T.);
#755=EDGE_CURVE('',#621,#622,#298,.T.);
#756=EDGE_CURVE('',#622,#622,#568,.T.);
#757=EDGE_CURVE('',#623,#623,#569,.T.);
#758=EDGE_CURVE('',#623,#624,#299,.T.);
#759=EDGE_CURVE('',#624,#624,#570,.T.);
#760=EDGE_CURVE('',#625,#625,#571,.T.);
#761=EDGE_CURVE('',#625,#626,#300,.T.);
#762=EDGE_CURVE('',#626,#626,#572,.T.);
#763=EDGE_CURVE('',#627,#627,#573,.T.);
#764=EDGE_CURVE('',#627,#628,#301,.T.);
#765=EDGE_CURVE('',#628,#628,#574,.T.);
#766=EDGE_CURVE('',#629,#629,#575,.T.);
#767=EDGE_CURVE('',#629,#630,#302,.T.);
#768=EDGE_CURVE('',#630,#630,#576,.T.);
#769=EDGE_CURVE('',#631,#632,#303,.T.);
#770=EDGE_CURVE('',#632,#633,#304,.T.);
#771=EDGE_CURVE('',#634,#633,#305,.T.);
#772=EDGE_CURVE('',#631,#634,#306,.T.);
#773=EDGE_CURVE('',#635,#631,#307,.T.);
#774=EDGE_CURVE('',#636,#634,#308,.T.);
#775=EDGE_CURVE('',#635,#636,#309,.T.);
#776=EDGE_CURVE('',#637,#635,#310,.T.);
#777=EDGE_CURVE('',#638,#636,#311,.T.);
#778=EDGE_CURVE('',#637,#638,#312,.T.);
#779=EDGE_CURVE('',#632,#637,#313,.T.);
#780=EDGE_CURVE('',#633,#638,#314,.T.);
#781=EDGE_CURVE('',#639,#640,#315,.T.);
#782=EDGE_CURVE('',#639,#641,#316,.T.);
#783=EDGE_CURVE('',#642,#641,#317,.T.);
#784=EDGE_CURVE('',#640,#642,#318,.T.);
#785=EDGE_CURVE('',#640,#643,#319,.T.);
#786=EDGE_CURVE('',#644,#642,#320,.T.);
#787=EDGE_CURVE('',#643,#644,#321,.T.);
#788=EDGE_CURVE('',#643,#645,#322,.T.);
#789=EDGE_CURVE('',#646,#644,#323,.T.);
#790=EDGE_CURVE('',#645,#646,#324,.T.);
#791=EDGE_CURVE('',#645,#639,#325,.T.);
#792=EDGE_CURVE('',#641,#646,#326,.T.);
#793=EDGE_CURVE('',#647,#648,#327,.T.);
#794=EDGE_CURVE('',#649,#647,#577,.T.);
#795=EDGE_CURVE('',#648,#649,#578,.T.);
#796=EDGE_CURVE('',#650,#650,#579,.T.);
#797=EDGE_CURVE('',#650,#649,#328,.T.);
#798=EDGE_CURVE('',#651,#647,#329,.T.);
#799=EDGE_CURVE('',#652,#651,#580,.T.);
#800=EDGE_CURVE('',#653,#652,#13,.T.);
#801=EDGE_CURVE('',#654,#653,#581,.T.);
#802=EDGE_CURVE('',#648,#654,#330,.T.);
#803=EDGE_CURVE('',#655,#656,#331,.T.);
#804=EDGE_CURVE('',#656,#655,#582,.T.);
#805=EDGE_CURVE('',#657,#657,#583,.T.);
#806=EDGE_CURVE('',#657,#658,#332,.T.);
#807=EDGE_CURVE('',#659,#658,#14,.T.);
#808=EDGE_CURVE('',#660,#659,#584,.T.);
#809=EDGE_CURVE('',#656,#660,#333,.T.);
#810=EDGE_CURVE('',#661,#655,#334,.T.);
#811=EDGE_CURVE('',#662,#661,#585,.T.);
#812=EDGE_CURVE('',#658,#662,#15,.T.);
#813=EDGE_CURVE('',#663,#664,#335,.T.);
#814=EDGE_CURVE('',#665,#663,#586,.T.);
#815=EDGE_CURVE('',#664,#665,#587,.T.);
#816=EDGE_CURVE('',#666,#666,#588,.T.);
#817=EDGE_CURVE('',#666,#665,#336,.T.);
#818=EDGE_CURVE('',#667,#663,#337,.T.);
#819=EDGE_CURVE('',#668,#667,#589,.T.);
#820=EDGE_CURVE('',#669,#668,#16,.T.);
#821=EDGE_CURVE('',#670,#669,#590,.T.);
#822=EDGE_CURVE('',#664,#670,#338,.T.);
#823=EDGE_CURVE('',#671,#672,#339,.T.);
#824=EDGE_CURVE('',#672,#671,#591,.T.);
#825=EDGE_CURVE('',#673,#673,#592,.T.);
#826=EDGE_CURVE('',#673,#674,#340,.T.);
#827=EDGE_CURVE('',#675,#674,#17,.T.);
#828=EDGE_CURVE('',#676,#675,#593,.T.);
#829=EDGE_CURVE('',#672,#676,#341,.T.);
#830=EDGE_CURVE('',#677,#671,#342,.T.);
#831=EDGE_CURVE('',#678,#677,#594,.T.);
#832=EDGE_CURVE('',#674,#678,#18,.T.);
#833=EDGE_CURVE('',#654,#667,#343,.T.);
#834=EDGE_CURVE('',#670,#679,#344,.T.);
#835=EDGE_CURVE('',#679,#680,#345,.T.);
#836=EDGE_CURVE('',#681,#680,#346,.T.);
#837=EDGE_CURVE('',#682,#681,#347,.T.);
#838=EDGE_CURVE('',#682,#651,#348,.T.);
#839=EDGE_CURVE('',#683,#669,#349,.T.);
#840=EDGE_CURVE('',#683,#679,#350,.T.);
#841=EDGE_CURVE('',#668,#653,#351,.T.);
#842=EDGE_CURVE('',#660,#684,#352,.T.);
#843=EDGE_CURVE('',#684,#685,#353,.T.);
#844=EDGE_CURVE('',#686,#685,#354,.T.);
#845=EDGE_CURVE('',#687,#686,#355,.T.);
#846=EDGE_CURVE('',#687,#677,#356,.T.);
#847=EDGE_CURVE('',#676,#661,#357,.T.);
#848=EDGE_CURVE('',#688,#659,#358,.T.);
#849=EDGE_CURVE('',#688,#684,#359,.T.);
#850=EDGE_CURVE('',#687,#689,#360,.T.);
#851=EDGE_CURVE('',#678,#689,#361,.T.);
#852=EDGE_CURVE('',#652,#690,#362,.T.);
#853=EDGE_CURVE('',#690,#691,#363,.T.);
#854=EDGE_CURVE('',#691,#692,#364,.T.);
#855=EDGE_CURVE('',#692,#683,#365,.T.);
#856=EDGE_CURVE('',#682,#690,#366,.T.);
#857=EDGE_CURVE('',#693,#691,#367,.T.);
#858=EDGE_CURVE('',#694,#693,#368,.T.);
#859=EDGE_CURVE('',#694,#692,#369,.T.);
#860=EDGE_CURVE('',#662,#675,#370,.T.);
#861=EDGE_CURVE('',#689,#695,#371,.T.);
#862=EDGE_CURVE('',#695,#696,#372,.T.);
#863=EDGE_CURVE('',#696,#688,#373,.T.);
#864=EDGE_CURVE('',#697,#695,#374,.T.);
#865=EDGE_CURVE('',#698,#697,#375,.T.);
#866=EDGE_CURVE('',#698,#696,#376,.T.);
#867=EDGE_CURVE('',#699,#700,#377,.T.);
#868=EDGE_CURVE('',#700,#701,#378,.T.);
#869=EDGE_CURVE('',#702,#701,#379,.T.);
#870=EDGE_CURVE('',#699,#702,#380,.T.);
#871=EDGE_CURVE('',#703,#699,#381,.T.);
#872=EDGE_CURVE('',#704,#702,#382,.T.);
#873=EDGE_CURVE('',#703,#704,#383,.T.);
#874=EDGE_CURVE('',#705,#703,#384,.T.);
#875=EDGE_CURVE('',#706,#704,#385,.T.);
#876=EDGE_CURVE('',#705,#706,#386,.T.);
#877=EDGE_CURVE('',#700,#705,#387,.T.);
#878=EDGE_CURVE('',#701,#706,#388,.T.);
#879=EDGE_CURVE('',#693,#698,#389,.T.);
#880=EDGE_CURVE('',#685,#681,#390,.T.);
#881=EDGE_CURVE('',#697,#694,#391,.T.);
#882=EDGE_CURVE('',#680,#686,#392,.T.);
#883=EDGE_CURVE('',#707,#707,#595,.T.);
#884=EDGE_CURVE('',#707,#708,#393,.T.);
#885=EDGE_CURVE('',#708,#708,#596,.T.);
#886=EDGE_CURVE('',#709,#709,#597,.T.);
#887=EDGE_CURVE('',#709,#710,#394,.T.);
#888=EDGE_CURVE('',#710,#710,#598,.T.);
#889=EDGE_CURVE('',#711,#711,#599,.T.);
#890=EDGE_CURVE('',#711,#712,#395,.T.);
#891=EDGE_CURVE('',#712,#712,#600,.T.);
#892=EDGE_CURVE('',#713,#713,#601,.T.);
#893=EDGE_CURVE('',#713,#714,#396,.T.);
#894=EDGE_CURVE('',#714,#714,#602,.T.);
#895=EDGE_CURVE('',#715,#715,#603,.T.);
#896=EDGE_CURVE('',#715,#716,#397,.T.);
#897=EDGE_CURVE('',#716,#716,#604,.T.);
#898=EDGE_CURVE('',#717,#717,#605,.T.);
#899=EDGE_CURVE('',#717,#718,#398,.T.);
#900=EDGE_CURVE('',#718,#718,#606,.T.);
#901=EDGE_CURVE('',#719,#719,#607,.T.);
#902=EDGE_CURVE('',#719,#720,#399,.T.);
#903=EDGE_CURVE('',#720,#720,#608,.T.);
#904=EDGE_CURVE('',#721,#721,#609,.T.);
#905=EDGE_CURVE('',#721,#722,#400,.T.);
#906=EDGE_CURVE('',#722,#722,#610,.T.);
#907=EDGE_CURVE('',#723,#724,#401,.T.);
#908=EDGE_CURVE('',#724,#725,#402,.T.);
#909=EDGE_CURVE('',#726,#725,#403,.T.);
#910=EDGE_CURVE('',#723,#726,#404,.T.);
#911=EDGE_CURVE('',#727,#723,#405,.T.);
#912=EDGE_CURVE('',#728,#726,#406,.T.);
#913=EDGE_CURVE('',#727,#728,#407,.T.);
#914=EDGE_CURVE('',#729,#727,#408,.T.);
#915=EDGE_CURVE('',#730,#728,#409,.T.);
#916=EDGE_CURVE('',#729,#730,#410,.T.);
#917=EDGE_CURVE('',#724,#729,#411,.T.);
#918=EDGE_CURVE('',#725,#730,#412,.T.);
#919=EDGE_CURVE('',#731,#732,#413,.T.);
#920=EDGE_CURVE('',#731,#733,#414,.T.);
#921=EDGE_CURVE('',#734,#733,#415,.T.);
#922=EDGE_CURVE('',#732,#734,#416,.T.);
#923=EDGE_CURVE('',#732,#735,#417,.T.);
#924=EDGE_CURVE('',#736,#734,#418,.T.);
#925=EDGE_CURVE('',#735,#736,#419,.T.);
#926=EDGE_CURVE('',#735,#737,#420,.T.);
#927=EDGE_CURVE('',#738,#736,#421,.T.);
#928=EDGE_CURVE('',#737,#738,#422,.T.);
#929=EDGE_CURVE('',#737,#731,#423,.T.);
#930=EDGE_CURVE('',#733,#738,#424,.T.);
#931=ORIENTED_EDGE('',*,*,#739,.F.);
#932=ORIENTED_EDGE('',*,*,#740,.T.);
#933=ORIENTED_EDGE('',*,*,#741,.F.);
#934=ORIENTED_EDGE('',*,*,#740,.F.);
#935=ORIENTED_EDGE('',*,*,#742,.F.);
#936=ORIENTED_EDGE('',*,*,#743,.T.);
#937=ORIENTED_EDGE('',*,*,#744,.F.);
#938=ORIENTED_EDGE('',*,*,#743,.F.);
#939=ORIENTED_EDGE('',*,*,#745,.F.);
#940=ORIENTED_EDGE('',*,*,#746,.T.);
#941=ORIENTED_EDGE('',*,*,#747,.F.);
#942=ORIENTED_EDGE('',*,*,#746,.F.);
#943=ORIENTED_EDGE('',*,*,#748,.F.);
#944=ORIENTED_EDGE('',*,*,#749,.T.);
#945=ORIENTED_EDGE('',*,*,#750,.F.);
#946=ORIENTED_EDGE('',*,*,#749,.F.);
#947=ORIENTED_EDGE('',*,*,#751,.F.);
#948=ORIENTED_EDGE('',*,*,#752,.T.);
#949=ORIENTED_EDGE('',*,*,#753,.T.);
#950=ORIENTED_EDGE('',*,*,#752,.F.);
#951=ORIENTED_EDGE('',*,*,#754,.F.);
#952=ORIENTED_EDGE('',*,*,#755,.T.);
#953=ORIENTED_EDGE('',*,*,#756,.T.);
#954=ORIENTED_EDGE('',*,*,#755,.F.);
#955=ORIENTED_EDGE('',*,*,#757,.F.);
#956=ORIENTED_EDGE('',*,*,#758,.T.);
#957=ORIENTED_EDGE('',*,*,#759,.T.);
#958=ORIENTED_EDGE('',*,*,#758,.F.);
#959=ORIENTED_EDGE('',*,*,#760,.F.);
#960=ORIENTED_EDGE('',*,*,#761,.T.);
#961=ORIENTED_EDGE('',*,*,#762,.T.);
#962=ORIENTED_EDGE('',*,*,#761,.F.);
#963=ORIENTED_EDGE('',*,*,#763,.F.);
#964=ORIENTED_EDGE('',*,*,#764,.T.);
#965=ORIENTED_EDGE('',*,*,#765,.T.);
#966=ORIENTED_EDGE('',*,*,#764,.F.);
#967=ORIENTED_EDGE('',*,*,#766,.F.);
#968=ORIENTED_EDGE('',*,*,#767,.T.);
#969=ORIENTED_EDGE('',*,*,#768,.T.);
#970=ORIENTED_EDGE('',*,*,#767,.F.);
#971=ORIENTED_EDGE('',*,*,#769,.T.);
#972=ORIENTED_EDGE('',*,*,#770,.T.);
#973=ORIENTED_EDGE('',*,*,#771,.F.);
#974=ORIENTED_EDGE('',*,*,#772,.F.);
#975=ORIENTED_EDGE('',*,*,#773,.T.);
#976=ORIENTED_EDGE('',*,*,#772,.T.);
#977=ORIENTED_EDGE('',*,*,#774,.F.);
#978=ORIENTED_EDGE('',*,*,#775,.F.);
#979=ORIENTED_EDGE('',*,*,#776,.T.);
#980=ORIENTED_EDGE('',*,*,#775,.T.);
#981=ORIENTED_EDGE('',*,*,#777,.F.);
#982=ORIENTED_EDGE('',*,*,#778,.F.);
#983=ORIENTED_EDGE('',*,*,#779,.T.);
#984=ORIENTED_EDGE('',*,*,#778,.T.);
#985=ORIENTED_EDGE('',*,*,#780,.F.);
#986=ORIENTED_EDGE('',*,*,#770,.F.);
#987=ORIENTED_EDGE('',*,*,#781,.F.);
#988=ORIENTED_EDGE('',*,*,#782,.T.);
#989=ORIENTED_EDGE('',*,*,#783,.F.);
#990=ORIENTED_EDGE('',*,*,#784,.F.);
#991=ORIENTED_EDGE('',*,*,#785,.F.);
#992=ORIENTED_EDGE('',*,*,#784,.T.);
#993=ORIENTED_EDGE('',*,*,#786,.F.);
#994=ORIENTED_EDGE('',*,*,#787,.F.);
#995=ORIENTED_EDGE('',*,*,#788,.F.);
#996=ORIENTED_EDGE('',*,*,#787,.T.);
#997=ORIENTED_EDGE('',*,*,#789,.F.);
#998=ORIENTED_EDGE('',*,*,#790,.F.);
#999=ORIENTED_EDGE('',*,*,#791,.F.);
#1000=ORIENTED_EDGE('',*,*,#790,.T.);
#1001=ORIENTED_EDGE('',*,*,#792,.F.);
#1002=ORIENTED_EDGE('',*,*,#782,.F.);
#1003=ORIENTED_EDGE('',*,*,#792,.T.);
#1004=ORIENTED_EDGE('',*,*,#789,.T.);
#1005=ORIENTED_EDGE('',*,*,#786,.T.);
#1006=ORIENTED_EDGE('',*,*,#783,.T.);
#1007=ORIENTED_EDGE('',*,*,#751,.T.);
#1008=ORIENTED_EDGE('',*,*,#754,.T.);
#1009=ORIENTED_EDGE('',*,*,#757,.T.);
#1010=ORIENTED_EDGE('',*,*,#760,.T.);
#1011=ORIENTED_EDGE('',*,*,#763,.T.);
#1012=ORIENTED_EDGE('',*,*,#766,.T.);
#1013=ORIENTED_EDGE('',*,*,#780,.T.);
#1014=ORIENTED_EDGE('',*,*,#777,.T.);
#1015=ORIENTED_EDGE('',*,*,#774,.T.);
#1016=ORIENTED_EDGE('',*,*,#771,.T.);
#1017=ORIENTED_EDGE('',*,*,#748,.T.);
#1018=ORIENTED_EDGE('',*,*,#745,.T.);
#1019=ORIENTED_EDGE('',*,*,#742,.T.);
#1020=ORIENTED_EDGE('',*,*,#739,.T.);
#1021=ORIENTED_EDGE('',*,*,#791,.T.);
#1022=ORIENTED_EDGE('',*,*,#781,.T.);
#1023=ORIENTED_EDGE('',*,*,#785,.T.);
#1024=ORIENTED_EDGE('',*,*,#788,.T.);
#1025=ORIENTED_EDGE('',*,*,#753,.F.);
#1026=ORIENTED_EDGE('',*,*,#756,.F.);
#1027=ORIENTED_EDGE('',*,*,#759,.F.);
#1028=ORIENTED_EDGE('',*,*,#762,.F.);
#1029=ORIENTED_EDGE('',*,*,#765,.F.);
#1030=ORIENTED_EDGE('',*,*,#768,.F.);
#1031=ORIENTED_EDGE('',*,*,#779,.F.);
#1032=ORIENTED_EDGE('',*,*,#769,.F.);
#1033=ORIENTED_EDGE('',*,*,#773,.F.);
#1034=ORIENTED_EDGE('',*,*,#776,.F.);
#1035=ORIENTED_EDGE('',*,*,#750,.T.);
#1036=ORIENTED_EDGE('',*,*,#747,.T.);
#1037=ORIENTED_EDGE('',*,*,#744,.T.);
#1038=ORIENTED_EDGE('',*,*,#741,.T.);
#1039=ORIENTED_EDGE('',*,*,#793,.F.);
#1040=ORIENTED_EDGE('',*,*,#794,.F.);
#1041=ORIENTED_EDGE('',*,*,#795,.F.);
#1042=ORIENTED_EDGE('',*,*,#796,.F.);
#1043=ORIENTED_EDGE('',*,*,#797,.T.);
#1044=ORIENTED_EDGE('',*,*,#794,.T.);
#1045=ORIENTED_EDGE('',*,*,#798,.F.);
#1046=ORIENTED_EDGE('',*,*,#799,.F.);
#1047=ORIENTED_EDGE('',*,*,#800,.F.);
#1048=ORIENTED_EDGE('',*,*,#801,.F.);
#1049=ORIENTED_EDGE('',*,*,#802,.F.);
#1050=ORIENTED_EDGE('',*,*,#795,.T.);
#1051=ORIENTED_EDGE('',*,*,#797,.F.);
#1052=ORIENTED_EDGE('',*,*,#803,.F.);
#1053=ORIENTED_EDGE('',*,*,#804,.F.);
#1054=ORIENTED_EDGE('',*,*,#805,.F.);
#1055=ORIENTED_EDGE('',*,*,#806,.T.);
#1056=ORIENTED_EDGE('',*,*,#807,.F.);
#1057=ORIENTED_EDGE('',*,*,#808,.F.);
#1058=ORIENTED_EDGE('',*,*,#809,.F.);
#1059=ORIENTED_EDGE('',*,*,#804,.T.);
#1060=ORIENTED_EDGE('',*,*,#810,.F.);
#1061=ORIENTED_EDGE('',*,*,#811,.F.);
#1062=ORIENTED_EDGE('',*,*,#812,.F.);
#1063=ORIENTED_EDGE('',*,*,#806,.F.);
#1064=ORIENTED_EDGE('',*,*,#813,.F.);
#1065=ORIENTED_EDGE('',*,*,#814,.F.);
#1066=ORIENTED_EDGE('',*,*,#815,.F.);
#1067=ORIENTED_EDGE('',*,*,#816,.F.);
#1068=ORIENTED_EDGE('',*,*,#817,.T.);
#1069=ORIENTED_EDGE('',*,*,#814,.T.);
#1070=ORIENTED_EDGE('',*,*,#818,.F.);
#1071=ORIENTED_EDGE('',*,*,#819,.F.);
#1072=ORIENTED_EDGE('',*,*,#820,.F.);
#1073=ORIENTED_EDGE('',*,*,#821,.F.);
#1074=ORIENTED_EDGE('',*,*,#822,.F.);
#1075=ORIENTED_EDGE('',*,*,#815,.T.);
#1076=ORIENTED_EDGE('',*,*,#817,.F.);
#1077=ORIENTED_EDGE('',*,*,#823,.F.);
#1078=ORIENTED_EDGE('',*,*,#824,.F.);
#1079=ORIENTED_EDGE('',*,*,#825,.F.);
#1080=ORIENTED_EDGE('',*,*,#826,.T.);
#1081=ORIENTED_EDGE('',*,*,#827,.F.);
#1082=ORIENTED_EDGE('',*,*,#828,.F.);
#1083=ORIENTED_EDGE('',*,*,#829,.F.);
#1084=ORIENTED_EDGE('',*,*,#824,.T.);
#1085=ORIENTED_EDGE('',*,*,#830,.F.);
#1086=ORIENTED_EDGE('',*,*,#831,.F.);
#1087=ORIENTED_EDGE('',*,*,#832,.F.);
#1088=ORIENTED_EDGE('',*,*,#826,.F.);
#1089=ORIENTED_EDGE('',*,*,#798,.T.);
#1090=ORIENTED_EDGE('',*,*,#793,.T.);
#1091=ORIENTED_EDGE('',*,*,#802,.T.);
#1092=ORIENTED_EDGE('',*,*,#833,.T.);
#1093=ORIENTED_EDGE('',*,*,#818,.T.);
#1094=ORIENTED_EDGE('',*,*,#813,.T.);
#1095=ORIENTED_EDGE('',*,*,#822,.T.);
#1096=ORIENTED_EDGE('',*,*,#834,.T.);
#1097=ORIENTED_EDGE('',*,*,#835,.T.);
#1098=ORIENTED_EDGE('',*,*,#836,.F.);
#1099=ORIENTED_EDGE('',*,*,#837,.F.);
#1100=ORIENTED_EDGE('',*,*,#838,.T.);
#1101=ORIENTED_EDGE('',*,*,#821,.T.);
#1102=ORIENTED_EDGE('',*,*,#839,.F.);
#1103=ORIENTED_EDGE('',*,*,#840,.T.);
#1104=ORIENTED_EDGE('',*,*,#834,.F.);
#1105=ORIENTED_EDGE('',*,*,#801,.T.);
#1106=ORIENTED_EDGE('',*,*,#841,.F.);
#1107=ORIENTED_EDGE('',*,*,#819,.T.);
#1108=ORIENTED_EDGE('',*,*,#833,.F.);
#1109=ORIENTED_EDGE('',*,*,#810,.T.);
#1110=ORIENTED_EDGE('',*,*,#803,.T.);
#1111=ORIENTED_EDGE('',*,*,#809,.T.);
#1112=ORIENTED_EDGE('',*,*,#842,.T.);
#1113=ORIENTED_EDGE('',*,*,#843,.T.);
#1114=ORIENTED_EDGE('',*,*,#844,.F.);
#1115=ORIENTED_EDGE('',*,*,#845,.F.);
#1116=ORIENTED_EDGE('',*,*,#846,.T.);
#1117=ORIENTED_EDGE('',*,*,#830,.T.);
#1118=ORIENTED_EDGE('',*,*,#823,.T.);
#1119=ORIENTED_EDGE('',*,*,#829,.T.);
#1120=ORIENTED_EDGE('',*,*,#847,.T.);
#1121=ORIENTED_EDGE('',*,*,#808,.T.);
#1122=ORIENTED_EDGE('',*,*,#848,.F.);
#1123=ORIENTED_EDGE('',*,*,#849,.T.);
#1124=ORIENTED_EDGE('',*,*,#842,.F.);
#1125=ORIENTED_EDGE('',*,*,#831,.T.);
#1126=ORIENTED_EDGE('',*,*,#846,.F.);
#1127=ORIENTED_EDGE('',*,*,#850,.T.);
#1128=ORIENTED_EDGE('',*,*,#851,.F.);
#1129=ORIENTED_EDGE('',*,*,#800,.T.);
#1130=ORIENTED_EDGE('',*,*,#852,.T.);
#1131=ORIENTED_EDGE('',*,*,#853,.T.);
#1132=ORIENTED_EDGE('',*,*,#854,.T.);
#1133=ORIENTED_EDGE('',*,*,#855,.T.);
#1134=ORIENTED_EDGE('',*,*,#839,.T.);
#1135=ORIENTED_EDGE('',*,*,#820,.T.);
#1136=ORIENTED_EDGE('',*,*,#841,.T.);
#1137=ORIENTED_EDGE('',*,*,#799,.T.);
#1138=ORIENTED_EDGE('',*,*,#838,.F.);
#1139=ORIENTED_EDGE('',*,*,#856,.T.);
#1140=ORIENTED_EDGE('',*,*,#852,.F.);
#1141=ORIENTED_EDGE('',*,*,#854,.F.);
#1142=ORIENTED_EDGE('',*,*,#857,.F.);
#1143=ORIENTED_EDGE('',*,*,#858,.F.);
#1144=ORIENTED_EDGE('',*,*,#859,.T.);
#1145=ORIENTED_EDGE('',*,*,#807,.T.);
#1146=ORIENTED_EDGE('',*,*,#812,.T.);
#1147=ORIENTED_EDGE('',*,*,#860,.T.);
#1148=ORIENTED_EDGE('',*,*,#827,.T.);
#1149=ORIENTED_EDGE('',*,*,#832,.T.);
#1150=ORIENTED_EDGE('',*,*,#851,.T.);
#1151=ORIENTED_EDGE('',*,*,#861,.T.);
#1152=ORIENTED_EDGE('',*,*,#862,.T.);
#1153=ORIENTED_EDGE('',*,*,#863,.T.);
#1154=ORIENTED_EDGE('',*,*,#848,.T.);
#1155=ORIENTED_EDGE('',*,*,#811,.T.);
#1156=ORIENTED_EDGE('',*,*,#847,.F.);
#1157=ORIENTED_EDGE('',*,*,#828,.T.);
#1158=ORIENTED_EDGE('',*,*,#860,.F.);
#1159=ORIENTED_EDGE('',*,*,#862,.F.);
#1160=ORIENTED_EDGE('',*,*,#864,.F.);
#1161=ORIENTED_EDGE('',*,*,#865,.F.);
#1162=ORIENTED_EDGE('',*,*,#866,.T.);
#1163=ORIENTED_EDGE('',*,*,#867,.T.);
#1164=ORIENTED_EDGE('',*,*,#868,.T.);
#1165=ORIENTED_EDGE('',*,*,#869,.F.);
#1166=ORIENTED_EDGE('',*,*,#870,.F.);
#1167=ORIENTED_EDGE('',*,*,#871,.T.);
#1168=ORIENTED_EDGE('',*,*,#870,.T.);
#1169=ORIENTED_EDGE('',*,*,#872,.F.);
#1170=ORIENTED_EDGE('',*,*,#873,.F.);
#1171=ORIENTED_EDGE('',*,*,#874,.T.);
#1172=ORIENTED_EDGE('',*,*,#873,.T.);
#1173=ORIENTED_EDGE('',*,*,#875,.F.);
#1174=ORIENTED_EDGE('',*,*,#876,.F.);
#1175=ORIENTED_EDGE('',*,*,#877,.T.);
#1176=ORIENTED_EDGE('',*,*,#876,.T.);
#1177=ORIENTED_EDGE('',*,*,#878,.F.);
#1178=ORIENTED_EDGE('',*,*,#868,.F.);
#1179=ORIENTED_EDGE('',*,*,#879,.F.);
#1180=ORIENTED_EDGE('',*,*,#857,.T.);
#1181=ORIENTED_EDGE('',*,*,#853,.F.);
#1182=ORIENTED_EDGE('',*,*,#856,.F.);
#1183=ORIENTED_EDGE('',*,*,#837,.T.);
#1184=ORIENTED_EDGE('',*,*,#880,.F.);
#1185=ORIENTED_EDGE('',*,*,#843,.F.);
#1186=ORIENTED_EDGE('',*,*,#849,.F.);
#1187=ORIENTED_EDGE('',*,*,#863,.F.);
#1188=ORIENTED_EDGE('',*,*,#866,.F.);
#1189=ORIENTED_EDGE('',*,*,#881,.F.);
#1190=ORIENTED_EDGE('',*,*,#864,.T.);
#1191=ORIENTED_EDGE('',*,*,#861,.F.);
#1192=ORIENTED_EDGE('',*,*,#850,.F.);
#1193=ORIENTED_EDGE('',*,*,#845,.T.);
#1194=ORIENTED_EDGE('',*,*,#882,.F.);
#1195=ORIENTED_EDGE('',*,*,#835,.F.);
#1196=ORIENTED_EDGE('',*,*,#840,.F.);
#1197=ORIENTED_EDGE('',*,*,#855,.F.);
#1198=ORIENTED_EDGE('',*,*,#859,.F.);
#1199=ORIENTED_EDGE('',*,*,#882,.T.);
#1200=ORIENTED_EDGE('',*,*,#844,.T.);
#1201=ORIENTED_EDGE('',*,*,#880,.T.);
#1202=ORIENTED_EDGE('',*,*,#836,.T.);
#1203=ORIENTED_EDGE('',*,*,#878,.T.);
#1204=ORIENTED_EDGE('',*,*,#875,.T.);
#1205=ORIENTED_EDGE('',*,*,#872,.T.);
#1206=ORIENTED_EDGE('',*,*,#869,.T.);
#1207=ORIENTED_EDGE('',*,*,#881,.T.);
#1208=ORIENTED_EDGE('',*,*,#858,.T.);
#1209=ORIENTED_EDGE('',*,*,#879,.T.);
#1210=ORIENTED_EDGE('',*,*,#865,.T.);
#1211=ORIENTED_EDGE('',*,*,#877,.F.);
#1212=ORIENTED_EDGE('',*,*,#867,.F.);
#1213=ORIENTED_EDGE('',*,*,#871,.F.);
#1214=ORIENTED_EDGE('',*,*,#874,.F.);
#1215=ORIENTED_EDGE('',*,*,#825,.T.);
#1216=ORIENTED_EDGE('',*,*,#816,.T.);
#1217=ORIENTED_EDGE('',*,*,#805,.T.);
#1218=ORIENTED_EDGE('',*,*,#796,.T.);
#1219=ORIENTED_EDGE('',*,*,#883,.F.);
#1220=ORIENTED_EDGE('',*,*,#884,.T.);
#1221=ORIENTED_EDGE('',*,*,#885,.F.);
#1222=ORIENTED_EDGE('',*,*,#884,.F.);
#1223=ORIENTED_EDGE('',*,*,#886,.F.);
#1224=ORIENTED_EDGE('',*,*,#887,.T.);
#1225=ORIENTED_EDGE('',*,*,#888,.F.);
#1226=ORIENTED_EDGE('',*,*,#887,.F.);
#1227=ORIENTED_EDGE('',*,*,#889,.F.);
#1228=ORIENTED_EDGE('',*,*,#890,.T.);
#1229=ORIENTED_EDGE('',*,*,#891,.F.);
#1230=ORIENTED_EDGE('',*,*,#890,.F.);
#1231=ORIENTED_EDGE('',*,*,#892,.F.);
#1232=ORIENTED_EDGE('',*,*,#893,.T.);
#1233=ORIENTED_EDGE('',*,*,#894,.F.);
#1234=ORIENTED_EDGE('',*,*,#893,.F.);
#1235=ORIENTED_EDGE('',*,*,#895,.F.);
#1236=ORIENTED_EDGE('',*,*,#896,.T.);
#1237=ORIENTED_EDGE('',*,*,#897,.T.);
#1238=ORIENTED_EDGE('',*,*,#896,.F.);
#1239=ORIENTED_EDGE('',*,*,#898,.F.);
#1240=ORIENTED_EDGE('',*,*,#899,.T.);
#1241=ORIENTED_EDGE('',*,*,#900,.T.);
#1242=ORIENTED_EDGE('',*,*,#899,.F.);
#1243=ORIENTED_EDGE('',*,*,#901,.F.);
#1244=ORIENTED_EDGE('',*,*,#902,.T.);
#1245=ORIENTED_EDGE('',*,*,#903,.T.);
#1246=ORIENTED_EDGE('',*,*,#902,.F.);
#1247=ORIENTED_EDGE('',*,*,#904,.F.);
#1248=ORIENTED_EDGE('',*,*,#905,.T.);
#1249=ORIENTED_EDGE('',*,*,#906,.T.);
#1250=ORIENTED_EDGE('',*,*,#905,.F.);
#1251=ORIENTED_EDGE('',*,*,#907,.T.);
#1252=ORIENTED_EDGE('',*,*,#908,.T.);
#1253=ORIENTED_EDGE('',*,*,#909,.F.);
#1254=ORIENTED_EDGE('',*,*,#910,.F.);
#1255=ORIENTED_EDGE('',*,*,#911,.T.);
#1256=ORIENTED_EDGE('',*,*,#910,.T.);
#1257=ORIENTED_EDGE('',*,*,#912,.F.);
#1258=ORIENTED_EDGE('',*,*,#913,.F.);
#1259=ORIENTED_EDGE('',*,*,#914,.T.);
#1260=ORIENTED_EDGE('',*,*,#913,.T.);
#1261=ORIENTED_EDGE('',*,*,#915,.F.);
#1262=ORIENTED_EDGE('',*,*,#916,.F.);
#1263=ORIENTED_EDGE('',*,*,#917,.T.);
#1264=ORIENTED_EDGE('',*,*,#916,.T.);
#1265=ORIENTED_EDGE('',*,*,#918,.F.);
#1266=ORIENTED_EDGE('',*,*,#908,.F.);
#1267=ORIENTED_EDGE('',*,*,#919,.F.);
#1268=ORIENTED_EDGE('',*,*,#920,.T.);
#1269=ORIENTED_EDGE('',*,*,#921,.F.);
#1270=ORIENTED_EDGE('',*,*,#922,.F.);
#1271=ORIENTED_EDGE('',*,*,#923,.F.);
#1272=ORIENTED_EDGE('',*,*,#922,.T.);
#1273=ORIENTED_EDGE('',*,*,#924,.F.);
#1274=ORIENTED_EDGE('',*,*,#925,.F.);
#1275=ORIENTED_EDGE('',*,*,#926,.F.);
#1276=ORIENTED_EDGE('',*,*,#925,.T.);
#1277=ORIENTED_EDGE('',*,*,#927,.F.);
#1278=ORIENTED_EDGE('',*,*,#928,.F.);
#1279=ORIENTED_EDGE('',*,*,#929,.F.);
#1280=ORIENTED_EDGE('',*,*,#928,.T.);
#1281=ORIENTED_EDGE('',*,*,#930,.F.);
#1282=ORIENTED_EDGE('',*,*,#920,.F.);
#1283=ORIENTED_EDGE('',*,*,#930,.T.);
#1284=ORIENTED_EDGE('',*,*,#927,.T.);
#1285=ORIENTED_EDGE('',*,*,#924,.T.);
#1286=ORIENTED_EDGE('',*,*,#921,.T.);
#1287=ORIENTED_EDGE('',*,*,#895,.T.);
#1288=ORIENTED_EDGE('',*,*,#898,.T.);
#1289=ORIENTED_EDGE('',*,*,#901,.T.);
#1290=ORIENTED_EDGE('',*,*,#904,.T.);
#1291=ORIENTED_EDGE('',*,*,#918,.T.);
#1292=ORIENTED_EDGE('',*,*,#915,.T.);
#1293=ORIENTED_EDGE('',*,*,#912,.T.);
#1294=ORIENTED_EDGE('',*,*,#909,.T.);
#1295=ORIENTED_EDGE('',*,*,#894,.T.);
#1296=ORIENTED_EDGE('',*,*,#891,.T.);
#1297=ORIENTED_EDGE('',*,*,#888,.T.);
#1298=ORIENTED_EDGE('',*,*,#885,.T.);
#1299=ORIENTED_EDGE('',*,*,#929,.T.);
#1300=ORIENTED_EDGE('',*,*,#919,.T.);
#1301=ORIENTED_EDGE('',*,*,#923,.T.);
#1302=ORIENTED_EDGE('',*,*,#926,.T.);
#1303=ORIENTED_EDGE('',*,*,#897,.F.);
#1304=ORIENTED_EDGE('',*,*,#900,.F.);
#1305=ORIENTED_EDGE('',*,*,#903,.F.);
#1306=ORIENTED_EDGE('',*,*,#906,.F.);
#1307=ORIENTED_EDGE('',*,*,#917,.F.);
#1308=ORIENTED_EDGE('',*,*,#907,.F.);
#1309=ORIENTED_EDGE('',*,*,#911,.F.);
#1310=ORIENTED_EDGE('',*,*,#914,.F.);
#1311=ORIENTED_EDGE('',*,*,#892,.T.);
#1312=ORIENTED_EDGE('',*,*,#889,.T.);
#1313=ORIENTED_EDGE('',*,*,#886,.T.);
#1314=ORIENTED_EDGE('',*,*,#883,.T.);
#1315=CYLINDRICAL_SURFACE('',#1419,2.25);
#1316=CYLINDRICAL_SURFACE('',#1422,2.25);
#1317=CYLINDRICAL_SURFACE('',#1425,2.25);
#1318=CYLINDRICAL_SURFACE('',#1428,2.25);
#1319=CYLINDRICAL_SURFACE('',#1431,2.79999999999999);
#1320=CYLINDRICAL_SURFACE('',#1434,2.79999999999999);
#1321=CYLINDRICAL_SURFACE('',#1437,2.79999999999999);
#1322=CYLINDRICAL_SURFACE('',#1440,2.79999999999999);
#1323=CYLINDRICAL_SURFACE('',#1443,2.79999999999999);
#1324=CYLINDRICAL_SURFACE('',#1446,2.79999999999999);
#1325=CYLINDRICAL_SURFACE('',#1462,2.25);
#1326=CYLINDRICAL_SURFACE('',#1469,2.25);
#1327=CYLINDRICAL_SURFACE('',#1478,2.25);
#1328=CYLINDRICAL_SURFACE('',#1485,2.25);
#1329=CYLINDRICAL_SURFACE('',#1511,2.25);
#1330=CYLINDRICAL_SURFACE('',#1514,2.25);
#1331=CYLINDRICAL_SURFACE('',#1517,2.25);
#1332=CYLINDRICAL_SURFACE('',#1520,2.25);
#1333=CYLINDRICAL_SURFACE('',#1523,2.79999999999999);
#1334=CYLINDRICAL_SURFACE('',#1526,2.79999999999999);
#1335=CYLINDRICAL_SURFACE('',#1529,2.79999999999999);
#1336=CYLINDRICAL_SURFACE('',#1532,2.79999999999999);
#1337=ADVANCED_FACE('',(#115),#1315,.F.);
#1338=ADVANCED_FACE('',(#116),#1316,.F.);
#1339=ADVANCED_FACE('',(#117),#1317,.F.);
#1340=ADVANCED_FACE('',(#118),#1318,.F.);
#1341=ADVANCED_FACE('',(#119),#1319,.F.);
#1342=ADVANCED_FACE('',(#120),#1320,.F.);
#1343=ADVANCED_FACE('',(#121),#1321,.F.);
#1344=ADVANCED_FACE('',(#122),#1322,.F.);
#1345=ADVANCED_FACE('',(#123),#1323,.F.);
#1346=ADVANCED_FACE('',(#124),#1324,.F.);
#1347=ADVANCED_FACE('',(#125),#71,.T.);
#1348=ADVANCED_FACE('',(#126),#72,.T.);
#1349=ADVANCED_FACE('',(#127),#73,.T.);
#1350=ADVANCED_FACE('',(#128),#74,.T.);
#1351=ADVANCED_FACE('',(#129),#75,.T.);
#1352=ADVANCED_FACE('',(#130),#76,.T.);
#1353=ADVANCED_FACE('',(#131),#77,.T.);
#1354=ADVANCED_FACE('',(#132),#78,.T.);
#1355=ADVANCED_FACE('',(#133,#25,#26,#27,#28,#29,#30,#31,#32,#33,#34,#35),
#79,.T.);
#1356=ADVANCED_FACE('',(#134,#36,#37,#38,#39,#40,#41,#42,#43,#44,#45,#46),
#80,.F.);
#1357=ADVANCED_FACE('',(#135),#81,.T.);
#1358=ADVANCED_FACE('',(#136),#1325,.F.);
#1359=ADVANCED_FACE('',(#137),#82,.T.);
#1360=ADVANCED_FACE('',(#138),#1326,.F.);
#1361=ADVANCED_FACE('',(#139),#83,.T.);
#1362=ADVANCED_FACE('',(#140),#1327,.F.);
#1363=ADVANCED_FACE('',(#141),#84,.T.);
#1364=ADVANCED_FACE('',(#142),#1328,.F.);
#1365=ADVANCED_FACE('',(#143),#85,.T.);
#1366=ADVANCED_FACE('',(#144),#86,.T.);
#1367=ADVANCED_FACE('',(#145),#87,.T.);
#1368=ADVANCED_FACE('',(#146),#88,.T.);
#1369=ADVANCED_FACE('',(#147),#89,.T.);
#1370=ADVANCED_FACE('',(#148),#90,.T.);
#1371=ADVANCED_FACE('',(#149),#91,.T.);
#1372=ADVANCED_FACE('',(#150),#92,.T.);
#1373=ADVANCED_FACE('',(#151),#93,.T.);
#1374=ADVANCED_FACE('',(#152),#94,.T.);
#1375=ADVANCED_FACE('',(#153),#95,.T.);
#1376=ADVANCED_FACE('',(#154),#96,.T.);
#1377=ADVANCED_FACE('',(#155),#97,.T.);
#1378=ADVANCED_FACE('',(#156),#98,.T.);
#1379=ADVANCED_FACE('',(#157),#99,.T.);
#1380=ADVANCED_FACE('',(#158),#100,.T.);
#1381=ADVANCED_FACE('',(#159),#101,.T.);
#1382=ADVANCED_FACE('',(#160),#102,.T.);
#1383=ADVANCED_FACE('',(#161,#47),#103,.T.);
#1384=ADVANCED_FACE('',(#162,#48,#49,#50,#51,#52),#104,.F.);
#1385=ADVANCED_FACE('',(#163),#1329,.F.);
#1386=ADVANCED_FACE('',(#164),#1330,.F.);
#1387=ADVANCED_FACE('',(#165),#1331,.F.);
#1388=ADVANCED_FACE('',(#166),#1332,.F.);
#1389=ADVANCED_FACE('',(#167),#1333,.F.);
#1390=ADVANCED_FACE('',(#168),#1334,.F.);
#1391=ADVANCED_FACE('',(#169),#1335,.F.);
#1392=ADVANCED_FACE('',(#170),#1336,.F.);
#1393=ADVANCED_FACE('',(#171),#105,.T.);
#1394=ADVANCED_FACE('',(#172),#106,.T.);
#1395=ADVANCED_FACE('',(#173),#107,.T.);
#1396=ADVANCED_FACE('',(#174),#108,.T.);
#1397=ADVANCED_FACE('',(#175),#109,.T.);
#1398=ADVANCED_FACE('',(#176),#110,.T.);
#1399=ADVANCED_FACE('',(#177),#111,.T.);
#1400=ADVANCED_FACE('',(#178),#112,.T.);
#1401=ADVANCED_FACE('',(#179,#53,#54,#55,#56,#57,#58,#59,#60,#61),#113,
 .T.);
#1402=ADVANCED_FACE('',(#180,#62,#63,#64,#65,#66,#67,#68,#69,#70),#114,
 .F.);
#1403=CLOSED_SHELL('',(#1337,#1338,#1339,#1340,#1341,#1342,#1343,#1344,
#1345,#1346,#1347,#1348,#1349,#1350,#1351,#1352,#1353,#1354,#1355,#1356));
#1404=CLOSED_SHELL('',(#1357,#1358,#1359,#1360,#1361,#1362,#1363,#1364,
#1365,#1366,#1367,#1368,#1369,#1370,#1371,#1372,#1373,#1374,#1375,#1376,
#1377,#1378,#1379,#1380,#1381,#1382,#1383,#1384));
#1405=CLOSED_SHELL('',(#1385,#1386,#1387,#1388,#1389,#1390,#1391,#1392,
#1393,#1394,#1395,#1396,#1397,#1398,#1399,#1400,#1401,#1402));
#1406=DERIVED_UNIT_ELEMENT(#1408,1.);
#1407=DERIVED_UNIT_ELEMENT(#2323,-3.);
#1408=(
MASS_UNIT()
NAMED_UNIT(*)
SI_UNIT(.KILO.,.GRAM.)
);
#1409=DERIVED_UNIT((#1406,#1407));
#1410=MEASURE_REPRESENTATION_ITEM('density measure',
POSITIVE_RATIO_MEASURE(7850.),#1409);
#1411=PROPERTY_DEFINITION_REPRESENTATION(#1416,#1413);
#1412=PROPERTY_DEFINITION_REPRESENTATION(#1417,#1414);
#1413=REPRESENTATION('material name',(#1415),#2320);
#1414=REPRESENTATION('density',(#1410),#2320);
#1415=DESCRIPTIVE_REPRESENTATION_ITEM('Steel','Steel');
#1416=PROPERTY_DEFINITION('material property','material name',#2330);
#1417=PROPERTY_DEFINITION('material property','density of part',#2330);
#1418=AXIS2_PLACEMENT_3D('',#1931,#1545,#1546);
#1419=AXIS2_PLACEMENT_3D('',#1932,#1547,#1548);
#1420=AXIS2_PLACEMENT_3D('',#1934,#1549,#1550);
#1421=AXIS2_PLACEMENT_3D('',#1937,#1552,#1553);
#1422=AXIS2_PLACEMENT_3D('',#1938,#1554,#1555);
#1423=AXIS2_PLACEMENT_3D('',#1940,#1556,#1557);
#1424=AXIS2_PLACEMENT_3D('',#1943,#1559,#1560);
#1425=AXIS2_PLACEMENT_3D('',#1944,#1561,#1562);
#1426=AXIS2_PLACEMENT_3D('',#1946,#1563,#1564);
#1427=AXIS2_PLACEMENT_3D('',#1949,#1566,#1567);
#1428=AXIS2_PLACEMENT_3D('',#1950,#1568,#1569);
#1429=AXIS2_PLACEMENT_3D('',#1952,#1570,#1571);
#1430=AXIS2_PLACEMENT_3D('',#1955,#1573,#1574);
#1431=AXIS2_PLACEMENT_3D('',#1956,#1575,#1576);
#1432=AXIS2_PLACEMENT_3D('',#1958,#1577,#1578);
#1433=AXIS2_PLACEMENT_3D('',#1961,#1580,#1581);
#1434=AXIS2_PLACEMENT_3D('',#1962,#1582,#1583);
#1435=AXIS2_PLACEMENT_3D('',#1964,#1584,#1585);
#1436=AXIS2_PLACEMENT_3D('',#1967,#1587,#1588);
#1437=AXIS2_PLACEMENT_3D('',#1968,#1589,#1590);
#1438=AXIS2_PLACEMENT_3D('',#1970,#1591,#1592);
#1439=AXIS2_PLACEMENT_3D('',#1973,#1594,#1595);
#1440=AXIS2_PLACEMENT_3D('',#1974,#1596,#1597);
#1441=AXIS2_PLACEMENT_3D('',#1976,#1598,#1599);
#1442=AXIS2_PLACEMENT_3D('',#1979,#1601,#1602);
#1443=AXIS2_PLACEMENT_3D('',#1980,#1603,#1604);
#1444=AXIS2_PLACEMENT_3D('',#1982,#1605,#1606);
#1445=AXIS2_PLACEMENT_3D('',#1985,#1608,#1609);
#1446=AXIS2_PLACEMENT_3D('',#1986,#1610,#1611);
#1447=AXIS2_PLACEMENT_3D('',#1988,#1612,#1613);
#1448=AXIS2_PLACEMENT_3D('',#1991,#1615,#1616);
#1449=AXIS2_PLACEMENT_3D('',#1992,#1617,#1618);
#1450=AXIS2_PLACEMENT_3D('',#2001,#1623,#1624);
#1451=AXIS2_PLACEMENT_3D('',#2007,#1628,#1629);
#1452=AXIS2_PLACEMENT_3D('',#2013,#1633,#1634);
#1453=AXIS2_PLACEMENT_3D('',#2016,#1637,#1638);
#1454=AXIS2_PLACEMENT_3D('',#2025,#1643,#1644);
#1455=AXIS2_PLACEMENT_3D('',#2031,#1648,#1649);
#1456=AXIS2_PLACEMENT_3D('',#2037,#1653,#1654);
#1457=AXIS2_PLACEMENT_3D('',#2040,#1657,#1658);
#1458=AXIS2_PLACEMENT_3D('',#2041,#1659,#1660);
#1459=AXIS2_PLACEMENT_3D('',#2042,#1661,#1662);
#1460=AXIS2_PLACEMENT_3D('',#2047,#1664,#1665);
#1461=AXIS2_PLACEMENT_3D('',#2048,#1666,#1667);
#1462=AXIS2_PLACEMENT_3D('',#2049,#1668,#1669);
#1463=AXIS2_PLACEMENT_3D('',#2051,#1670,#1671);
#1464=AXIS2_PLACEMENT_3D('',#2056,#1674,#1675);
#1465=AXIS2_PLACEMENT_3D('',#2058,#1676,#1677);
#1466=AXIS2_PLACEMENT_3D('',#2060,#1678,#1679);
#1467=AXIS2_PLACEMENT_3D('',#2062,#1681,#1682);
#1468=AXIS2_PLACEMENT_3D('',#2066,#1684,#1685);
#1469=AXIS2_PLACEMENT_3D('',#2067,#1686,#1687);
#1470=AXIS2_PLACEMENT_3D('',#2069,#1688,#1689);
#1471=AXIS2_PLACEMENT_3D('',#2073,#1691,#1692);
#1472=AXIS2_PLACEMENT_3D('',#2075,#1693,#1694);
#1473=AXIS2_PLACEMENT_3D('',#2080,#1697,#1698);
#1474=AXIS2_PLACEMENT_3D('',#2081,#1699,#1700);
#1475=AXIS2_PLACEMENT_3D('',#2082,#1701,#1702);
#1476=AXIS2_PLACEMENT_3D('',#2087,#1704,#1705);
#1477=AXIS2_PLACEMENT_3D('',#2088,#1706,#1707);
#1478=AXIS2_PLACEMENT_3D('',#2089,#1708,#1709);
#1479=AXIS2_PLACEMENT_3D('',#2091,#1710,#1711);
#1480=AXIS2_PLACEMENT_3D('',#2096,#1714,#1715);
#1481=AXIS2_PLACEMENT_3D('',#2098,#1716,#1717);
#1482=AXIS2_PLACEMENT_3D('',#2100,#1718,#1719);
#1483=AXIS2_PLACEMENT_3D('',#2102,#1721,#1722);
#1484=AXIS2_PLACEMENT_3D('',#2106,#1724,#1725);
#1485=AXIS2_PLACEMENT_3D('',#2107,#1726,#1727);
#1486=AXIS2_PLACEMENT_3D('',#2109,#1728,#1729);
#1487=AXIS2_PLACEMENT_3D('',#2113,#1731,#1732);
#1488=AXIS2_PLACEMENT_3D('',#2115,#1733,#1734);
#1489=AXIS2_PLACEMENT_3D('',#2120,#1737,#1738);
#1490=AXIS2_PLACEMENT_3D('',#2121,#1739,#1740);
#1491=AXIS2_PLACEMENT_3D('',#2122,#1741,#1742);
#1492=AXIS2_PLACEMENT_3D('',#2133,#1749,#1750);
#1493=AXIS2_PLACEMENT_3D('',#2137,#1753,#1754);
#1494=AXIS2_PLACEMENT_3D('',#2139,#1756,#1757);
#1495=AXIS2_PLACEMENT_3D('',#2150,#1764,#1765);
#1496=AXIS2_PLACEMENT_3D('',#2154,#1768,#1769);
#1497=AXIS2_PLACEMENT_3D('',#2158,#1772,#1773);
#1498=AXIS2_PLACEMENT_3D('',#2166,#1778,#1779);
#1499=AXIS2_PLACEMENT_3D('',#2168,#1781,#1782);
#1500=AXIS2_PLACEMENT_3D('',#2174,#1786,#1787);
#1501=AXIS2_PLACEMENT_3D('',#2181,#1792,#1793);
#1502=AXIS2_PLACEMENT_3D('',#2182,#1794,#1795);
#1503=AXIS2_PLACEMENT_3D('',#2188,#1799,#1800);
#1504=AXIS2_PLACEMENT_3D('',#2197,#1805,#1806);
#1505=AXIS2_PLACEMENT_3D('',#2203,#1810,#1811);
#1506=AXIS2_PLACEMENT_3D('',#2209,#1815,#1816);
#1507=AXIS2_PLACEMENT_3D('',#2212,#1819,#1820);
#1508=AXIS2_PLACEMENT_3D('',#2215,#1823,#1824);
#1509=AXIS2_PLACEMENT_3D('',#2218,#1827,#1828);
#1510=AXIS2_PLACEMENT_3D('',#2219,#1829,#1830);
#1511=AXIS2_PLACEMENT_3D('',#2220,#1831,#1832);
#1512=AXIS2_PLACEMENT_3D('',#2222,#1833,#1834);
#1513=AXIS2_PLACEMENT_3D('',#2225,#1836,#1837);
#1514=AXIS2_PLACEMENT_3D('',#2226,#1838,#1839);
#1515=AXIS2_PLACEMENT_3D('',#2228,#1840,#1841);
#1516=AXIS2_PLACEMENT_3D('',#2231,#1843,#1844);
#1517=AXIS2_PLACEMENT_3D('',#2232,#1845,#1846);
#1518=AXIS2_PLACEMENT_3D('',#2234,#1847,#1848);
#1519=AXIS2_PLACEMENT_3D('',#2237,#1850,#1851);
#1520=AXIS2_PLACEMENT_3D('',#2238,#1852,#1853);
#1521=AXIS2_PLACEMENT_3D('',#2240,#1854,#1855);
#1522=AXIS2_PLACEMENT_3D('',#2243,#1857,#1858);
#1523=AXIS2_PLACEMENT_3D('',#2244,#1859,#1860);
#1524=AXIS2_PLACEMENT_3D('',#2246,#1861,#1862);
#1525=AXIS2_PLACEMENT_3D('',#2249,#1864,#1865);
#1526=AXIS2_PLACEMENT_3D('',#2250,#1866,#1867);
#1527=AXIS2_PLACEMENT_3D('',#2252,#1868,#1869);
#1528=AXIS2_PLACEMENT_3D('',#2255,#1871,#1872);
#1529=AXIS2_PLACEMENT_3D('',#2256,#1873,#1874);
#1530=AXIS2_PLACEMENT_3D('',#2258,#1875,#1876);
#1531=AXIS2_PLACEMENT_3D('',#2261,#1878,#1879);
#1532=AXIS2_PLACEMENT_3D('',#2262,#1880,#1881);
#1533=AXIS2_PLACEMENT_3D('',#2264,#1882,#1883);
#1534=AXIS2_PLACEMENT_3D('',#2267,#1885,#1886);
#1535=AXIS2_PLACEMENT_3D('',#2268,#1887,#1888);
#1536=AXIS2_PLACEMENT_3D('',#2277,#1893,#1894);
#1537=AXIS2_PLACEMENT_3D('',#2283,#1898,#1899);
#1538=AXIS2_PLACEMENT_3D('',#2289,#1903,#1904);
#1539=AXIS2_PLACEMENT_3D('',#2292,#1907,#1908);
#1540=AXIS2_PLACEMENT_3D('',#2301,#1913,#1914);
#1541=AXIS2_PLACEMENT_3D('',#2307,#1918,#1919);
#1542=AXIS2_PLACEMENT_3D('',#2313,#1923,#1924);
#1543=AXIS2_PLACEMENT_3D('',#2316,#1927,#1928);
#1544=AXIS2_PLACEMENT_3D('',#2317,#1929,#1930);
#1545=DIRECTION('axis',(0.,0.,1.));
#1546=DIRECTION('refdir',(1.,0.,0.));
#1547=DIRECTION('center_axis',(0.,0.,-1.));
#1548=DIRECTION('ref_axis',(1.,0.,0.));
#1549=DIRECTION('center_axis',(0.,0.,-1.));
#1550=DIRECTION('ref_axis',(1.,0.,0.));
#1551=DIRECTION('',(0.,0.,-1.));
#1552=DIRECTION('center_axis',(0.,0.,1.));
#1553=DIRECTION('ref_axis',(1.,0.,0.));
#1554=DIRECTION('center_axis',(0.,0.,-1.));
#1555=DIRECTION('ref_axis',(1.,0.,0.));
#1556=DIRECTION('center_axis',(0.,0.,-1.));
#1557=DIRECTION('ref_axis',(1.,0.,0.));
#1558=DIRECTION('',(0.,0.,-1.));
#1559=DIRECTION('center_axis',(0.,0.,1.));
#1560=DIRECTION('ref_axis',(1.,0.,0.));
#1561=DIRECTION('center_axis',(0.,0.,-1.));
#1562=DIRECTION('ref_axis',(1.,0.,0.));
#1563=DIRECTION('center_axis',(0.,0.,-1.));
#1564=DIRECTION('ref_axis',(1.,0.,0.));
#1565=DIRECTION('',(0.,0.,-1.));
#1566=DIRECTION('center_axis',(0.,0.,1.));
#1567=DIRECTION('ref_axis',(1.,0.,0.));
#1568=DIRECTION('center_axis',(0.,0.,-1.));
#1569=DIRECTION('ref_axis',(1.,0.,0.));
#1570=DIRECTION('center_axis',(0.,0.,-1.));
#1571=DIRECTION('ref_axis',(1.,0.,0.));
#1572=DIRECTION('',(0.,0.,-1.));
#1573=DIRECTION('center_axis',(0.,0.,1.));
#1574=DIRECTION('ref_axis',(1.,0.,0.));
#1575=DIRECTION('center_axis',(0.,0.,1.));
#1576=DIRECTION('ref_axis',(1.,0.,0.));
#1577=DIRECTION('center_axis',(0.,0.,-1.));
#1578=DIRECTION('ref_axis',(1.,0.,0.));
#1579=DIRECTION('',(0.,0.,-1.));
#1580=DIRECTION('center_axis',(0.,0.,-1.));
#1581=DIRECTION('ref_axis',(1.,0.,0.));
#1582=DIRECTION('center_axis',(0.,0.,1.));
#1583=DIRECTION('ref_axis',(1.,0.,0.));
#1584=DIRECTION('center_axis',(0.,0.,-1.));
#1585=DIRECTION('ref_axis',(1.,0.,0.));
#1586=DIRECTION('',(0.,0.,-1.));
#1587=DIRECTION('center_axis',(0.,0.,-1.));
#1588=DIRECTION('ref_axis',(1.,0.,0.));
#1589=DIRECTION('center_axis',(0.,0.,1.));
#1590=DIRECTION('ref_axis',(1.,0.,0.));
#1591=DIRECTION('center_axis',(0.,0.,-1.));
#1592=DIRECTION('ref_axis',(1.,0.,0.));
#1593=DIRECTION('',(0.,0.,-1.));
#1594=DIRECTION('center_axis',(0.,0.,-1.));
#1595=DIRECTION('ref_axis',(1.,0.,0.));
#1596=DIRECTION('center_axis',(0.,0.,1.));
#1597=DIRECTION('ref_axis',(1.,0.,0.));
#1598=DIRECTION('center_axis',(0.,0.,-1.));
#1599=DIRECTION('ref_axis',(1.,0.,0.));
#1600=DIRECTION('',(0.,0.,-1.));
#1601=DIRECTION('center_axis',(0.,0.,-1.));
#1602=DIRECTION('ref_axis',(1.,0.,0.));
#1603=DIRECTION('center_axis',(0.,0.,1.));
#1604=DIRECTION('ref_axis',(1.,0.,0.));
#1605=DIRECTION('center_axis',(0.,0.,-1.));
#1606=DIRECTION('ref_axis',(1.,0.,0.));
#1607=DIRECTION('',(0.,0.,-1.));
#1608=DIRECTION('center_axis',(0.,0.,-1.));
#1609=DIRECTION('ref_axis',(1.,0.,0.));
#1610=DIRECTION('center_axis',(0.,0.,1.));
#1611=DIRECTION('ref_axis',(1.,0.,0.));
#1612=DIRECTION('center_axis',(0.,0.,-1.));
#1613=DIRECTION('ref_axis',(1.,0.,0.));
#1614=DIRECTION('',(0.,0.,-1.));
#1615=DIRECTION('center_axis',(0.,0.,-1.));
#1616=DIRECTION('ref_axis',(1.,0.,0.));
#1617=DIRECTION('center_axis',(0.,-1.,0.));
#1618=DIRECTION('ref_axis',(1.,0.,0.));
#1619=DIRECTION('',(1.,0.,0.));
#1620=DIRECTION('',(0.,0.,1.));
#1621=DIRECTION('',(1.,0.,0.));
#1622=DIRECTION('',(0.,0.,1.));
#1623=DIRECTION('center_axis',(1.,0.,0.));
#1624=DIRECTION('ref_axis',(0.,1.,0.));
#1625=DIRECTION('',(0.,1.,0.));
#1626=DIRECTION('',(0.,1.,0.));
#1627=DIRECTION('',(0.,0.,1.));
#1628=DIRECTION('center_axis',(1.39645425282713E-17,1.,0.));
#1629=DIRECTION('ref_axis',(-1.,1.39645425282713E-17,0.));
#1630=DIRECTION('',(-1.,1.39645425282713E-17,0.));
#1631=DIRECTION('',(-1.,1.39645425282713E-17,0.));
#1632=DIRECTION('',(0.,0.,1.));
#1633=DIRECTION('center_axis',(-1.,0.,0.));
#1634=DIRECTION('ref_axis',(0.,-1.,0.));
#1635=DIRECTION('',(0.,-1.,0.));
#1636=DIRECTION('',(0.,-1.,0.));
#1637=DIRECTION('center_axis',(1.,0.,0.));
#1638=DIRECTION('ref_axis',(0.,1.,0.));
#1639=DIRECTION('',(0.,-1.,0.));
#1640=DIRECTION('',(0.,0.,1.));
#1641=DIRECTION('',(0.,1.,0.));
#1642=DIRECTION('',(0.,0.,1.));
#1643=DIRECTION('center_axis',(0.,-1.,0.));
#1644=DIRECTION('ref_axis',(1.,0.,0.));
#1645=DIRECTION('',(-1.,0.,0.));
#1646=DIRECTION('',(1.,0.,0.));
#1647=DIRECTION('',(0.,0.,1.));
#1648=DIRECTION('center_axis',(-1.,0.,0.));
#1649=DIRECTION('ref_axis',(0.,-1.,0.));
#1650=DIRECTION('',(0.,1.,0.));
#1651=DIRECTION('',(0.,-1.,0.));
#1652=DIRECTION('',(0.,0.,1.));
#1653=DIRECTION('center_axis',(0.,1.,0.));
#1654=DIRECTION('ref_axis',(-1.,0.,0.));
#1655=DIRECTION('',(1.,0.,0.));
#1656=DIRECTION('',(-1.,0.,0.));
#1657=DIRECTION('center_axis',(0.,0.,1.));
#1658=DIRECTION('ref_axis',(1.,0.,0.));
#1659=DIRECTION('center_axis',(0.,0.,1.));
#1660=DIRECTION('ref_axis',(1.,0.,0.));
#1661=DIRECTION('center_axis',(0.,0.,-1.));
#1662=DIRECTION('ref_axis',(1.,0.,0.));
#1663=DIRECTION('',(5.9211894646675E-16,1.,0.));
#1664=DIRECTION('center_axis',(0.,0.,1.));
#1665=DIRECTION('ref_axis',(1.,0.,0.));
#1666=DIRECTION('center_axis',(0.,0.,1.));
#1667=DIRECTION('ref_axis',(1.,0.,0.));
#1668=DIRECTION('center_axis',(0.,0.,1.));
#1669=DIRECTION('ref_axis',(1.,0.,0.));
#1670=DIRECTION('center_axis',(0.,0.,1.));
#1671=DIRECTION('ref_axis',(1.,0.,0.));
#1672=DIRECTION('',(0.,0.,1.));
#1673=DIRECTION('',(0.,0.,1.));
#1674=DIRECTION('center_axis',(0.,0.,-1.));
#1675=DIRECTION('ref_axis',(1.,0.,0.));
#1676=DIRECTION('center_axis',(-0.707106781186548,2.85471356124323E-16,
-0.707106781186548));
#1677=DIRECTION('ref_axis',(0.707106781186547,0.,-0.707106781186547));
#1678=DIRECTION('center_axis',(0.,0.,-1.));
#1679=DIRECTION('ref_axis',(1.,0.,0.));
#1680=DIRECTION('',(0.,0.,-1.));
#1681=DIRECTION('center_axis',(0.,0.,-1.));
#1682=DIRECTION('ref_axis',(1.,0.,0.));
#1683=DIRECTION('',(-5.9211894646675E-16,-1.,0.));
#1684=DIRECTION('center_axis',(0.,0.,1.));
#1685=DIRECTION('ref_axis',(1.,0.,0.));
#1686=DIRECTION('center_axis',(0.,0.,1.));
#1687=DIRECTION('ref_axis',(1.,0.,0.));
#1688=DIRECTION('center_axis',(0.,0.,1.));
#1689=DIRECTION('ref_axis',(1.,0.,0.));
#1690=DIRECTION('',(0.,0.,1.));
#1691=DIRECTION('center_axis',(0.707106781186549,-2.85471356124323E-16,
-0.707106781186546));
#1692=DIRECTION('ref_axis',(0.707106781186546,0.,0.707106781186549));
#1693=DIRECTION('center_axis',(0.,0.,-1.));
#1694=DIRECTION('ref_axis',(1.,0.,0.));
#1695=DIRECTION('',(0.,0.,-1.));
#1696=DIRECTION('',(0.,0.,1.));
#1697=DIRECTION('center_axis',(0.,0.,-1.));
#1698=DIRECTION('ref_axis',(1.,0.,0.));
#1699=DIRECTION('center_axis',(0.707106781186549,-2.85471356124323E-16,
-0.707106781186546));
#1700=DIRECTION('ref_axis',(0.707106781186546,0.,0.707106781186549));
#1701=DIRECTION('center_axis',(0.,0.,-1.));
#1702=DIRECTION('ref_axis',(1.,0.,0.));
#1703=DIRECTION('',(5.9211894646675E-16,1.,0.));
#1704=DIRECTION('center_axis',(0.,0.,1.));
#1705=DIRECTION('ref_axis',(1.,0.,0.));
#1706=DIRECTION('center_axis',(0.,0.,1.));
#1707=DIRECTION('ref_axis',(1.,0.,0.));
#1708=DIRECTION('center_axis',(0.,0.,1.));
#1709=DIRECTION('ref_axis',(1.,0.,0.));
#1710=DIRECTION('center_axis',(0.,0.,1.));
#1711=DIRECTION('ref_axis',(1.,0.,0.));
#1712=DIRECTION('',(0.,0.,1.));
#1713=DIRECTION('',(0.,0.,1.));
#1714=DIRECTION('center_axis',(0.,0.,-1.));
#1715=DIRECTION('ref_axis',(1.,0.,0.));
#1716=DIRECTION('center_axis',(-0.707106781186548,2.85471356124323E-16,
-0.707106781186548));
#1717=DIRECTION('ref_axis',(0.707106781186547,0.,-0.707106781186547));
#1718=DIRECTION('center_axis',(0.,0.,-1.));
#1719=DIRECTION('ref_axis',(1.,0.,0.));
#1720=DIRECTION('',(0.,0.,-1.));
#1721=DIRECTION('center_axis',(0.,0.,-1.));
#1722=DIRECTION('ref_axis',(1.,0.,0.));
#1723=DIRECTION('',(-5.9211894646675E-16,-1.,0.));
#1724=DIRECTION('center_axis',(0.,0.,1.));
#1725=DIRECTION('ref_axis',(1.,0.,0.));
#1726=DIRECTION('center_axis',(0.,0.,1.));
#1727=DIRECTION('ref_axis',(1.,0.,0.));
#1728=DIRECTION('center_axis',(0.,0.,1.));
#1729=DIRECTION('ref_axis',(1.,0.,0.));
#1730=DIRECTION('',(0.,0.,1.));
#1731=DIRECTION('center_axis',(0.707106781186549,-2.85471356124323E-16,
-0.707106781186546));
#1732=DIRECTION('ref_axis',(0.707106781186546,0.,0.707106781186549));
#1733=DIRECTION('center_axis',(0.,0.,-1.));
#1734=DIRECTION('ref_axis',(1.,0.,0.));
#1735=DIRECTION('',(0.,0.,-1.));
#1736=DIRECTION('',(0.,0.,1.));
#1737=DIRECTION('center_axis',(0.,0.,-1.));
#1738=DIRECTION('ref_axis',(1.,0.,0.));
#1739=DIRECTION('center_axis',(0.707106781186549,-2.85471356124323E-16,
-0.707106781186546));
#1740=DIRECTION('ref_axis',(0.707106781186546,0.,0.707106781186549));
#1741=DIRECTION('center_axis',(1.,-5.9211894646675E-16,0.));
#1742=DIRECTION('ref_axis',(5.9211894646675E-16,1.,0.));
#1743=DIRECTION('',(5.9211894646675E-16,1.,0.));
#1744=DIRECTION('',(5.9211894646675E-16,1.,0.));
#1745=DIRECTION('',(0.,0.,1.));
#1746=DIRECTION('',(5.9211894646675E-16,1.,0.));
#1747=DIRECTION('',(0.,0.,1.));
#1748=DIRECTION('',(5.9211894646675E-16,1.,0.));
#1749=DIRECTION('center_axis',(0.,0.,1.));
#1750=DIRECTION('ref_axis',(1.,0.,0.));
#1751=DIRECTION('',(-4.03717463500057E-16,-1.,0.));
#1752=DIRECTION('',(-1.,3.17206578464331E-16,0.));
#1753=DIRECTION('center_axis',(0.,0.,1.));
#1754=DIRECTION('ref_axis',(1.,0.,0.));
#1755=DIRECTION('',(-4.03717463500057E-16,-1.,0.));
#1756=DIRECTION('center_axis',(-1.,5.9211894646675E-16,0.));
#1757=DIRECTION('ref_axis',(-5.9211894646675E-16,-1.,0.));
#1758=DIRECTION('',(-5.9211894646675E-16,-1.,0.));
#1759=DIRECTION('',(0.,0.,1.));
#1760=DIRECTION('',(-5.9211894646675E-16,-1.,0.));
#1761=DIRECTION('',(0.,0.,1.));
#1762=DIRECTION('',(-5.9211894646675E-16,-1.,0.));
#1763=DIRECTION('',(-5.9211894646675E-16,-1.,0.));
#1764=DIRECTION('center_axis',(0.,0.,1.));
#1765=DIRECTION('ref_axis',(1.,0.,0.));
#1766=DIRECTION('',(4.03717463500057E-16,1.,0.));
#1767=DIRECTION('',(1.,-3.17206578464331E-16,0.));
#1768=DIRECTION('center_axis',(0.,0.,1.));
#1769=DIRECTION('ref_axis',(1.,0.,0.));
#1770=DIRECTION('',(-1.,3.17206578464331E-16,0.));
#1771=DIRECTION('',(4.03717463500057E-16,1.,0.));
#1772=DIRECTION('center_axis',(0.707106781186548,-2.85471356124323E-16,
0.707106781186548));
#1773=DIRECTION('ref_axis',(0.707106781186548,0.,-0.707106781186548));
#1774=DIRECTION('',(-4.03717463500057E-16,-1.,0.));
#1775=DIRECTION('',(0.707106781186548,-2.24298922669111E-16,-0.707106781186548));
#1776=DIRECTION('',(4.03717463500057E-16,1.,0.));
#1777=DIRECTION('',(-0.707106781186548,2.24298922669111E-16,0.707106781186548));
#1778=DIRECTION('center_axis',(0.,0.,1.));
#1779=DIRECTION('ref_axis',(1.,0.,0.));
#1780=DIRECTION('',(1.,-3.17206578464331E-16,0.));
#1781=DIRECTION('center_axis',(1.,-4.03717463500057E-16,0.));
#1782=DIRECTION('ref_axis',(4.03717463500057E-16,1.,0.));
#1783=DIRECTION('',(0.,0.,1.));
#1784=DIRECTION('',(-4.03717463500057E-16,-1.,0.));
#1785=DIRECTION('',(0.,0.,1.));
#1786=DIRECTION('center_axis',(-0.707106781186549,2.85471356124323E-16,
0.707106781186546));
#1787=DIRECTION('ref_axis',(0.707106781186546,0.,0.707106781186549));
#1788=DIRECTION('',(4.03717463500057E-16,1.,0.));
#1789=DIRECTION('',(-0.707106781186546,2.24298922669111E-16,-0.707106781186549));
#1790=DIRECTION('',(-4.03717463500057E-16,-1.,0.));
#1791=DIRECTION('',(0.707106781186546,-2.24298922669111E-16,0.707106781186549));
#1792=DIRECTION('center_axis',(0.,0.,1.));
#1793=DIRECTION('ref_axis',(1.,0.,0.));
#1794=DIRECTION('center_axis',(-1.,4.03717463500057E-16,0.));
#1795=DIRECTION('ref_axis',(-4.03717463500057E-16,-1.,0.));
#1796=DIRECTION('',(0.,0.,1.));
#1797=DIRECTION('',(4.03717463500057E-16,1.,0.));
#1798=DIRECTION('',(0.,0.,1.));
#1799=DIRECTION('center_axis',(0.,1.,0.));
#1800=DIRECTION('ref_axis',(-1.,0.,0.));
#1801=DIRECTION('',(-1.,0.,0.));
#1802=DIRECTION('',(0.,0.,1.));
#1803=DIRECTION('',(-1.,0.,0.));
#1804=DIRECTION('',(0.,0.,1.));
#1805=DIRECTION('center_axis',(-1.,0.,0.));
#1806=DIRECTION('ref_axis',(0.,-1.,0.));
#1807=DIRECTION('',(0.,-1.,0.));
#1808=DIRECTION('',(0.,-1.,0.));
#1809=DIRECTION('',(0.,0.,1.));
#1810=DIRECTION('center_axis',(0.,-1.,0.));
#1811=DIRECTION('ref_axis',(1.,0.,0.));
#1812=DIRECTION('',(1.,0.,0.));
#1813=DIRECTION('',(1.,0.,0.));
#1814=DIRECTION('',(0.,0.,1.));
#1815=DIRECTION('center_axis',(1.,0.,0.));
#1816=DIRECTION('ref_axis',(0.,1.,0.));
#1817=DIRECTION('',(0.,1.,0.));
#1818=DIRECTION('',(0.,1.,0.));
#1819=DIRECTION('center_axis',(0.,-1.,0.));
#1820=DIRECTION('ref_axis',(1.,0.,0.));
#1821=DIRECTION('',(-1.,3.17206578464331E-16,0.));
#1822=DIRECTION('',(1.,0.,0.));
#1823=DIRECTION('center_axis',(0.,1.,0.));
#1824=DIRECTION('ref_axis',(-1.,0.,0.));
#1825=DIRECTION('',(1.,0.,0.));
#1826=DIRECTION('',(-1.,0.,0.));
#1827=DIRECTION('center_axis',(0.,0.,1.));
#1828=DIRECTION('ref_axis',(1.,0.,0.));
#1829=DIRECTION('center_axis',(0.,0.,1.));
#1830=DIRECTION('ref_axis',(-1.,0.,0.));
#1831=DIRECTION('center_axis',(0.,0.,1.));
#1832=DIRECTION('ref_axis',(1.,0.,0.));
#1833=DIRECTION('center_axis',(0.,0.,1.));
#1834=DIRECTION('ref_axis',(1.,0.,0.));
#1835=DIRECTION('',(0.,0.,1.));
#1836=DIRECTION('center_axis',(0.,0.,-1.));
#1837=DIRECTION('ref_axis',(1.,0.,0.));
#1838=DIRECTION('center_axis',(0.,0.,1.));
#1839=DIRECTION('ref_axis',(1.,0.,0.));
#1840=DIRECTION('center_axis',(0.,0.,1.));
#1841=DIRECTION('ref_axis',(1.,0.,0.));
#1842=DIRECTION('',(0.,0.,1.));
#1843=DIRECTION('center_axis',(0.,0.,-1.));
#1844=DIRECTION('ref_axis',(1.,0.,0.));
#1845=DIRECTION('center_axis',(0.,0.,1.));
#1846=DIRECTION('ref_axis',(1.,0.,0.));
#1847=DIRECTION('center_axis',(0.,0.,1.));
#1848=DIRECTION('ref_axis',(1.,0.,0.));
#1849=DIRECTION('',(0.,0.,1.));
#1850=DIRECTION('center_axis',(0.,0.,-1.));
#1851=DIRECTION('ref_axis',(1.,0.,0.));
#1852=DIRECTION('center_axis',(0.,0.,1.));
#1853=DIRECTION('ref_axis',(1.,0.,0.));
#1854=DIRECTION('center_axis',(0.,0.,1.));
#1855=DIRECTION('ref_axis',(1.,0.,0.));
#1856=DIRECTION('',(0.,0.,1.));
#1857=DIRECTION('center_axis',(0.,0.,-1.));
#1858=DIRECTION('ref_axis',(1.,0.,0.));
#1859=DIRECTION('center_axis',(0.,0.,1.));
#1860=DIRECTION('ref_axis',(1.,0.,0.));
#1861=DIRECTION('center_axis',(0.,0.,-1.));
#1862=DIRECTION('ref_axis',(1.,0.,0.));
#1863=DIRECTION('',(0.,0.,-1.));
#1864=DIRECTION('center_axis',(0.,0.,-1.));
#1865=DIRECTION('ref_axis',(1.,0.,0.));
#1866=DIRECTION('center_axis',(0.,0.,1.));
#1867=DIRECTION('ref_axis',(1.,0.,0.));
#1868=DIRECTION('center_axis',(0.,0.,-1.));
#1869=DIRECTION('ref_axis',(1.,0.,0.));
#1870=DIRECTION('',(0.,0.,-1.));
#1871=DIRECTION('center_axis',(0.,0.,-1.));
#1872=DIRECTION('ref_axis',(1.,0.,0.));
#1873=DIRECTION('center_axis',(0.,0.,1.));
#1874=DIRECTION('ref_axis',(1.,0.,0.));
#1875=DIRECTION('center_axis',(0.,0.,-1.));
#1876=DIRECTION('ref_axis',(1.,0.,0.));
#1877=DIRECTION('',(0.,0.,-1.));
#1878=DIRECTION('center_axis',(0.,0.,-1.));
#1879=DIRECTION('ref_axis',(1.,0.,0.));
#1880=DIRECTION('center_axis',(0.,0.,1.));
#1881=DIRECTION('ref_axis',(1.,0.,0.));
#1882=DIRECTION('center_axis',(0.,0.,-1.));
#1883=DIRECTION('ref_axis',(1.,0.,0.));
#1884=DIRECTION('',(0.,0.,-1.));
#1885=DIRECTION('center_axis',(0.,0.,-1.));
#1886=DIRECTION('ref_axis',(1.,0.,0.));
#1887=DIRECTION('center_axis',(0.,-1.,0.));
#1888=DIRECTION('ref_axis',(1.,0.,0.));
#1889=DIRECTION('',(1.,0.,0.));
#1890=DIRECTION('',(0.,0.,1.));
#1891=DIRECTION('',(1.,0.,0.));
#1892=DIRECTION('',(0.,0.,1.));
#1893=DIRECTION('center_axis',(1.,0.,0.));
#1894=DIRECTION('ref_axis',(0.,1.,0.));
#1895=DIRECTION('',(0.,1.,0.));
#1896=DIRECTION('',(0.,1.,0.));
#1897=DIRECTION('',(0.,0.,1.));
#1898=DIRECTION('center_axis',(0.,1.,0.));
#1899=DIRECTION('ref_axis',(-1.,0.,0.));
#1900=DIRECTION('',(-1.,0.,0.));
#1901=DIRECTION('',(-1.,0.,0.));
#1902=DIRECTION('',(0.,0.,1.));
#1903=DIRECTION('center_axis',(-1.,0.,0.));
#1904=DIRECTION('ref_axis',(0.,-1.,0.));
#1905=DIRECTION('',(0.,-1.,0.));
#1906=DIRECTION('',(0.,-1.,0.));
#1907=DIRECTION('center_axis',(0.,1.,0.));
#1908=DIRECTION('ref_axis',(-1.,0.,0.));
#1909=DIRECTION('',(1.,0.,0.));
#1910=DIRECTION('',(0.,0.,1.));
#1911=DIRECTION('',(-1.,0.,0.));
#1912=DIRECTION('',(0.,0.,1.));
#1913=DIRECTION('center_axis',(1.,0.,0.));
#1914=DIRECTION('ref_axis',(0.,1.,0.));
#1915=DIRECTION('',(0.,-1.,0.));
#1916=DIRECTION('',(0.,1.,0.));
#1917=DIRECTION('',(0.,0.,1.));
#1918=DIRECTION('center_axis',(0.,-1.,0.));
#1919=DIRECTION('ref_axis',(1.,0.,0.));
#1920=DIRECTION('',(-1.,0.,0.));
#1921=DIRECTION('',(1.,0.,0.));
#1922=DIRECTION('',(0.,0.,1.));
#1923=DIRECTION('center_axis',(-1.,0.,0.));
#1924=DIRECTION('ref_axis',(0.,-1.,0.));
#1925=DIRECTION('',(0.,1.,0.));
#1926=DIRECTION('',(0.,-1.,0.));
#1927=DIRECTION('center_axis',(0.,0.,1.));
#1928=DIRECTION('ref_axis',(1.,0.,0.));
#1929=DIRECTION('center_axis',(0.,0.,1.));
#1930=DIRECTION('ref_axis',(1.,0.,0.));
#1931=CARTESIAN_POINT('',(0.,0.,0.));
#1932=CARTESIAN_POINT('Origin',(-97.0039999999742,-7.49999999999685,3.));
#1933=CARTESIAN_POINT('',(-99.2539999999742,-7.49999999999685,3.));
#1934=CARTESIAN_POINT('Origin',(-97.0039999999742,-7.49999999999685,3.));
#1935=CARTESIAN_POINT('',(-99.2539999999742,-7.49999999999685,0.));
#1936=CARTESIAN_POINT('',(-99.2539999999742,-7.49999999999685,3.));
#1937=CARTESIAN_POINT('Origin',(-97.0039999999742,-7.49999999999685,0.));
#1938=CARTESIAN_POINT('Origin',(97.0040000000258,7.50000000000225,3.));
#1939=CARTESIAN_POINT('',(94.7540000000258,7.50000000000225,3.));
#1940=CARTESIAN_POINT('Origin',(97.0040000000258,7.50000000000225,3.));
#1941=CARTESIAN_POINT('',(94.7540000000258,7.50000000000225,0.));
#1942=CARTESIAN_POINT('',(94.7540000000258,7.50000000000225,3.));
#1943=CARTESIAN_POINT('Origin',(97.0040000000258,7.50000000000225,0.));
#1944=CARTESIAN_POINT('Origin',(-97.0039999999742,7.50000000000237,3.));
#1945=CARTESIAN_POINT('',(-99.2539999999742,7.50000000000237,3.));
#1946=CARTESIAN_POINT('Origin',(-97.0039999999742,7.50000000000237,3.));
#1947=CARTESIAN_POINT('',(-99.2539999999742,7.50000000000237,0.));
#1948=CARTESIAN_POINT('',(-99.2539999999742,7.50000000000237,3.));
#1949=CARTESIAN_POINT('Origin',(-97.0039999999742,7.50000000000237,0.));
#1950=CARTESIAN_POINT('Origin',(97.0040000000258,-7.49999999999697,3.));
#1951=CARTESIAN_POINT('',(94.7540000000258,-7.49999999999697,3.));
#1952=CARTESIAN_POINT('Origin',(97.0040000000258,-7.49999999999697,3.));
#1953=CARTESIAN_POINT('',(94.7540000000258,-7.49999999999697,0.));
#1954=CARTESIAN_POINT('',(94.7540000000258,-7.49999999999697,3.));
#1955=CARTESIAN_POINT('Origin',(97.0040000000258,-7.49999999999697,0.));
#1956=CARTESIAN_POINT('Origin',(119.,0.,0.));
#1957=CARTESIAN_POINT('',(116.2,0.,3.));
#1958=CARTESIAN_POINT('Origin',(119.,0.,3.));
#1959=CARTESIAN_POINT('',(116.2,-3.42901103761258E-16,0.));
#1960=CARTESIAN_POINT('',(116.2,-3.42901103761258E-16,0.));
#1961=CARTESIAN_POINT('Origin',(119.,0.,0.));
#1962=CARTESIAN_POINT('Origin',(119.,15.875,0.));
#1963=CARTESIAN_POINT('',(116.2,15.875,3.));
#1964=CARTESIAN_POINT('Origin',(119.,15.875,3.));
#1965=CARTESIAN_POINT('',(116.2,15.875,0.));
#1966=CARTESIAN_POINT('',(116.2,15.875,0.));
#1967=CARTESIAN_POINT('Origin',(119.,15.875,0.));
#1968=CARTESIAN_POINT('Origin',(-119.,0.,0.));
#1969=CARTESIAN_POINT('',(-121.8,0.,3.));
#1970=CARTESIAN_POINT('Origin',(-119.,0.,3.));
#1971=CARTESIAN_POINT('',(-121.8,-3.42901103761258E-16,0.));
#1972=CARTESIAN_POINT('',(-121.8,-3.42901103761258E-16,0.));
#1973=CARTESIAN_POINT('Origin',(-119.,0.,0.));
#1974=CARTESIAN_POINT('Origin',(119.,-15.875,0.));
#1975=CARTESIAN_POINT('',(116.2,-15.875,3.));
#1976=CARTESIAN_POINT('Origin',(119.,-15.875,3.));
#1977=CARTESIAN_POINT('',(116.2,-15.875,0.));
#1978=CARTESIAN_POINT('',(116.2,-15.875,0.));
#1979=CARTESIAN_POINT('Origin',(119.,-15.875,0.));
#1980=CARTESIAN_POINT('Origin',(-119.,-15.875,0.));
#1981=CARTESIAN_POINT('',(-121.8,-15.875,3.));
#1982=CARTESIAN_POINT('Origin',(-119.,-15.875,3.));
#1983=CARTESIAN_POINT('',(-121.8,-15.875,0.));
#1984=CARTESIAN_POINT('',(-121.8,-15.875,0.));
#1985=CARTESIAN_POINT('Origin',(-119.,-15.875,0.));
#1986=CARTESIAN_POINT('Origin',(-119.,15.875,0.));
#1987=CARTESIAN_POINT('',(-121.8,15.875,3.));
#1988=CARTESIAN_POINT('Origin',(-119.,15.875,3.));
#1989=CARTESIAN_POINT('',(-121.8,15.875,0.));
#1990=CARTESIAN_POINT('',(-121.8,15.875,0.));
#1991=CARTESIAN_POINT('Origin',(-119.,15.875,0.));
#1992=CARTESIAN_POINT('Origin',(-79.503,13.0025,0.));
#1993=CARTESIAN_POINT('',(-79.503,13.0025,0.));
#1994=CARTESIAN_POINT('',(79.503,13.0025,0.));
#1995=CARTESIAN_POINT('',(79.503,13.0025,0.));
#1996=CARTESIAN_POINT('',(79.503,13.0025,3.));
#1997=CARTESIAN_POINT('',(79.503,13.0025,0.));
#1998=CARTESIAN_POINT('',(-79.503,13.0025,3.));
#1999=CARTESIAN_POINT('',(79.503,13.0025,3.));
#2000=CARTESIAN_POINT('',(-79.503,13.0025,0.));
#2001=CARTESIAN_POINT('Origin',(-79.503,-13.0025,0.));
#2002=CARTESIAN_POINT('',(-79.503,-13.0025,0.));
#2003=CARTESIAN_POINT('',(-79.503,13.0025,0.));
#2004=CARTESIAN_POINT('',(-79.503,-13.0025,3.));
#2005=CARTESIAN_POINT('',(-79.503,13.0025,3.));
#2006=CARTESIAN_POINT('',(-79.503,-13.0025,0.));
#2007=CARTESIAN_POINT('Origin',(79.503,-13.0025,0.));
#2008=CARTESIAN_POINT('',(79.503,-13.0025,0.));
#2009=CARTESIAN_POINT('',(-79.503,-13.0025,0.));
#2010=CARTESIAN_POINT('',(79.503,-13.0025,3.));
#2011=CARTESIAN_POINT('',(-79.503,-13.0025,3.));
#2012=CARTESIAN_POINT('',(79.503,-13.0025,0.));
#2013=CARTESIAN_POINT('Origin',(79.503,13.0025,0.));
#2014=CARTESIAN_POINT('',(79.503,-13.0025,0.));
#2015=CARTESIAN_POINT('',(79.503,-13.0025,3.));
#2016=CARTESIAN_POINT('Origin',(127.5,-22.225,0.));
#2017=CARTESIAN_POINT('',(127.5,22.225,0.));
#2018=CARTESIAN_POINT('',(127.5,-22.225,0.));
#2019=CARTESIAN_POINT('',(127.5,22.225,0.));
#2020=CARTESIAN_POINT('',(127.5,22.225,3.));
#2021=CARTESIAN_POINT('',(127.5,22.225,0.));
#2022=CARTESIAN_POINT('',(127.5,-22.225,3.));
#2023=CARTESIAN_POINT('',(127.5,22.225,3.));
#2024=CARTESIAN_POINT('',(127.5,-22.225,0.));
#2025=CARTESIAN_POINT('Origin',(-127.5,-22.225,0.));
#2026=CARTESIAN_POINT('',(-127.5,-22.225,0.));
#2027=CARTESIAN_POINT('',(127.5,-22.225,0.));
#2028=CARTESIAN_POINT('',(-127.5,-22.225,3.));
#2029=CARTESIAN_POINT('',(127.5,-22.225,3.));
#2030=CARTESIAN_POINT('',(-127.5,-22.225,0.));
#2031=CARTESIAN_POINT('Origin',(-127.5,22.225,0.));
#2032=CARTESIAN_POINT('',(-127.5,22.225,0.));
#2033=CARTESIAN_POINT('',(-127.5,-22.225,0.));
#2034=CARTESIAN_POINT('',(-127.5,22.225,3.));
#2035=CARTESIAN_POINT('',(-127.5,-22.225,3.));
#2036=CARTESIAN_POINT('',(-127.5,22.225,0.));
#2037=CARTESIAN_POINT('Origin',(127.5,22.225,0.));
#2038=CARTESIAN_POINT('',(-127.5,22.225,0.));
#2039=CARTESIAN_POINT('',(-127.5,22.225,3.));
#2040=CARTESIAN_POINT('Origin',(0.,0.,3.));
#2041=CARTESIAN_POINT('Origin',(0.,0.,0.));
#2042=CARTESIAN_POINT('Origin',(97.0040000000258,-7.49999999999697,18.));
#2043=CARTESIAN_POINT('',(96.0040000000258,-9.5155644370716,18.));
#2044=CARTESIAN_POINT('',(96.0040000000258,-5.48443556292234,18.));
#2045=CARTESIAN_POINT('',(96.0040000000258,-11.249999999997,18.));
#2046=CARTESIAN_POINT('',(94.7540000000258,-7.49999999999697,18.));
#2047=CARTESIAN_POINT('Origin',(97.0040000000258,-7.49999999999697,18.));
#2048=CARTESIAN_POINT('Origin',(97.0040000000258,-7.49999999999697,18.));
#2049=CARTESIAN_POINT('Origin',(97.0040000000258,-7.49999999999697,3.));
#2050=CARTESIAN_POINT('',(94.7540000000258,-7.49999999999697,3.));
#2051=CARTESIAN_POINT('Origin',(97.0040000000258,-7.49999999999697,3.));
#2052=CARTESIAN_POINT('',(94.7540000000258,-7.49999999999697,3.));
#2053=CARTESIAN_POINT('',(96.0040000000258,-9.51556443707159,13.));
#2054=CARTESIAN_POINT('',(96.0040000000258,-9.5155644370716,3.));
#2055=CARTESIAN_POINT('',(98.0040000000258,-9.51556443707161,13.));
#2056=CARTESIAN_POINT('Origin',(97.0040000000258,-7.49999999999697,13.));
#2057=CARTESIAN_POINT('',(98.0040000000258,-5.48443556292233,13.));
#2058=CARTESIAN_POINT('Origin',(97.0040000000258,-7.49999999999697,14.));
#2059=CARTESIAN_POINT('',(96.0040000000258,-5.48443556292234,13.));
#2060=CARTESIAN_POINT('Origin',(97.0040000000258,-7.49999999999697,13.));
#2061=CARTESIAN_POINT('',(96.0040000000258,-5.48443556292234,3.));
#2062=CARTESIAN_POINT('Origin',(-97.0039999999742,-7.49999999999685,18.));
#2063=CARTESIAN_POINT('',(-96.0039999999742,-5.48443556292223,18.));
#2064=CARTESIAN_POINT('',(-96.0039999999742,-9.51556443707148,18.));
#2065=CARTESIAN_POINT('',(-96.0039999999742,3.75000000000309,18.));
#2066=CARTESIAN_POINT('Origin',(-97.0039999999742,-7.49999999999685,18.));
#2067=CARTESIAN_POINT('Origin',(-97.0039999999742,-7.49999999999685,3.));
#2068=CARTESIAN_POINT('',(-99.2539999999742,-7.49999999999685,3.));
#2069=CARTESIAN_POINT('Origin',(-97.0039999999742,-7.49999999999685,3.));
#2070=CARTESIAN_POINT('',(-99.2539999999742,-7.49999999999685,11.75));
#2071=CARTESIAN_POINT('',(-99.2539999999742,-7.49999999999685,3.));
#2072=CARTESIAN_POINT('',(-98.0039999999742,-9.5155644370715,13.));
#2073=CARTESIAN_POINT('Origin',(-97.0039999999742,-7.49999999999685,14.));
#2074=CARTESIAN_POINT('',(-96.0039999999742,-9.51556443707148,13.));
#2075=CARTESIAN_POINT('Origin',(-97.0039999999742,-7.49999999999685,13.));
#2076=CARTESIAN_POINT('',(-96.0039999999742,-9.51556443707148,3.));
#2077=CARTESIAN_POINT('',(-96.0039999999742,-5.48443556292224,13.));
#2078=CARTESIAN_POINT('',(-96.0039999999742,-5.48443556292223,3.));
#2079=CARTESIAN_POINT('',(-98.0039999999742,-5.48443556292221,13.));
#2080=CARTESIAN_POINT('Origin',(-97.0039999999742,-7.49999999999685,13.));
#2081=CARTESIAN_POINT('Origin',(-97.0039999999742,-7.49999999999685,14.));
#2082=CARTESIAN_POINT('Origin',(97.0040000000258,7.50000000000225,18.));
#2083=CARTESIAN_POINT('',(96.0040000000258,5.48443556292762,18.));
#2084=CARTESIAN_POINT('',(96.0040000000258,9.51556443707688,18.));
#2085=CARTESIAN_POINT('',(96.0040000000258,-3.74999999999736,18.));
#2086=CARTESIAN_POINT('',(94.7540000000258,7.50000000000225,18.));
#2087=CARTESIAN_POINT('Origin',(97.0040000000258,7.50000000000225,18.));
#2088=CARTESIAN_POINT('Origin',(97.0040000000258,7.50000000000225,18.));
#2089=CARTESIAN_POINT('Origin',(97.0040000000258,7.50000000000225,3.));
#2090=CARTESIAN_POINT('',(94.7540000000258,7.50000000000225,3.));
#2091=CARTESIAN_POINT('Origin',(97.0040000000258,7.50000000000225,3.));
#2092=CARTESIAN_POINT('',(94.7540000000258,7.50000000000225,3.));
#2093=CARTESIAN_POINT('',(96.0040000000258,5.48443556292763,13.));
#2094=CARTESIAN_POINT('',(96.0040000000258,5.48443556292762,3.));
#2095=CARTESIAN_POINT('',(98.0040000000258,5.48443556292761,13.));
#2096=CARTESIAN_POINT('Origin',(97.0040000000258,7.50000000000225,13.));
#2097=CARTESIAN_POINT('',(98.0040000000258,9.5155644370769,13.));
#2098=CARTESIAN_POINT('Origin',(97.0040000000258,7.50000000000225,14.));
#2099=CARTESIAN_POINT('',(96.0040000000258,9.51556443707688,13.));
#2100=CARTESIAN_POINT('Origin',(97.0040000000258,7.50000000000225,13.));
#2101=CARTESIAN_POINT('',(96.0040000000258,9.51556443707688,3.));
#2102=CARTESIAN_POINT('Origin',(-97.0039999999742,7.50000000000237,18.));
#2103=CARTESIAN_POINT('',(-96.0039999999742,9.515564437077,18.));
#2104=CARTESIAN_POINT('',(-96.0039999999742,5.48443556292773,18.));
#2105=CARTESIAN_POINT('',(-96.0039999999742,11.2500000000027,18.));
#2106=CARTESIAN_POINT('Origin',(-97.0039999999742,7.50000000000237,18.));
#2107=CARTESIAN_POINT('Origin',(-97.0039999999742,7.50000000000237,3.));
#2108=CARTESIAN_POINT('',(-99.2539999999742,7.50000000000237,3.));
#2109=CARTESIAN_POINT('Origin',(-97.0039999999742,7.50000000000237,3.));
#2110=CARTESIAN_POINT('',(-99.2539999999742,7.50000000000237,11.75));
#2111=CARTESIAN_POINT('',(-99.2539999999742,7.50000000000237,3.));
#2112=CARTESIAN_POINT('',(-98.0039999999742,5.48443556292774,13.));
#2113=CARTESIAN_POINT('Origin',(-97.0039999999742,7.50000000000237,14.));
#2114=CARTESIAN_POINT('',(-96.0039999999742,5.48443556292773,13.));
#2115=CARTESIAN_POINT('Origin',(-97.0039999999742,7.50000000000237,13.));
#2116=CARTESIAN_POINT('',(-96.0039999999742,5.48443556292773,3.));
#2117=CARTESIAN_POINT('',(-96.0039999999742,9.515564437077,13.));
#2118=CARTESIAN_POINT('',(-96.0039999999742,9.515564437077,3.));
#2119=CARTESIAN_POINT('',(-98.0039999999742,9.51556443707699,13.));
#2120=CARTESIAN_POINT('Origin',(-97.0039999999742,7.50000000000237,13.));
#2121=CARTESIAN_POINT('Origin',(-97.0039999999742,7.50000000000237,14.));
#2122=CARTESIAN_POINT('Origin',(96.0040000000258,-14.999999999997,3.));
#2123=CARTESIAN_POINT('',(96.0040000000258,-7.49999999999697,13.));
#2124=CARTESIAN_POINT('',(96.0040000000258,15.000000000003,13.));
#2125=CARTESIAN_POINT('',(96.0040000000258,-7.49999999999697,13.));
#2126=CARTESIAN_POINT('',(96.0040000000258,15.000000000003,91.));
#2127=CARTESIAN_POINT('',(96.0040000000258,15.000000000003,3.));
#2128=CARTESIAN_POINT('',(96.0040000000258,-14.999999999997,91.));
#2129=CARTESIAN_POINT('',(96.0040000000258,15.000000000003,91.));
#2130=CARTESIAN_POINT('',(96.0040000000258,-14.999999999997,13.));
#2131=CARTESIAN_POINT('',(96.0040000000258,-14.999999999997,3.));
#2132=CARTESIAN_POINT('',(96.0040000000258,-7.49999999999697,13.));
#2133=CARTESIAN_POINT('Origin',(99.5040000000258,3.02868841117743E-12,13.));
#2134=CARTESIAN_POINT('',(98.0040000000258,15.000000000003,13.));
#2135=CARTESIAN_POINT('',(98.0040000000258,-7.49999999999697,13.));
#2136=CARTESIAN_POINT('',(96.0040000000258,15.000000000003,13.));
#2137=CARTESIAN_POINT('Origin',(99.5040000000258,3.02868841117743E-12,13.));
#2138=CARTESIAN_POINT('',(98.0040000000258,-7.49999999999697,13.));
#2139=CARTESIAN_POINT('Origin',(-96.0039999999742,15.000000000003,3.));
#2140=CARTESIAN_POINT('',(-96.0039999999742,-14.999999999997,13.));
#2141=CARTESIAN_POINT('',(-96.0039999999742,7.50000000000303,13.));
#2142=CARTESIAN_POINT('',(-96.0039999999742,-14.999999999997,91.));
#2143=CARTESIAN_POINT('',(-96.0039999999742,-14.999999999997,3.));
#2144=CARTESIAN_POINT('',(-96.0039999999742,15.000000000003,91.));
#2145=CARTESIAN_POINT('',(-96.0039999999742,-14.999999999997,91.));
#2146=CARTESIAN_POINT('',(-96.0039999999742,15.000000000003,13.));
#2147=CARTESIAN_POINT('',(-96.0039999999742,15.000000000003,3.));
#2148=CARTESIAN_POINT('',(-96.0039999999742,7.50000000000303,13.));
#2149=CARTESIAN_POINT('',(-96.0039999999742,7.50000000000303,13.));
#2150=CARTESIAN_POINT('Origin',(-99.5039999999742,3.03312930327593E-12,
13.));
#2151=CARTESIAN_POINT('',(-98.0039999999742,-14.999999999997,13.));
#2152=CARTESIAN_POINT('',(-98.0039999999742,7.50000000000303,13.));
#2153=CARTESIAN_POINT('',(-96.0039999999742,-14.999999999997,13.));
#2154=CARTESIAN_POINT('Origin',(-99.5039999999742,3.03312930327593E-12,
13.));
#2155=CARTESIAN_POINT('',(-98.0039999999742,15.000000000003,13.));
#2156=CARTESIAN_POINT('',(-96.0039999999742,15.000000000003,13.));
#2157=CARTESIAN_POINT('',(-98.0039999999742,7.50000000000303,13.));
#2158=CARTESIAN_POINT('Origin',(100.504000000026,-7.49999999999697,10.5));
#2159=CARTESIAN_POINT('',(98.0040000000258,-14.999999999997,13.));
#2160=CARTESIAN_POINT('',(98.0040000000258,-7.49999999999697,13.));
#2161=CARTESIAN_POINT('',(103.004000000026,-14.999999999997,8.));
#2162=CARTESIAN_POINT('',(101.254000000026,-14.999999999997,9.75));
#2163=CARTESIAN_POINT('',(103.004000000026,15.000000000003,8.));
#2164=CARTESIAN_POINT('',(103.004000000026,-7.49999999999697,8.));
#2165=CARTESIAN_POINT('',(103.004000000026,15.000000000003,8.));
#2166=CARTESIAN_POINT('Origin',(99.5040000000258,3.02868841117743E-12,13.));
#2167=CARTESIAN_POINT('',(96.0040000000258,-14.999999999997,13.));
#2168=CARTESIAN_POINT('Origin',(103.004000000026,-14.999999999997,3.));
#2169=CARTESIAN_POINT('',(103.004000000026,-14.999999999997,3.));
#2170=CARTESIAN_POINT('',(103.004000000026,-14.999999999997,3.));
#2171=CARTESIAN_POINT('',(103.004000000026,15.000000000003,3.));
#2172=CARTESIAN_POINT('',(103.004000000026,22.000000000003,3.));
#2173=CARTESIAN_POINT('',(103.004000000026,15.000000000003,3.));
#2174=CARTESIAN_POINT('Origin',(-100.503999999974,7.50000000000303,10.5));
#2175=CARTESIAN_POINT('',(-98.0039999999742,7.50000000000303,13.));
#2176=CARTESIAN_POINT('',(-103.003999999974,15.000000000003,8.));
#2177=CARTESIAN_POINT('',(-101.253999999974,15.000000000003,9.75));
#2178=CARTESIAN_POINT('',(-103.003999999974,-14.999999999997,8.));
#2179=CARTESIAN_POINT('',(-103.003999999974,7.50000000000303,8.));
#2180=CARTESIAN_POINT('',(-103.003999999974,-14.999999999997,8.));
#2181=CARTESIAN_POINT('Origin',(-99.5039999999742,3.03312930327593E-12,
13.));
#2182=CARTESIAN_POINT('Origin',(-103.003999999974,15.000000000003,3.));
#2183=CARTESIAN_POINT('',(-103.003999999974,15.000000000003,3.));
#2184=CARTESIAN_POINT('',(-103.003999999974,15.000000000003,3.));
#2185=CARTESIAN_POINT('',(-103.003999999974,-14.999999999997,3.));
#2186=CARTESIAN_POINT('',(-103.003999999974,-21.999999999997,3.));
#2187=CARTESIAN_POINT('',(-103.003999999974,-14.999999999997,3.));
#2188=CARTESIAN_POINT('Origin',(79.503,-13.0025,3.));
#2189=CARTESIAN_POINT('',(79.503,-13.0025,3.));
#2190=CARTESIAN_POINT('',(-79.503,-13.0025,3.));
#2191=CARTESIAN_POINT('',(79.503,-13.0025,3.));
#2192=CARTESIAN_POINT('',(-79.503,-13.0025,91.));
#2193=CARTESIAN_POINT('',(-79.503,-13.0025,3.));
#2194=CARTESIAN_POINT('',(79.503,-13.0025,91.));
#2195=CARTESIAN_POINT('',(79.503,-13.0025,91.));
#2196=CARTESIAN_POINT('',(79.503,-13.0025,3.));
#2197=CARTESIAN_POINT('Origin',(79.503,13.0025,3.));
#2198=CARTESIAN_POINT('',(79.503,13.0025,3.));
#2199=CARTESIAN_POINT('',(79.503,13.0025,3.));
#2200=CARTESIAN_POINT('',(79.503,13.0025,91.));
#2201=CARTESIAN_POINT('',(79.503,13.0025,91.));
#2202=CARTESIAN_POINT('',(79.503,13.0025,3.));
#2203=CARTESIAN_POINT('Origin',(-79.503,13.0025,3.));
#2204=CARTESIAN_POINT('',(-79.503,13.0025,3.));
#2205=CARTESIAN_POINT('',(-79.503,13.0025,3.));
#2206=CARTESIAN_POINT('',(-79.503,13.0025,91.));
#2207=CARTESIAN_POINT('',(-79.503,13.0025,91.));
#2208=CARTESIAN_POINT('',(-79.503,13.0025,3.));
#2209=CARTESIAN_POINT('Origin',(-79.503,-13.0025,3.));
#2210=CARTESIAN_POINT('',(-79.503,-13.0025,3.));
#2211=CARTESIAN_POINT('',(-79.503,-13.0025,91.));
#2212=CARTESIAN_POINT('Origin',(-96.0039999999742,-14.999999999997,3.));
#2213=CARTESIAN_POINT('',(-96.0039999999742,-14.999999999997,3.));
#2214=CARTESIAN_POINT('',(96.0040000000258,-14.999999999997,91.));
#2215=CARTESIAN_POINT('Origin',(96.0040000000258,15.000000000003,3.));
#2216=CARTESIAN_POINT('',(-96.0039999999742,15.000000000003,3.));
#2217=CARTESIAN_POINT('',(-96.0039999999742,15.000000000003,91.));
#2218=CARTESIAN_POINT('Origin',(2.58104648764856E-11,3.03090885722668E-12,
91.));
#2219=CARTESIAN_POINT('Origin',(2.58104648764856E-11,3.03090885722668E-12,
3.));
#2220=CARTESIAN_POINT('Origin',(-101.5,7.50000000000237,0.));
#2221=CARTESIAN_POINT('',(-103.75,7.50000000000237,0.));
#2222=CARTESIAN_POINT('Origin',(-101.5,7.50000000000237,0.));
#2223=CARTESIAN_POINT('',(-103.75,7.50000000000237,3.));
#2224=CARTESIAN_POINT('',(-103.75,7.50000000000237,0.));
#2225=CARTESIAN_POINT('Origin',(-101.5,7.50000000000237,3.));
#2226=CARTESIAN_POINT('Origin',(101.5,7.50000000000237,0.));
#2227=CARTESIAN_POINT('',(99.25,7.50000000000237,0.));
#2228=CARTESIAN_POINT('Origin',(101.5,7.50000000000237,0.));
#2229=CARTESIAN_POINT('',(99.25,7.50000000000237,3.));
#2230=CARTESIAN_POINT('',(99.25,7.50000000000237,0.));
#2231=CARTESIAN_POINT('Origin',(101.5,7.50000000000237,3.));
#2232=CARTESIAN_POINT('Origin',(-101.5,-7.49999999999685,0.));
#2233=CARTESIAN_POINT('',(-103.75,-7.49999999999685,0.));
#2234=CARTESIAN_POINT('Origin',(-101.5,-7.49999999999685,0.));
#2235=CARTESIAN_POINT('',(-103.75,-7.49999999999685,3.));
#2236=CARTESIAN_POINT('',(-103.75,-7.49999999999685,0.));
#2237=CARTESIAN_POINT('Origin',(-101.5,-7.49999999999685,3.));
#2238=CARTESIAN_POINT('Origin',(101.5,-7.49999999999686,0.));
#2239=CARTESIAN_POINT('',(99.25,-7.49999999999686,0.));
#2240=CARTESIAN_POINT('Origin',(101.5,-7.49999999999686,0.));
#2241=CARTESIAN_POINT('',(99.25,-7.49999999999686,3.));
#2242=CARTESIAN_POINT('',(99.25,-7.49999999999686,0.));
#2243=CARTESIAN_POINT('Origin',(101.5,-7.49999999999686,3.));
#2244=CARTESIAN_POINT('Origin',(119.,-15.875,0.));
#2245=CARTESIAN_POINT('',(116.2,-15.875,3.));
#2246=CARTESIAN_POINT('Origin',(119.,-15.875,3.));
#2247=CARTESIAN_POINT('',(116.2,-15.875,0.));
#2248=CARTESIAN_POINT('',(116.2,-15.875,0.));
#2249=CARTESIAN_POINT('Origin',(119.,-15.875,0.));
#2250=CARTESIAN_POINT('Origin',(-119.,-15.875,0.));
#2251=CARTESIAN_POINT('',(-121.8,-15.875,3.));
#2252=CARTESIAN_POINT('Origin',(-119.,-15.875,3.));
#2253=CARTESIAN_POINT('',(-121.8,-15.875,0.));
#2254=CARTESIAN_POINT('',(-121.8,-15.875,0.));
#2255=CARTESIAN_POINT('Origin',(-119.,-15.875,0.));
#2256=CARTESIAN_POINT('Origin',(119.,15.875,0.));
#2257=CARTESIAN_POINT('',(116.2,15.875,3.));
#2258=CARTESIAN_POINT('Origin',(119.,15.875,3.));
#2259=CARTESIAN_POINT('',(116.2,15.875,0.));
#2260=CARTESIAN_POINT('',(116.2,15.875,0.));
#2261=CARTESIAN_POINT('Origin',(119.,15.875,0.));
#2262=CARTESIAN_POINT('Origin',(-119.,15.875,0.));
#2263=CARTESIAN_POINT('',(-121.8,15.875,3.));
#2264=CARTESIAN_POINT('Origin',(-119.,15.875,3.));
#2265=CARTESIAN_POINT('',(-121.8,15.875,0.));
#2266=CARTESIAN_POINT('',(-121.8,15.875,0.));
#2267=CARTESIAN_POINT('Origin',(-119.,15.875,0.));
#2268=CARTESIAN_POINT('Origin',(-91.5,18.5,0.));
#2269=CARTESIAN_POINT('',(-91.5,18.5,0.));
#2270=CARTESIAN_POINT('',(91.5,18.5,0.));
#2271=CARTESIAN_POINT('',(91.5,18.5,0.));
#2272=CARTESIAN_POINT('',(91.5,18.5,3.));
#2273=CARTESIAN_POINT('',(91.5,18.5,0.));
#2274=CARTESIAN_POINT('',(-91.5,18.5,3.));
#2275=CARTESIAN_POINT('',(91.5,18.5,3.));
#2276=CARTESIAN_POINT('',(-91.5,18.5,0.));
#2277=CARTESIAN_POINT('Origin',(-91.5,-18.5,0.));
#2278=CARTESIAN_POINT('',(-91.5,-18.5,0.));
#2279=CARTESIAN_POINT('',(-91.5,18.5,0.));
#2280=CARTESIAN_POINT('',(-91.5,-18.5,3.));
#2281=CARTESIAN_POINT('',(-91.5,18.5,3.));
#2282=CARTESIAN_POINT('',(-91.5,-18.5,0.));
#2283=CARTESIAN_POINT('Origin',(91.5,-18.5,0.));
#2284=CARTESIAN_POINT('',(91.5,-18.5,0.));
#2285=CARTESIAN_POINT('',(-91.5,-18.5,0.));
#2286=CARTESIAN_POINT('',(91.5,-18.5,3.));
#2287=CARTESIAN_POINT('',(-91.5,-18.5,3.));
#2288=CARTESIAN_POINT('',(91.5,-18.5,0.));
#2289=CARTESIAN_POINT('Origin',(91.5,18.5,0.));
#2290=CARTESIAN_POINT('',(91.5,-18.5,0.));
#2291=CARTESIAN_POINT('',(91.5,-18.5,3.));
#2292=CARTESIAN_POINT('Origin',(127.5,22.225,0.));
#2293=CARTESIAN_POINT('',(-127.5,22.225,0.));
#2294=CARTESIAN_POINT('',(127.5,22.225,0.));
#2295=CARTESIAN_POINT('',(-127.5,22.225,0.));
#2296=CARTESIAN_POINT('',(-127.5,22.225,3.));
#2297=CARTESIAN_POINT('',(-127.5,22.225,0.));
#2298=CARTESIAN_POINT('',(127.5,22.225,3.));
#2299=CARTESIAN_POINT('',(-127.5,22.225,3.));
#2300=CARTESIAN_POINT('',(127.5,22.225,0.));
#2301=CARTESIAN_POINT('Origin',(127.5,-22.225,0.));
#2302=CARTESIAN_POINT('',(127.5,-22.225,0.));
#2303=CARTESIAN_POINT('',(127.5,22.225,0.));
#2304=CARTESIAN_POINT('',(127.5,-22.225,3.));
#2305=CARTESIAN_POINT('',(127.5,22.225,3.));
#2306=CARTESIAN_POINT('',(127.5,-22.225,0.));
#2307=CARTESIAN_POINT('Origin',(-127.5,-22.225,0.));
#2308=CARTESIAN_POINT('',(-127.5,-22.225,0.));
#2309=CARTESIAN_POINT('',(127.5,-22.225,0.));
#2310=CARTESIAN_POINT('',(-127.5,-22.225,3.));
#2311=CARTESIAN_POINT('',(127.5,-22.225,3.));
#2312=CARTESIAN_POINT('',(-127.5,-22.225,0.));
#2313=CARTESIAN_POINT('Origin',(-127.5,22.225,0.));
#2314=CARTESIAN_POINT('',(-127.5,-22.225,0.));
#2315=CARTESIAN_POINT('',(-127.5,-22.225,3.));
#2316=CARTESIAN_POINT('Origin',(0.,0.,3.));
#2317=CARTESIAN_POINT('Origin',(0.,0.,0.));
#2318=UNCERTAINTY_MEASURE_WITH_UNIT(LENGTH_MEASURE(0.01),#2322,
'DISTANCE_ACCURACY_VALUE',
'Maximum model space distance between geometric entities at asserted c
onnectivities');
#2319=UNCERTAINTY_MEASURE_WITH_UNIT(LENGTH_MEASURE(0.01),#2322,
'DISTANCE_ACCURACY_VALUE',
'Maximum model space distance between geometric entities at asserted c
onnectivities');
#2320=(
GEOMETRIC_REPRESENTATION_CONTEXT(3)
GLOBAL_UNCERTAINTY_ASSIGNED_CONTEXT((#2318))
GLOBAL_UNIT_ASSIGNED_CONTEXT((#2322,#2324,#2325))
REPRESENTATION_CONTEXT('','3D')
);
#2321=(
GEOMETRIC_REPRESENTATION_CONTEXT(3)
GLOBAL_UNCERTAINTY_ASSIGNED_CONTEXT((#2319))
GLOBAL_UNIT_ASSIGNED_CONTEXT((#2322,#2324,#2325))
REPRESENTATION_CONTEXT('','3D')
);
#2322=(
LENGTH_UNIT()
NAMED_UNIT(*)
SI_UNIT(.MILLI.,.METRE.)
);
#2323=(
LENGTH_UNIT()
NAMED_UNIT(*)
SI_UNIT($,.METRE.)
);
#2324=(
NAMED_UNIT(*)
PLANE_ANGLE_UNIT()
SI_UNIT($,.RADIAN.)
);
#2325=(
NAMED_UNIT(*)
SI_UNIT($,.STERADIAN.)
SOLID_ANGLE_UNIT()
);
#2326=SHAPE_DEFINITION_REPRESENTATION(#2327,#2328);
#2327=PRODUCT_DEFINITION_SHAPE('',$,#2330);
#2328=SHAPE_REPRESENTATION('',(#1418),#2320);
#2329=PRODUCT_DEFINITION_CONTEXT('part definition',#2334,'design');
#2330=PRODUCT_DEFINITION('Omada Switch','Omada Switch v7',#2331,#2329);
#2331=PRODUCT_DEFINITION_FORMATION('',$,#2336);
#2332=PRODUCT_RELATED_PRODUCT_CATEGORY('Omada Switch v7',
'Omada Switch v7',(#2336));
#2333=APPLICATION_PROTOCOL_DEFINITION('international standard',
'automotive_design',2009,#2334);
#2334=APPLICATION_CONTEXT(
'Core Data for Automotive Mechanical Design Process');
#2335=PRODUCT_CONTEXT('part definition',#2334,'mechanical');
#2336=PRODUCT('Omada Switch','Omada Switch v7',$,(#2335));
#2337=PRESENTATION_STYLE_ASSIGNMENT((#2338));
#2338=SURFACE_STYLE_USAGE(.BOTH.,#2339);
#2339=SURFACE_SIDE_STYLE('',(#2340));
#2340=SURFACE_STYLE_FILL_AREA(#2341);
#2341=FILL_AREA_STYLE('Steel - Satin',(#2342));
#2342=FILL_AREA_STYLE_COLOUR('Steel - Satin',#2343);
#2343=COLOUR_RGB('Steel - Satin',0.627450980392157,0.627450980392157,0.627450980392157);
ENDSEC;
END-ISO-10303-21;
